<?xml version="1.0" standalone="no"?>
<!DOCTYPE svg PUBLIC "-//W3C//DTD SVG 1.1//EN" "http://www.w3.org/Graphics/SVG/1.1/DTD/svg11.dtd" >
<svg xmlns="http://www.w3.org/2000/svg" xmlns:xlink="http://www.w3.org/1999/xlink" version="1.1">
<metadata>
Created by FontForge 20170731 at Thu Aug 18 03:11:55 2022
 By Aleksey,,,
Copyright (c) 1988, 1990, 1993, 2003 Linotype Library GmbH, www.linotype.com. All rights reserved. Copyright (c) 1988, 1990, 1993 Adobe Systems Incorporated. All Rights Reserved.
</metadata>
<defs>
<font id="HelveticaNeueLTPro-Ex" horiz-adv-x="454" >
  <font-face 
    font-family="HelveticaNeueLT Pro 53 Ex"
    font-weight="400"
    font-stretch="normal"
    units-per-em="2048"
    panose-1="2 11 6 5 2 2 2 2 2 4"
    ascent="1462"
    descent="-586"
    x-height="1073"
    cap-height="1462"
    bbox="-322 -451 2376 2021"
    underline-thickness="102"
    underline-position="-307"
    unicode-range="U+000D-FB02"
  />
<missing-glyph horiz-adv-x="1048" 
d="M455 240h114v137h-114v-137zM461 479h94q0 107 12 148q11 38 88 106q75 69 102 123t27 123q0 120 -72 194t-182 74q-115 0 -189 -69.5t-87 -210.5l102 -17q11 100 56 147.5t112 47.5q64 0 110 -50.5t46 -123.5q0 -41 -19.5 -75.5t-82.5 -94.5q-67 -67 -95 -121
q-26 -51 -26 -166zM946 102h-844v1264h844v-1264zM1049 1470h-1049v-1470h1049v1470z" />
    <glyph glyph-name="IJ" unicode="IJ" horiz-adv-x="1732" 
d="M176 0v1462h217v-1462h-217zM604 498h205v-70q0 -145 75 -219t214 -74q133 0 201.5 74.5t68.5 216.5v1036h217v-991q0 -508 -483 -508q-79 0 -145 12.5t-114 32.5t-86.5 52t-63 63t-42 74.5t-26.5 77t-14 80t-6 74.5t-1 69z" />
    <glyph glyph-name="ij" unicode="ij" horiz-adv-x="933" 
d="M125 1249v226h205v-226h-205zM125 0v1073h205v-1073h-205zM604 1249v226h205v-226h-205zM373 -410v172q28 -4 39 -4h37q84 0 119.5 30.5t35.5 98.5v1186h205v-1139q0 -190 -74 -269t-266 -79q-26 0 -96 4z" />
    <glyph glyph-name="napostrophe" unicode="&#x22;n" horiz-adv-x="1329" 
d="M125 0v1073h205v-162h4q133 199 420 199q205 0 327.5 -93.5t122.5 -285.5v-731h-205v690q0 248 -317 248q-148 0 -250 -84.5t-102 -235.5v-618h-205zM23 1462v178h204v-141q0 -170 -204 -170v66q38 6 59 21t27 46h-86z" />
    <glyph glyph-name="fi" unicode="fi" horiz-adv-x="1138" 
d="M215 1073v160q0 143 83.5 204.5t246.5 61.5q28 0 56.5 -2.5t67 -7t54.5 -6.5v-160q-78 4 -115 4q-105 0 -146.5 -20.5t-41.5 -83.5v-150h303v-160h-303v-913h-205v913h-219v160h219zM809 1249v226h205v-226h-205zM809 0v1073h205v-1073h-205z" />
    <glyph glyph-name="fl" unicode="fl" horiz-adv-x="1138" 
d="M215 1073v160q0 143 83.5 204.5t246.5 61.5q28 0 56.5 -2.5t67 -7t54.5 -6.5v-160q-78 4 -115 4q-105 0 -146.5 -20.5t-41.5 -83.5v-150h303v-160h-303v-913h-205v913h-219v160h219zM809 0v1475h205v-1475h-205z" />
    <glyph glyph-name=".notdef" horiz-adv-x="1048" 
d="M455 240h114v137h-114v-137zM461 479h94q0 107 12 148q11 38 88 106q75 69 102 123t27 123q0 120 -72 194t-182 74q-115 0 -189 -69.5t-87 -210.5l102 -17q11 100 56 147.5t112 47.5q64 0 110 -50.5t46 -123.5q0 -41 -19.5 -75.5t-82.5 -94.5q-67 -67 -95 -121
q-26 -51 -26 -166zM946 102h-844v1264h844v-1264zM1049 1470h-1049v-1470h1049v1470z" />
    <glyph glyph-name=".null" horiz-adv-x="1024" 
 />
    <glyph glyph-name=".null" horiz-adv-x="1024" 
 />
    <glyph glyph-name="nonmarkingreturn" horiz-adv-x="682" 
 />
    <glyph glyph-name="CR" unicode="&#xd;" horiz-adv-x="0" 
 />
    <glyph glyph-name="space" unicode=" " horiz-adv-x="684" 
 />
    <glyph glyph-name="exclam" unicode="!" horiz-adv-x="684" 
d="M283 385l-56 694v383h230v-383l-56 -694h-118zM215 0v238h254v-238h-254z" />
    <glyph glyph-name="quotedbl" unicode="&#x22;" horiz-adv-x="985" 
d="M211 911v551h172v-551h-172zM602 911v551h172v-551h-172z" />
    <glyph glyph-name="numbersign" unicode="#" horiz-adv-x="1368" 
d="M397 561l41 299h-192v135h211l59 426h146l-60 -426h242l59 426h146l-60 -426h193v-135h-211l-41 -299h192v-135h-211l-59 -426h-145l59 426h-242l-59 -426h-146l60 426h-193v135h211zM784 561l41 299h-241l-41 -299h241z" />
    <glyph glyph-name="dollar" unicode="$" horiz-adv-x="1368" 
d="M723 621v-482q180 0 272 65.5t92 168.5q0 102 -85 162t-279 86zM625 834v448q-151 -8 -233.5 -64.5t-82.5 -158.5q0 -92 81.5 -150t234.5 -75zM625 139v500q-60 10 -106 19.5t-102.5 26t-98.5 36.5t-84.5 51t-69 68.5t-43.5 89.5t-17 114q0 72 21.5 133t59 105t87.5 77.5
t109 54t120 30.5t124 10v182h98v-182q253 -4 385 -111t145 -288h-204q-26 214 -326 227v-461q309 -51 439 -144t130 -282q0 -88 -32 -160.5t-86 -121.5t-127.5 -82.5t-154.5 -48.5t-169 -15v-182h-98v182q-149 0 -272 51t-200 156.5t-77 247.5h205q2 -35 11 -67.5t33 -71
t60 -67.5t98 -50.5t142 -26.5z" />
    <glyph glyph-name="percent" unicode="%" horiz-adv-x="2048" 
d="M532 -33l814 1487h172l-813 -1487h-173zM123 1055q0 182 92.5 290.5t273.5 108.5t274 -108.5t93 -290.5t-93 -291t-274 -109t-273.5 109t-92.5 291zM684 1055q0 128 -50.5 196t-144.5 68t-144 -67.5t-50 -196.5q0 -130 50 -197t144 -67t144.5 67t50.5 197zM1192 367
q0 182 93 290.5t274 108.5t273.5 -108.5t92.5 -290.5t-92.5 -291t-273.5 -109t-274 109t-93 291zM1753 367q0 129 -50 196.5t-144 67.5t-144.5 -68t-50.5 -196q0 -130 50.5 -197.5t144.5 -67.5t144 67.5t50 197.5z" />
    <glyph glyph-name="ampersand" unicode="&#x26;" horiz-adv-x="1669" 
d="M1118 285l-465 436q-160 -69 -220 -143.5t-60 -171.5q0 -48 18.5 -93t58 -86.5t115.5 -66.5t178 -25q260 0 375 150zM569 1143q0 -52 35.5 -103t118.5 -127q110 44 160.5 101.5t50.5 118.5q0 65 -50 111t-126 46q-92 0 -140.5 -43t-48.5 -104zM1430 0l-177 166
q-79 -99 -219.5 -151t-300.5 -52q-127 0 -228.5 27t-165.5 70t-106.5 101.5t-59.5 117t-17 120.5q0 143 92.5 255.5t288.5 181.5q-160 143 -160 297q0 150 99.5 239.5t279.5 89.5q167 0 268.5 -92t101.5 -225q0 -97 -67 -188t-215 -152l387 -359q31 51 46 102t21 126h193
q-11 -203 -121 -357l344 -317h-284z" />
    <glyph glyph-name="quotesingle" unicode="'" horiz-adv-x="684" 
d="M256 911v551h172v-551h-172z" />
    <glyph glyph-name="parenleft" unicode="(" horiz-adv-x="833" 
d="M772 -389h-154q-206 216 -307.5 444t-101.5 482t101.5 481.5t307.5 443.5h154q-152 -158 -255 -405.5t-103 -519.5q0 -274 102.5 -521.5t255.5 -404.5z" />
    <glyph glyph-name="parenright" unicode=")" horiz-adv-x="833" 
d="M215 -389h-154q153 164 256 409t103 517q0 271 -103 517t-256 408h154q206 -216 308 -443.5t102 -481.5t-102 -482t-308 -444z" />
    <glyph glyph-name="asterisk" unicode="*" horiz-adv-x="948" 
d="M356 1065l-262 102l58 136l247 -101v260h148v-260l254 101l53 -136l-264 -102l198 -199l-110 -92l-205 211l-201 -211l-104 92z" />
    <glyph glyph-name="plus" unicode="+" horiz-adv-x="1228" 
d="M528 604v432h172v-432h433v-172h-433v-432h-172v432h-432v172h432z" />
    <glyph glyph-name="comma" unicode="," horiz-adv-x="684" 
d="M215 0v238h254v-209q0 -84 -25 -153.5t-83.5 -121t-145.5 -67.5v100q63 19 91 65.5t32 147.5h-123z" />
    <glyph glyph-name="hyphen" unicode="-" horiz-adv-x="985" 
d="M133 463v213h719v-213h-719z" />
    <glyph glyph-name="period" unicode="." horiz-adv-x="684" 
d="M215 0v238h254v-238h-254z" />
    <glyph glyph-name="slash" unicode="/" horiz-adv-x="831" 
d="M0 -37l639 1536h192l-638 -1536h-193z" />
    <glyph glyph-name="zero" unicode="0" horiz-adv-x="1368" 
d="M1059 711q0 45 -2 86t-11 101t-24 109.5t-43.5 102.5t-67 89t-97 59.5t-130.5 23.5t-130.5 -23.5t-97 -59.5t-67 -89t-43.5 -102.5t-24 -109.5t-11 -101t-2 -86t2 -86t11 -101t24 -110t43.5 -103t67 -89t97 -59.5t130.5 -23.5t130.5 23.5t97 59.5t67 89t43.5 103t24 110
t11 101t2 86zM92 711q0 128 18 235t61 203t109.5 162t169 104.5t234.5 38.5t234.5 -38.5t169 -104.5t109.5 -162t61 -203t18 -235t-18 -235.5t-61 -203t-109.5 -162t-169 -105t-234.5 -38.5t-234.5 38.5t-169 105t-109.5 162t-61 203t-18 235.5z" />
    <glyph glyph-name="one" unicode="1" horiz-adv-x="909" 
d="M408 0v1034h-428v160h49q398 0 426 268h170v-1462h-217z" />
    <glyph glyph-name="two" unicode="2" horiz-adv-x="1368" 
d="M299 940h-205q0 236 140.5 375t422.5 139q135 0 239 -34.5t168.5 -96.5t97 -144.5t32.5 -181.5q0 -81 -24 -149t-66 -118t-96.5 -92.5t-118.5 -76.5t-129 -65t-130.5 -63.5t-121.5 -67t-103 -80t-73 -97.5h862v-188h-1126q5 77 25 145t50.5 121t72.5 100t87 82.5t99 69
t103.5 59.5t105.5 54q55 27 82.5 41.5t74 41t70.5 45t55 47.5t46.5 56.5t26.5 62.5t11 74q0 98 -43 163.5t-110 92.5t-154 27q-183 0 -274.5 -92t-96.5 -250z" />
    <glyph glyph-name="three" unicode="3" horiz-adv-x="1368" 
d="M524 662v178q14 -2 49 -2h89q137 0 207.5 54.5t70.5 154.5q0 52 -17.5 93t-47 67.5t-70 43.5t-84 24t-92.5 7q-312 0 -328 -299h-205q12 236 156 353.5t383 117.5q134 0 236.5 -32t163.5 -87.5t91.5 -124t30.5 -147.5q0 -104 -54 -184.5t-159 -108.5v-4
q124 -24 200.5 -116t76.5 -226q0 -95 -33.5 -176t-99.5 -144.5t-174.5 -100t-249.5 -36.5q-34 0 -57 0.5t-73 5t-87.5 12.5t-89.5 25t-90.5 40.5t-80 60.5t-67.5 84t-43 112.5t-17 143.5h205q4 -88 32.5 -150t81 -97t117.5 -50t150 -15q171 0 265 73t94 198q0 122 -98.5 189
t-260.5 67q-43 0 -79.5 -2t-41.5 -2z" />
    <glyph glyph-name="four" unicode="4" horiz-adv-x="1368" 
d="M821 0v346h-747v189l772 927h180v-944h250v-172h-250v-346h-205zM821 518v658h-4l-538 -658h542z" />
    <glyph glyph-name="five" unicode="5" horiz-adv-x="1368" 
d="M135 653l131 768h875v-188h-721l-70 -387q150 102 350 102q77 0 150 -13.5t146.5 -48t128 -86.5t88.5 -136.5t34 -190.5q0 -230 -161 -368t-437 -138q-245 0 -398 117t-161 297h211q32 -130 116.5 -186t248.5 -56q57 0 107 9.5t98.5 32.5t82.5 59t55 93.5t21 131.5
q0 155 -99.5 233t-258.5 78q-229 0 -340 -135z" />
    <glyph glyph-name="six" unicode="6" horiz-adv-x="1368" 
d="M1237 1085h-205q-17 95 -96 146t-188 51q-74 0 -132.5 -13t-113.5 -48t-92.5 -92.5t-62.5 -150t-32 -216.5h4q45 76 158.5 132t259.5 56q78 0 152 -14.5t147.5 -50t127.5 -89.5t88 -139.5t34 -193.5q0 -67 -19 -134t-62.5 -133t-107.5 -116.5t-161.5 -81.5t-216.5 -31
q-316 0 -462 182.5t-146 532.5q0 121 16 222.5t42.5 175.5t66 133t79.5 97.5t92.5 66.5t95 42.5t95 22.5t86 10t74.5 2q56 0 112.5 -9.5t119 -35.5t112 -65.5t87 -106.5t48.5 -152zM1069 459q0 139 -91 229t-267 90q-178 0 -269.5 -90t-91.5 -229q0 -140 91.5 -230
t269.5 -90q176 0 267 90.5t91 229.5z" />
    <glyph glyph-name="seven" unicode="7" horiz-adv-x="1214" 
d="M35 1221v200h1104v-180q-242 -307 -391 -599t-224 -642h-227q85 332 253.5 651.5t385.5 569.5h-901z" />
    <glyph glyph-name="eight" unicode="8" horiz-adv-x="1368" 
d="M1055 412q0 119 -91 195.5t-280 76.5t-280 -76.5t-91 -195.5t91 -196t280 -77t280 77t91 196zM991 1069q0 87 -78 150t-227 63t-228 -63.5t-79 -149.5q0 -87 78.5 -150t228.5 -63t227.5 62.5t77.5 150.5zM96 422q0 68 23 126.5t57 96.5t76 67.5t76.5 44t62.5 19.5v4
q-124 46 -176.5 118.5t-52.5 180.5q0 179 138 277t386 98t385 -98t137 -277q0 -105 -57 -181.5t-170 -117.5v-4q131 -24 211 -117t80 -237q0 -41 -7 -82t-25.5 -87t-47 -86t-75 -77.5t-106 -64t-143.5 -42.5t-184 -16t-184 16t-143.5 42.5t-106 64t-75 77.5t-47 86t-25.5 87
t-7 82z" />
    <glyph glyph-name="nine" unicode="9" horiz-adv-x="1368" 
d="M131 336h205q17 -95 96.5 -146t188.5 -51q75 0 133.5 13t112.5 48t91 92.5t62 149.5t33 217h-4q-45 -75 -159 -131.5t-259 -56.5q-78 0 -152 14.5t-147.5 50t-127.5 89.5t-88 139.5t-34 193.5q0 67 19 134t62.5 133t107.5 116.5t161.5 81.5t216.5 31q316 0 462 -182.5
t146 -532.5q0 -121 -16 -222.5t-42.5 -175.5t-66 -133t-79.5 -97.5t-92.5 -66.5t-95 -42.5t-95 -22.5t-86 -10t-74.5 -2q-56 0 -112.5 9.5t-119 35.5t-112 65.5t-87 106.5t-48.5 152zM1018 963q0 139 -91.5 229t-269.5 90q-176 0 -267 -90t-91 -229t91 -229.5t267 -90.5
q178 0 269.5 90t91.5 230z" />
    <glyph glyph-name="colon" unicode=":" horiz-adv-x="684" 
d="M215 0v238h254v-238h-254zM215 817v238h254v-238h-254z" />
    <glyph glyph-name="semicolon" unicode=";" horiz-adv-x="684" 
d="M215 817v238h254v-238h-254zM215 0v238h254v-209q0 -84 -25 -153.5t-83.5 -121t-145.5 -67.5v100q63 19 91 65.5t32 147.5h-123z" />
    <glyph glyph-name="semicolon" unicode="&#x37e;" horiz-adv-x="684" 
d="M215 817v238h254v-238h-254zM215 0v238h254v-209q0 -84 -25 -153.5t-83.5 -121t-145.5 -67.5v100q63 19 91 65.5t32 147.5h-123z" />
    <glyph glyph-name="less" unicode="&#x3c;" horiz-adv-x="1228" 
d="M96 444v148l1037 463v-172l-826 -365l826 -364v-172z" />
    <glyph glyph-name="equal" unicode="=" horiz-adv-x="1228" 
d="M96 219v172h1037v-172h-1037zM96 645v172h1037v-172h-1037z" />
    <glyph glyph-name="greater" unicode="&#x3e;" horiz-adv-x="1228" 
d="M922 518l-826 365v172l1037 -463v-148l-1037 -462v172z" />
    <glyph glyph-name="question" unicode="?" horiz-adv-x="1368" 
d="M500 0v238h254v-238h-254zM324 1008h-205q4 96 31 174.5t71 130.5t97.5 89.5t117.5 58t122.5 29.5t119.5 9q84 0 160 -17.5t141 -53.5t113 -87.5t75 -124.5t27 -159q0 -76 -26 -141t-67.5 -110.5t-92 -85.5t-100.5 -76t-91.5 -73t-67.5 -84.5t-26 -101.5h-193
q0 73 19 133t50.5 101t72 78t82 63.5t82 59t72 63.5t50.5 76.5t19 99.5q0 135 -85.5 201.5t-221.5 66.5q-152 0 -246 -84t-100 -235z" />
    <glyph glyph-name="at" unicode="@" horiz-adv-x="1638" 
d="M1087 1008l39 120h148l-156 -559q-2 -9 -8.5 -31.5t-10 -38.5t-3.5 -30q0 -47 47 -47q69 0 136 58.5t110 157t43 204.5q0 122 -46 224t-125 169t-184.5 104t-224.5 37q-138 0 -257.5 -51.5t-201 -139t-128 -207t-46.5 -253.5q0 -181 84.5 -327.5t233.5 -229t333 -82.5
q138 0 264.5 60.5t213.5 164.5h149q-103 -165 -270 -256.5t-365 -91.5q-131 0 -251.5 38t-217.5 108.5t-169.5 164.5t-112 212.5t-39.5 246.5q0 211 104.5 387.5t283.5 277.5t392 101q192 0 355 -78.5t261.5 -224.5t98.5 -328q0 -111 -35.5 -209.5t-91.5 -166.5t-124 -118.5
t-134 -74t-121 -23.5q-52 0 -86.5 31t-38.5 90h-4q-47 -52 -110 -86.5t-128 -34.5q-129 0 -216 98t-87 236q0 137 56 262t163 207t240 82q160 0 237 -153zM1026 815q0 80 -49.5 139.5t-118.5 59.5q-82 0 -151.5 -62.5t-106.5 -150.5t-37 -172q0 -92 48 -148.5t124 -56.5
q61 0 117 39t93 97.5t59 126.5t22 128z" />
    <glyph glyph-name="A" unicode="A" horiz-adv-x="1554" 
d="M1315 0l-187 426h-716l-187 -426h-233l661 1462h248l662 -1462h-248zM1049 614l-281 648l-274 -648h555z" />
    <glyph glyph-name="B" unicode="B" horiz-adv-x="1593" 
d="M375 188h588q87 0 149 21t94.5 57.5t47 78t14.5 91.5q0 46 -14.5 85.5t-45.5 74t-89.5 54.5t-137.5 20h-606v-482zM375 858h592q117 0 177 56.5t60 148.5q0 103 -59.5 157t-190.5 54h-579v-416zM158 0v1462h813q228 0 339 -95t111 -271q0 -234 -213 -310v-4
q277 -64 277 -360q0 -80 -28.5 -153.5t-83.5 -134.5t-146 -97.5t-205 -36.5h-864z" />
    <glyph glyph-name="C" unicode="C" horiz-adv-x="1669" 
d="M1577 936h-217q-13 79 -49.5 145.5t-97 118.5t-151 81.5t-202.5 29.5q-265 0 -415 -152t-150 -446q0 -86 18.5 -164.5t60.5 -152t104.5 -127t157.5 -85.5t212 -32q200 0 333 99.5t179 307.5h217q-12 -122 -70 -230t-151 -189.5t-225.5 -129t-284.5 -47.5q-115 0 -222 25
t-207.5 84t-174.5 146t-119 220t-45 297q0 161 50 299.5t144.5 242t241.5 163t330 59.5q94 0 186 -16t187.5 -57t170 -103t126.5 -161.5t63 -225.5z" />
    <glyph glyph-name="D" unicode="D" horiz-adv-x="1630" 
d="M375 188h526q420 0 420 560q0 83 -11.5 153.5t-42.5 141.5t-81 120t-133.5 80t-192.5 31h-485v-1086zM158 0v1462h741q161 0 284 -51t200 -145.5t116 -223.5t39 -290q0 -125 -21.5 -235t-70 -206t-120.5 -164t-178 -107.5t-237 -39.5h-753z" />
    <glyph glyph-name="E" unicode="E" horiz-adv-x="1441" 
d="M158 0v1462h1175v-188h-958v-424h930v-188h-930v-474h979v-188h-1196z" />
    <glyph glyph-name="F" unicode="F" horiz-adv-x="1327" 
d="M158 0v1462h1132v-188h-915v-432h872v-189h-872v-653h-217z" />
    <glyph glyph-name="G" unicode="G" horiz-adv-x="1781" 
d="M958 600v188h672v-788h-155l-37 209q-42 -49 -86.5 -87t-112 -77t-160 -60.5t-202.5 -21.5q-169 0 -304.5 47t-221.5 122t-143 174.5t-80.5 199t-23.5 201.5q0 164 43.5 298.5t117 225t172.5 152t207.5 89t225.5 27.5q96 0 183 -13t178.5 -47.5t162.5 -88.5t128 -143.5
t84 -205.5h-230q-52 157 -170.5 233.5t-324.5 76.5q-140 0 -249.5 -47.5t-176 -129.5t-100 -185.5t-33.5 -223.5q0 -121 30 -218.5t82 -162.5t125 -109t155.5 -63.5t176.5 -19.5q234 0 381.5 124.5t165.5 323.5h-480z" />
    <glyph glyph-name="H" unicode="H" horiz-adv-x="1744" 
d="M1370 0v688h-995v-688h-217v1462h217v-585h995v585h217v-1462h-217z" />
    <glyph glyph-name="I" unicode="I" horiz-adv-x="569" 
d="M176 0v1462h217v-1462h-217z" />
    <glyph glyph-name="J" unicode="J" horiz-adv-x="1175" 
d="M47 498h205v-70q0 -145 75 -219t214 -74q133 0 201.5 74.5t68.5 216.5v1036h217v-991q0 -508 -483 -508q-79 0 -145 12.5t-114 32.5t-86.5 52t-63 63t-42 74.5t-26.5 77t-14 80t-6 74.5t-1 69z" />
    <glyph glyph-name="K" unicode="K" horiz-adv-x="1554" 
d="M1247 0l-598 713l-266 -236v-477h-217v1462h217v-735l817 735h307l-694 -606l733 -856h-299z" />
    <glyph glyph-name="L" unicode="L" horiz-adv-x="1290" 
d="M166 0v1462h217v-1274h889v-188h-1106z" />
    <glyph glyph-name="M" unicode="M" horiz-adv-x="2086" 
d="M1042 250l586 1212h301v-1462h-217v1212h-4l-569 -1212h-193l-567 1188h-4v-1188h-217v1462h305z" />
    <glyph glyph-name="N" unicode="N" horiz-adv-x="1744" 
d="M1327 0l-940 1163h-4v-1163h-217v1462h252l940 -1163h4v1163h217v-1462h-252z" />
    <glyph glyph-name="O" unicode="O" horiz-adv-x="1781" 
d="M1487 731q0 142 -46 253.5t-127 182t-188.5 107.5t-234.5 37t-234.5 -37t-188.5 -107.5t-127 -182t-46 -253.5q0 -141 46 -253t127 -182.5t188.5 -107t234.5 -36.5t234.5 36.5t188.5 107t127 182.5t46 253zM78 731q0 116 27.5 224t89.5 208t154 174t231.5 118t310.5 44
t310.5 -44t231.5 -118t154 -174t89.5 -208t27.5 -224t-27.5 -224t-89.5 -208t-154 -174t-231.5 -118t-310.5 -44t-310.5 44t-231.5 118t-154 174t-89.5 208t-27.5 224z" />
    <glyph glyph-name="P" unicode="P" horiz-adv-x="1478" 
d="M383 774h522q152 0 219.5 72t67.5 192q0 108 -63.5 172t-184.5 64h-561v-500zM166 0v1462h754q241 0 365 -107.5t124 -312.5q0 -209 -124.5 -332.5t-350.5 -123.5h-551v-586h-217z" />
    <glyph glyph-name="Q" unicode="Q" horiz-adv-x="1781" 
d="M1120 186l-147 125l112 138l205 -173q197 154 197 455q0 142 -46 253.5t-127 182t-188.5 107.5t-234.5 37t-234.5 -37t-188.5 -107.5t-127 -182t-46 -253.5q0 -141 46 -253t127 -182.5t188.5 -107t234.5 -36.5q128 0 229 34zM1526 -158l-236 201q-171 -80 -399 -80
q-171 0 -310.5 44t-231.5 118t-154 174t-89.5 208t-27.5 224t27.5 224t89.5 208t154 174t231.5 118t310.5 44t310.5 -44t231.5 -118t154 -174t89.5 -208t27.5 -224q0 -173 -63 -327.5t-191 -260.5l190 -159z" />
    <glyph glyph-name="R" unicode="R" horiz-adv-x="1554" 
d="M383 809h606q76 0 130.5 21t82 56.5t39.5 73t12 80.5q0 108 -65.5 171t-192.5 63h-612v-465zM166 0v1462h905q105 0 185 -34t125 -91.5t67 -124t22 -139.5q0 -136 -62.5 -229t-182.5 -131v-4q96 -13 151.5 -96.5t61.5 -215.5q8 -204 21 -281t48 -116h-229q-32 37 -42 231
q-2 31 -3 48q-12 191 -78 266.5t-205 75.5h-567v-621h-217z" />
    <glyph glyph-name="S" unicode="S" horiz-adv-x="1366" 
d="M33 481h217q2 -76 30.5 -134.5t73.5 -94.5t107.5 -59t125.5 -32t134 -9q176 0 285.5 65.5t109.5 181.5q0 95 -67.5 143.5t-204.5 73.5l-332 56q-62 10 -113 23t-114 42t-105.5 68t-72 103.5t-29.5 146.5q0 204 154.5 324t431.5 120q93 0 176 -13.5t163 -47t139.5 -84.5
t98 -131.5t45.5 -182.5h-217q-38 271 -434 271q-62 0 -120 -14t-108.5 -41.5t-81 -75t-30.5 -109.5q0 -151 240 -192l358 -62q139 -28 209 -57q230 -98 231 -318q0 -107 -37.5 -191.5t-98 -137.5t-144.5 -87.5t-169 -48.5t-179 -14q-104 0 -197 15t-181.5 52.5t-152.5 94.5
t-102.5 148.5t-38.5 207.5z" />
    <glyph glyph-name="T" unicode="T" horiz-adv-x="1327" 
d="M555 0v1274h-553v188h1323v-188h-553v-1274h-217z" />
    <glyph glyph-name="U" unicode="U" horiz-adv-x="1630" 
d="M154 553v909h217v-936q0 -191 117 -282.5t327 -91.5t327.5 91.5t117.5 282.5v936h217v-909q0 -590 -662 -590q-661 0 -661 590z" />
    <glyph glyph-name="V" unicode="V" horiz-adv-x="1478" 
d="M750 225l518 1237h233l-641 -1462h-231l-652 1462h246z" />
    <glyph glyph-name="W" unicode="W" horiz-adv-x="2238" 
d="M1520 0l-406 1212h-4l-403 -1212h-240l-481 1462h235l375 -1188h4l391 1188h258l402 -1188h4l373 1188h225l-496 -1462h-237z" />
    <glyph glyph-name="X" unicode="X" horiz-adv-x="1441" 
d="M725 899l430 563h268l-563 -712l580 -750h-285l-442 592l-441 -592h-270l578 750l-549 712h276z" />
    <glyph glyph-name="Y" unicode="Y" horiz-adv-x="1478" 
d="M741 797l486 665h264l-645 -850v-612h-217v602l-641 860h276z" />
    <glyph glyph-name="Z" unicode="Z" horiz-adv-x="1402" 
d="M29 0v195l1044 1079h-971v188h1256v-188l-1049 -1086h1065v-188h-1345z" />
    <glyph glyph-name="bracketleft" unicode="[" horiz-adv-x="833" 
d="M240 -389v1851h469v-159h-277v-1532h277v-160h-469z" />
    <glyph glyph-name="backslash" unicode="\" horiz-adv-x="831" 
d="M639 -37l-639 1536h193l638 -1536h-192z" />
    <glyph glyph-name="bracketright" unicode="]" horiz-adv-x="833" 
d="M401 -229v1532h-276v159h469v-1851h-469v160h276z" />
    <glyph glyph-name="asciicircum" unicode="^" horiz-adv-x="1228" 
d="M940 573l-326 676l-325 -676h-172l418 848h155l422 -848h-172z" />
    <glyph glyph-name="underscore" unicode="_" horiz-adv-x="1024" 
d="M0 -256v102h1024v-102h-1024z" />
    <glyph glyph-name="grave" unicode="`" 
d="M186 1229l-268 287h256l176 -287h-164z" />
    <glyph glyph-name="a" unicode="a" horiz-adv-x="1327" 
d="M956 424v137q-23 -25 -66.5 -38.5t-133.5 -24.5l-232 -29q-129 -18 -186 -56t-57 -120q0 -75 68.5 -122.5t180.5 -47.5q177 0 301.5 84.5t124.5 216.5zM315 737h-192q20 196 152 284.5t380 88.5q72 0 136 -7t132 -28t116 -53.5t79 -88t31 -128.5v-578q0 -92 92 -92
q41 0 72 8v-143q-73 -12 -160 -12q-85 0 -129.5 31.5t-54.5 117.5q-61 -80 -190.5 -127t-266.5 -47q-102 0 -181 20.5t-126 53t-77 77t-41 86.5t-11 87q0 102 43.5 167.5t144.5 106t273 60.5l233 24q96 8 141 35t45 94q0 53 -24 89t-69.5 54.5t-96.5 25.5t-119 7
q-324 0 -332 -213z" />
    <glyph glyph-name="b" unicode="b" horiz-adv-x="1402" 
d="M1108 530q0 185 -106 290.5t-287 105.5q-180 0 -289 -106.5t-109 -289.5q0 -79 23.5 -148.5t70 -125.5t125 -88.5t179.5 -32.5q100 0 177.5 32.5t123.5 88.5t69 125.5t23 148.5zM125 0v1475h205v-564h4q57 92 168 139.5t239 47.5q121 0 227 -38.5t185.5 -110
t125.5 -179.5t46 -240q0 -175 -79.5 -305.5t-210.5 -196t-294 -65.5q-123 0 -236 46t-171 128h-4v-137h-205z" />
    <glyph glyph-name="c" unicode="c" horiz-adv-x="1290" 
d="M1004 393h217q-63 -232 -201 -331t-358 -99q-124 0 -224 32.5t-166 86.5t-110.5 128t-64 153.5t-19.5 166.5q0 120 37.5 224.5t108 184t183 125.5t252.5 46q146 0 262.5 -42.5t195.5 -132.5t100 -220h-218q-19 106 -102 164.5t-223 58.5q-127 0 -214 -53.5t-126 -141.5
t-39 -206q0 -181 95.5 -291.5t283.5 -110.5q139 0 217 61t113 197z" />
    <glyph glyph-name="d" unicode="d" horiz-adv-x="1402" 
d="M295 530q0 -79 23 -148.5t69 -125.5t123.5 -88.5t177.5 -32.5q101 0 179 32.5t124.5 88.5t70 125.5t23.5 148.5q0 183 -108.5 289.5t-288.5 106.5q-181 0 -287 -105.5t-106 -290.5zM1073 0v137h-4q-58 -82 -171 -128t-236 -46q-163 0 -294 65.5t-210.5 196t-79.5 305.5
q0 132 46 240t125.5 179.5t185.5 110t227 38.5q124 0 236 -45.5t171 -128.5h4v551h205v-1475h-205z" />
    <glyph glyph-name="e" unicode="e" horiz-adv-x="1366" 
d="M301 635h764q-24 144 -125.5 223.5t-249.5 79.5q-145 0 -255 -82t-134 -221zM1282 475h-987q6 -81 42.5 -147t93 -107t123 -63.5t136.5 -22.5q48 0 94 8.5t95 28.5t90 59.5t67 94.5h217q-50 -123 -142.5 -207t-195.5 -120t-215 -36q-152 0 -272.5 46t-196 125.5
t-114.5 182t-39 220.5t39 220.5t114.5 181.5t196 125t272.5 46q88 0 169.5 -20t157.5 -66.5t132 -115t89.5 -173t33.5 -233.5v-27z" />
    <glyph glyph-name="f" unicode="f" horiz-adv-x="681" 
d="M188 1073v160q0 143 83.5 204.5t246.5 61.5q28 0 56.5 -2.5t67 -7t54.5 -6.5v-160q-78 4 -114 4q-106 0 -147.5 -20.5t-41.5 -83.5v-150h303v-160h-303v-913h-205v913h-219v160h219z" />
    <glyph glyph-name="g" unicode="g" horiz-adv-x="1402" 
d="M1085 541q0 170 -106.5 277.5t-288.5 107.5q-185 0 -290 -107.5t-105 -277.5t105 -274.5t290 -104.5q183 0 289 105t106 274zM1085 915v158h205v-983q0 -288 -146.5 -414.5t-477.5 -126.5q-79 0 -142 6t-135 26.5t-122.5 55.5t-90 97.5t-51.5 148.5h205
q28 -99 113 -136.5t243 -37.5q204 0 301.5 90.5t97.5 233.5v155h-4q-139 -198 -415 -198q-89 0 -171.5 19t-159 62t-133 105.5t-90.5 157t-34 209.5q0 116 33.5 210.5t90 157.5t132.5 106t158.5 62t171.5 19q138 0 248.5 -46.5t168.5 -136.5h4z" />
    <glyph glyph-name="h" unicode="h" horiz-adv-x="1329" 
d="M125 0v1475h205v-564h4q133 199 420 199q205 0 327.5 -93.5t122.5 -285.5v-731h-205v690q0 248 -317 248q-148 0 -250 -84.5t-102 -235.5v-618h-205z" />
    <glyph glyph-name="i" unicode="i" 
d="M125 1249v226h205v-226h-205zM125 0v1073h205v-1073h-205z" />
    <glyph glyph-name="j" unicode="j" 
d="M125 1249v226h205v-226h-205zM-106 -410v172q28 -4 38 -4h37q84 0 120 30.5t36 98.5v1186h205v-1139q0 -190 -74 -269t-266 -79q-26 0 -96 4z" />
    <glyph glyph-name="k" unicode="k" horiz-adv-x="1214" 
d="M346 614l545 459h311l-504 -403l543 -670h-278l-428 537l-189 -150v-387h-205v1475h205v-861z" />
    <glyph glyph-name="l" unicode="l" 
d="M125 0v1475h205v-1475h-205z" />
    <glyph glyph-name="m" unicode="m" horiz-adv-x="2084" 
d="M1755 0v682q0 71 -21 122.5t-58.5 79.5t-81.5 41t-97 13q-97 0 -174.5 -29.5t-127.5 -96.5t-50 -163v-649h-205v682q0 71 -21 122.5t-58.5 79.5t-81.5 41t-97 13q-148 0 -250 -84.5t-102 -235.5v-618h-205v1073h205v-162h4q133 199 420 199q110 0 205.5 -49t158.5 -150
q77 97 182 148t252 51q27 0 57.5 -3.5t71 -14.5t78 -28t75 -46.5t65 -67.5t44.5 -94.5t17 -124.5v-731h-205z" />
    <glyph glyph-name="n" unicode="n" horiz-adv-x="1329" 
d="M125 0v1073h205v-162h4q133 199 420 199q205 0 327.5 -93.5t122.5 -285.5v-731h-205v690q0 248 -317 248q-148 0 -250 -84.5t-102 -235.5v-618h-205z" />
    <glyph glyph-name="o" unicode="o" horiz-adv-x="1400" 
d="M1106 537q0 77 -22.5 145.5t-68.5 127.5t-127 93.5t-188 34.5q-86 0 -156 -23t-115.5 -61.5t-76 -91t-44 -108.5t-13.5 -117q0 -77 22.5 -146t68 -127.5t126.5 -93.5t188 -35t188 35t127 93.5t68.5 127.5t22.5 146zM78 537q0 118 39 220.5t114.5 181.5t196 125t272.5 46
t273 -46t196 -125t114.5 -181.5t39.5 -220.5t-39.5 -220.5t-114.5 -182t-196 -125.5t-273 -46t-272.5 46t-196 125.5t-114.5 182t-39 220.5z" />
    <glyph glyph-name="p" unicode="p" horiz-adv-x="1402" 
d="M1108 530q0 63 -14 120t-45 108t-76 88t-111.5 58.5t-146.5 21.5q-81 0 -148 -21.5t-113 -58.5t-77 -88t-45.5 -108t-14.5 -120q0 -183 109 -289t289 -106q181 0 287 105t106 290zM125 -414v1487h205v-149h4q58 82 171 128t236 46q121 0 227 -38.5t185.5 -110
t125.5 -179.5t46 -240q0 -175 -79.5 -305.5t-210.5 -196t-294 -65.5q-125 0 -236.5 45.5t-170.5 128.5h-4v-551h-205z" />
    <glyph glyph-name="q" unicode="q" horiz-adv-x="1402" 
d="M295 530q0 -185 106 -290t287 -105q180 0 288.5 106t108.5 289q0 79 -23.5 148.5t-70 126t-124.5 89t-179 32.5q-80 0 -146.5 -21.5t-111.5 -58.5t-76 -88t-45 -108t-14 -120zM1073 924v149h205v-1487h-205v564h-4q-57 -92 -168.5 -139.5t-238.5 -47.5q-163 0 -294 65.5
t-210.5 196t-79.5 305.5q0 132 46 240t125.5 179.5t185.5 110t227 38.5q123 0 236 -46t171 -128h4z" />
    <glyph glyph-name="r" unicode="r" horiz-adv-x="833" 
d="M125 0v1073h205v-196h4q132 233 368 233q70 0 117 -12v-221q-73 20 -145 20q-156 0 -250 -91.5t-94 -260.5v-545h-205z" />
    <glyph glyph-name="s" unicode="s" horiz-adv-x="1214" 
d="M63 338h205q0 -39 17 -74.5t53.5 -68.5t105.5 -52.5t162 -19.5q94 0 161 15t102 41t50 53.5t15 58.5q0 60 -42.5 93.5t-160.5 49.5l-338 45q-126 19 -208.5 92.5t-82.5 192.5q0 163 130.5 254.5t359.5 91.5q252 0 381.5 -97.5t142.5 -262.5h-205q-5 87 -87 143.5
t-234 56.5q-72 0 -132.5 -14t-105.5 -52.5t-45 -97.5q0 -58 37.5 -89t140.5 -44l291 -39q198 -29 286.5 -98.5t88.5 -185.5q0 -183 -143 -275t-396 -92q-521 0 -549 375z" />
    <glyph glyph-name="t" unicode="t" horiz-adv-x="757" 
d="M215 1073v330h205v-330h307v-160h-307v-661q0 -63 42 -90t124 -27q53 0 141 15v-173q-72 -14 -229 -14q-283 0 -283 254v696h-221v160h221z" />
    <glyph glyph-name="u" unicode="u" horiz-adv-x="1329" 
d="M1204 1073v-1073h-205v162h-4q-133 -199 -420 -199q-205 0 -327.5 93.5t-122.5 285.5v731h205v-690q0 -248 317 -248q148 0 250 84.5t102 235.5v618h205z" />
    <glyph glyph-name="v" unicode="v" horiz-adv-x="1175" 
d="M594 225l362 848h230l-484 -1073h-225l-487 1073h235z" />
    <glyph glyph-name="w" unicode="w" horiz-adv-x="1857" 
d="M1315 254l307 819h217l-424 -1073h-223l-268 819h-4l-269 -819h-217l-416 1073h228l297 -819h4l266 819h225l273 -819h4z" />
    <glyph glyph-name="x" unicode="x" horiz-adv-x="1214" 
d="M608 705l312 368h272l-451 -518l484 -555h-287l-338 408l-340 -408h-270l477 555l-442 518h278z" />
    <glyph glyph-name="y" unicode="y" horiz-adv-x="1175" 
d="M594 225l362 848h230l-561 -1257q-39 -87 -74.5 -138.5t-80.5 -80.5t-93.5 -38.5t-124.5 -9.5q-74 0 -156 9v172q13 -1 52 -5t67 -4q93 0 133 30t90 134l47 99l-495 1089h235z" />
    <glyph glyph-name="z" unicode="z" horiz-adv-x="1214" 
d="M55 0v168l791 733h-752v172h1034v-160l-800 -741h831v-172h-1104z" />
    <glyph glyph-name="braceleft" unicode="{" horiz-adv-x="681" 
d="M96 469v135q69 5 119.5 72t50.5 170v348q0 122 68.5 195t152.5 73h148v-123h-98q-99 0 -99 -176v-350q0 -67 -20.5 -120.5t-52 -84t-59 -47.5t-50.5 -22v-4q23 -5 50.5 -22t59 -48t52 -84.5t20.5 -120.5v-350q0 -176 99 -176h98v-123h-148q-84 0 -152.5 73t-68.5 195v348
q0 103 -50.5 170t-119.5 72z" />
    <glyph glyph-name="bar" unicode="|" 
d="M141 -37v1536h172v-1536h-172z" />
    <glyph glyph-name="braceright" unicode="}" horiz-adv-x="681" 
d="M47 -389v123h98q99 0 99 176v350q0 67 20.5 120.5t52 84.5t59 48t50.5 22v4q-23 5 -50.5 22t-59 47.5t-52 84t-20.5 120.5v350q0 176 -99 176h-98v123h148q84 0 152.5 -73t68.5 -195v-348q0 -103 50.5 -170t119.5 -72v-135q-69 -5 -119.5 -72t-50.5 -170v-348
q0 -122 -68.5 -195t-152.5 -73h-148z" />
    <glyph glyph-name="asciitilde" unicode="~" horiz-adv-x="1228" 
d="M215 360l-74 129q96 177 256 177q94 0 238 -74q55 -27 79.5 -38.5t60.5 -23.5t59 -12q90 0 180 158l73 -129q-95 -176 -256 -176q-95 0 -237 73q-55 27 -79.5 38.5t-60.5 23.5t-59 12q-90 0 -180 -158z" />
    <glyph glyph-name="uni00A0" unicode="&#xa0;" horiz-adv-x="684" 
 />
    <glyph glyph-name="exclamdown" unicode="&#xa1;" horiz-adv-x="684" 
d="M227 -389v383l56 694h118l56 -694v-383h-230zM215 836v237h254v-237h-254z" />
    <glyph glyph-name="cent" unicode="&#xa2;" horiz-adv-x="1368" 
d="M637 -223v190q-137 8 -241.5 59.5t-164.5 132t-89 174t-29 197.5q0 239 135.5 398.5t388.5 179.5v188h111v-188q205 -12 338.5 -111t164.5 -282h-217q-36 206 -286 221v-797q121 7 190 68.5t100 185.5h217q-58 -218 -184 -318t-323 -108v-190h-111zM637 139v797
q-153 -20 -230 -126.5t-77 -272.5q0 -165 77 -271.5t230 -126.5z" />
    <glyph glyph-name="sterling" unicode="&#xa3;" horiz-adv-x="1368" 
d="M86 637v123h129q-65 100 -65 244q0 84 34.5 162.5t102 143.5t180.5 104.5t256 39.5q268 0 413.5 -125t145.5 -348h-217q-8 135 -96 218t-260 83q-158 0 -250 -84t-92 -225q0 -44 15.5 -103t49.5 -110h432v-123h-385q37 -76 37 -154q0 -77 -47 -162.5t-127 -132.5l4 -4
q93 37 195 37q72 0 219 -32.5t178 -32.5q136 0 287 104l57 -180q-156 -113 -336 -113q-71 0 -217 41t-260 41q-97 0 -173 -22.5t-116 -59.5l-94 170q114 65 169.5 144t55.5 186q0 89 -49 170h-176z" />
    <glyph glyph-name="currency" unicode="&#xa4;" horiz-adv-x="1368" 
d="M168 291l113 112q-105 140 -105 308q0 177 105 307l-113 112l98 99l113 -113q137 103 305 103t305 -103l113 113l98 -99l-113 -114q105 -134 105 -305t-105 -305l113 -115l-98 -98l-115 114q-128 -104 -303 -104q-173 0 -305 104l-113 -114zM1020 711q0 143 -98.5 245.5
t-237.5 102.5t-237.5 -102.5t-98.5 -245.5t98.5 -246t237.5 -103t237.5 103t98.5 246z" />
    <glyph glyph-name="yen" unicode="&#xa5;" horiz-adv-x="1368" 
d="M688 756l397 665h265l-459 -702h291v-123h-371l-18 -29v-149h389v-123h-389v-295h-218v295h-389v123h389v149l-18 29h-371v123h291l-454 702h276z" />
    <glyph glyph-name="brokenbar" unicode="&#xa6;" 
d="M141 926v573h172v-573h-172zM141 -37v574h172v-574h-172z" />
    <glyph glyph-name="section" unicode="&#xa7;" horiz-adv-x="1368" 
d="M543 442l403 -163q66 20 103.5 67.5t37.5 108.5q0 66 -45.5 113.5t-150.5 90.5l-475 193q-63 -24 -99 -71.5t-36 -112.5q0 -64 54 -113t208 -113zM178 10h205q20 -227 311 -227q132 0 201.5 44.5t69.5 125.5q0 61 -41 102t-144 82l-360 146q-104 43 -170 84t-101.5 87
t-48 92t-12.5 111q0 84 57 163t160 114q-100 71 -100 215q0 162 134 256t337 94q132 0 236.5 -41t169.5 -128.5t65 -209.5h-205q-12 207 -276 207q-256 0 -256 -164q0 -95 120 -145l482 -195q57 -24 101.5 -52t84 -66.5t61 -90t21.5 -112.5q0 -94 -51 -174.5t-164 -128.5
q104 -68 104 -226q0 -159 -125.5 -260.5t-345.5 -101.5q-122 0 -216.5 26.5t-150.5 67.5t-91.5 96t-48.5 105.5t-13 103.5z" />
    <glyph glyph-name="dieresis" unicode="&#xa8;" 
d="M371 1266v213h204v-213h-204zM-121 1266v213h205v-213h-205z" />
    <glyph glyph-name="copyright" unicode="&#xa9;" horiz-adv-x="1638" 
d="M1047 598h172q-26 -151 -129 -238.5t-242 -87.5q-192 0 -312 132.5t-120 330.5q0 202 116.5 332.5t309.5 130.5q145 0 247.5 -83.5t122.5 -233.5h-165q-17 72 -73.5 114.5t-135.5 42.5q-119 0 -184.5 -84t-65.5 -219q0 -131 70.5 -217t187.5 -86q80 0 135.5 44t65.5 122z
M1415 731q0 170 -80.5 310.5t-217 219t-298.5 78.5q-124 0 -234 -46.5t-189.5 -126.5t-126 -193.5t-46.5 -241.5q0 -172 79 -311.5t215.5 -218t301.5 -78.5q122 0 231.5 46t190 126t127.5 193.5t47 242.5zM51 731q0 168 63 313t168.5 244t245 155t291.5 56q151 0 290 -56
t245 -155t169.5 -244.5t63.5 -312.5t-63.5 -312.5t-169.5 -244.5t-245 -155t-290 -56q-152 0 -291.5 56t-245 155t-168.5 244t-63 313z" />
    <glyph glyph-name="ordfeminine" unicode="&#xaa;" horiz-adv-x="862" 
d="M598 1065v57h-4q-13 -21 -113 -37q-14 -3 -22 -4l-131 -18q-73 -12 -108.5 -30.5t-35.5 -57.5q0 -41 42.5 -65.5t109.5 -24.5q107 0 184.5 50t77.5 130zM203 1227h-135q12 123 98 175t252 52q61 0 114 -8t103.5 -26.5t80 -55t29.5 -88.5v-332q0 -49 60 -49q21 0 37 4v-92
q-24 -1 -61 -5.5t-44 -4.5q-54 0 -84 19.5t-37 66.5q-40 -52 -123 -80.5t-174 -28.5q-67 0 -118 12.5t-81.5 31.5t-49.5 46.5t-26 54t-7 56.5q0 88 66.5 136t224.5 65l155 14q60 5 87.5 18.5t27.5 44.5q0 52 -49 71t-135 19q-203 0 -211 -116z" />
    <glyph glyph-name="guillemotleft" unicode="&#xab;" horiz-adv-x="1138" 
d="M158 463v213l368 272v-207l-243 -172l243 -172v-207zM612 463v213l369 272v-207l-244 -172l244 -172v-207z" />
    <glyph glyph-name="logicalnot" unicode="&#xac;" horiz-adv-x="1228" 
d="M961 219v426h-865v172h1037v-598h-172z" />
    <glyph glyph-name="uni00AD" unicode="&#xad;" horiz-adv-x="985" 
d="M133 463v213h719v-213h-719z" />
    <glyph glyph-name="registered" unicode="&#xae;" horiz-adv-x="1638" 
d="M659 795h158q49 0 80.5 4t63.5 16.5t47.5 40.5t15.5 72q0 119 -195 119h-170v-252zM1026 293l-229 379h-138v-379h-147v876h342q168 0 249 -59.5t81 -191.5q0 -212 -238 -240l252 -385h-172zM1415 731q0 170 -80.5 310.5t-217 219t-298.5 78.5q-124 0 -234 -46.5
t-189.5 -126.5t-126 -193.5t-46.5 -241.5q0 -172 79 -311.5t215.5 -218t301.5 -78.5q122 0 231.5 46t190 126t127.5 193.5t47 242.5zM51 731q0 168 63 313t168.5 244t245 155t291.5 56q151 0 290 -56t245 -155t169.5 -244.5t63.5 -312.5t-63.5 -312.5t-169.5 -244.5
t-245 -155t-290 -56q-152 0 -291.5 56t-245 155t-168.5 244t-63 313z" />
    <glyph glyph-name="macron" unicode="&#xaf;" 
d="M-174 1292v160h803v-160h-803z" />
    <glyph glyph-name="degree" unicode="&#xb0;" horiz-adv-x="819" 
d="M592 1161q0 67 -57 124.5t-125 57.5t-125.5 -57.5t-57.5 -124.5t57.5 -124.5t125.5 -57.5t125 57.5t57 124.5zM117 1161q0 123 85 208t208 85t207.5 -85t84.5 -208t-84.5 -208t-207.5 -85t-208 85t-85 208z" />
    <glyph glyph-name="plusminus" unicode="&#xb1;" horiz-adv-x="1228" 
d="M96 0v172h1037v-172h-1037zM528 725v311h172v-311h433v-172h-433v-311h-172v311h-432v172h432z" />
    <glyph glyph-name="twosuperior" unicode="&#xb2;" horiz-adv-x="888" 
d="M238 1147h-160q0 142 90.5 224.5t273.5 82.5q172 0 261.5 -75t89.5 -197q0 -68 -29 -122.5t-73.5 -89t-102 -67t-110.5 -55t-104 -53t-77 -62.5h496v-147h-744q3 81 36.5 145t84 105t111 74t120.5 60.5t109.5 56t80 68t30.5 89.5q0 65 -53 100t-128 35q-97 0 -147 -48.5
t-55 -123.5z" />
    <glyph glyph-name="threesuperior" unicode="&#xb3;" horiz-adv-x="888" 
d="M352 969v127q8 -2 31 -2h57q77 0 114.5 31.5t37.5 84.5q0 109 -172 109q-99 0 -140.5 -35.5t-46.5 -112.5h-159q7 143 100.5 213t249.5 70q168 0 254 -67.5t86 -167.5q0 -64 -34.5 -111.5t-104.5 -63.5v-4q77 -12 128.5 -67t51.5 -123q0 -35 -6.5 -69t-29.5 -75.5
t-60.5 -72t-106.5 -51.5t-160 -21q-393 0 -393 291h160q6 -93 58 -124.5t163 -31.5q101 0 152 34t51 97q0 67 -55 105.5t-148 38.5q-28 0 -51.5 -1t-26.5 -1z" />
    <glyph glyph-name="acute" unicode="&#xb4;" 
d="M104 1229l177 287h256l-269 -287h-164z" />
    <glyph glyph-name="mu" unicode="&#xb5;" horiz-adv-x="1329" 
d="M125 -414v1487h205v-690q0 -248 317 -248q148 0 250 84.5t102 235.5v618h205v-1073h-205v162h-4q-70 -105 -179 -152t-230 -47q-153 0 -256 84v-461h-205z" />
    <glyph glyph-name="paragraph" unicode="&#xb6;" horiz-adv-x="1228" 
d="M897 -352v1679h-227v-1679h-172v1057q-195 0 -317 105t-122 267q0 198 127 291.5t351 93.5h532v-1814h-172z" />
    <glyph glyph-name="periodcentered" unicode="&#xb7;" horiz-adv-x="684" 
d="M190 631q0 63 44.5 107t107.5 44t107.5 -44t44.5 -107t-44.5 -107.5t-107.5 -44.5t-107.5 44.5t-44.5 107.5z" />
    <glyph glyph-name="cedilla" unicode="&#xb8;" 
d="M156 -207l-37 39l102 168h105l-70 -115q35 9 70 9q78 0 130 -34.5t52 -99.5q0 -60 -38.5 -101t-91.5 -57t-116 -16q-98 0 -217 29l27 96q65 -26 153 -26q46 0 78.5 17t32.5 46q0 23 -21.5 41t-64.5 18q-40 0 -94 -14z" />
    <glyph glyph-name="onesuperior" unicode="&#xb9;" horiz-adv-x="591" 
d="M231 586v590h-247v122q46 0 79.5 2.5t71 12t62 25.5t43.5 45.5t26 70.5h137v-868h-172z" />
    <glyph glyph-name="ordmasculine" unicode="&#xba;" horiz-adv-x="911" 
d="M700 1112q0 38 -14 75t-42 70t-77 53.5t-112 20.5q-62 0 -111 -20.5t-77 -53.5t-42 -70t-14 -75q0 -81 62.5 -148t181.5 -67q63 0 112 20.5t77 53t42 69t14 72.5zM51 1114q0 146 105 243t299 97q195 0 300 -97t105 -243q0 -145 -105 -242.5t-300 -97.5
q-193 0 -298.5 97.5t-105.5 242.5z" />
    <glyph glyph-name="guillemotright" unicode="&#xbb;" horiz-adv-x="1138" 
d="M856 569l-244 172v207l369 -272v-213l-369 -273v207zM401 569l-243 172v207l368 -272v-213l-368 -273v207z" />
    <glyph glyph-name="onequarter" unicode="&#xbc;" horiz-adv-x="2048" 
d="M403 -33l814 1487h172l-814 -1487h-172zM297 586v590h-248v122q59 0 99.5 5t82.5 20t67.5 47.5t33.5 83.5h137v-868h-172zM1645 326v333h-5l-292 -333h297zM1645 0v190h-476v129l500 549h135v-542h148v-136h-148v-190h-159z" />
    <glyph glyph-name="onehalf" unicode="&#xbd;" horiz-adv-x="2048" 
d="M1397 561h-160q0 141 91 224t274 83q172 0 261 -75t89 -197q0 -68 -29 -122.5t-73.5 -89t-102 -67t-110.5 -55t-104 -53t-77 -62.5h496v-147h-744q3 81 36.5 145t84 105t111 74t120.5 60.5t109.5 56t80 68t30.5 89.5q0 65 -53 100t-128 35q-97 0 -147 -48.5t-55 -123.5z
M408 -33l813 1487h172l-813 -1487h-172zM297 586v590h-248v122q59 0 99.5 5t82.5 20t67.5 47.5t33.5 83.5h137v-868h-172z" />
    <glyph glyph-name="threequarters" unicode="&#xbe;" horiz-adv-x="2048" 
d="M543 -33l813 1487h172l-813 -1487h-172zM352 969v127q8 -2 31 -2h57q77 0 114.5 31.5t37.5 84.5q0 109 -172 109q-99 0 -140.5 -35.5t-46.5 -112.5h-159q7 143 100.5 213t249.5 70q168 0 254 -67.5t86 -167.5q0 -64 -34.5 -111.5t-104.5 -63.5v-4q77 -12 128.5 -67
t51.5 -123q0 -35 -6.5 -69t-29.5 -75.5t-60.5 -72t-106.5 -51.5t-160 -21q-393 0 -393 291h160q6 -93 58 -124.5t163 -31.5q101 0 152 34t51 97q0 67 -55 105.5t-148 38.5q-28 0 -51.5 -1t-26.5 -1zM1645 326v333h-5l-292 -333h297zM1645 0v190h-476v129l500 549h135v-542
h148v-136h-148v-190h-159z" />
    <glyph glyph-name="questiondown" unicode="&#xbf;" horiz-adv-x="1368" 
d="M614 836v237h254v-237h-254zM1044 66h205q-5 -115 -43 -204t-94.5 -142t-132 -87t-145.5 -46.5t-144 -12.5q-107 0 -199.5 28t-163.5 82t-112 139t-41 193q0 76 26 141t67.5 110.5t92 85.5t100.5 76t91.5 73t67.5 84.5t26 101.5h193q0 -73 -19 -133t-50.5 -101t-72 -78
t-82 -63.5t-82 -59t-72 -63.5t-50.5 -76.5t-19 -99.5q0 -135 85.5 -201.5t221.5 -66.5q152 0 246 84.5t100 235.5z" />
    <glyph glyph-name="Agrave" unicode="&#xc0;" horiz-adv-x="1554" 
d="M1315 0l-187 426h-716l-187 -426h-233l661 1462h248l662 -1462h-248zM1049 614l-281 648l-274 -648h555zM729 1577l-268 287h256l176 -287h-164z" />
    <glyph glyph-name="Aacute" unicode="&#xc1;" horiz-adv-x="1554" 
d="M1315 0l-187 426h-716l-187 -426h-233l661 1462h248l662 -1462h-248zM1049 614l-281 648l-274 -648h555zM668 1577l176 287h256l-269 -287h-163z" />
    <glyph glyph-name="Acircumflex" unicode="&#xc2;" horiz-adv-x="1554" 
d="M1315 0l-187 426h-716l-187 -426h-233l661 1462h248l662 -1462h-248zM1049 614l-281 648l-274 -648h555zM952 1577l-176 180l-176 -180h-199l267 287h217l266 -287h-199z" />
    <glyph glyph-name="Atilde" unicode="&#xc3;" horiz-adv-x="1554" 
d="M1315 0l-187 426h-716l-187 -426h-233l661 1462h248l662 -1462h-248zM1049 614l-281 648l-274 -648h555zM492 1595h-121q11 111 72 181.5t161 70.5q87 0 201 -49q98 -43 162 -43q38 0 61 20.5t33 71.5h121q-11 -111 -72.5 -181.5t-161.5 -70.5q-83 0 -200 50
q-98 43 -162 43q-38 0 -61 -21t-33 -72z" />
    <glyph glyph-name="Adieresis" unicode="&#xc4;" horiz-adv-x="1554" 
d="M1315 0l-187 426h-716l-187 -426h-233l661 1462h248l662 -1462h-248zM1049 614l-281 648l-274 -648h555zM924 1614v213h204v-213h-204zM432 1614v213h205v-213h-205z" />
    <glyph glyph-name="Aring" unicode="&#xc5;" horiz-adv-x="1554" 
d="M1315 0l-187 426h-716l-187 -426h-233l661 1462h248l662 -1462h-248zM1049 614l-281 648l-274 -648h555zM905 1782q0 51 -39 90t-90 39t-90 -39t-39 -90t39 -90t90 -39t90 39t39 90zM537 1782q0 100 69.5 169.5t169.5 69.5t170 -69.5t70 -169.5t-70 -170t-170 -70
q-104 0 -171.5 69.5t-67.5 170.5z" />
    <glyph glyph-name="AE" unicode="&#xc6;" horiz-adv-x="2275" 
d="M1077 0v426h-633l-266 -426h-246l922 1462h1323v-188h-895v-424h866v-188h-866v-474h905v-188h-1110zM1077 614v660h-102l-414 -660h516z" />
    <glyph glyph-name="Ccedilla" unicode="&#xc7;" horiz-adv-x="1669" 
d="M711 -207l-37 39l82 135q-91 9 -187 37q-82 25 -153.5 66t-134 104t-107.5 143t-70.5 187t-25.5 231q0 161 50 299.5t144.5 242t241.5 163t330 59.5q94 0 186 -16t187.5 -57t170 -103t126.5 -161.5t63 -225.5h-217q-13 79 -49.5 145.5t-97 118.5t-151 81.5t-202.5 29.5
q-265 0 -415 -152t-150 -446q0 -86 18.5 -164.5t60.5 -152t104.5 -127t157.5 -85.5t212 -32q200 0 333 99.5t179 307.5h217q-19 -184 -137.5 -331.5t-309.5 -217.5q-119 -44 -272 -47l-47 -78q35 9 70 9q78 0 130 -34.5t52 -99.5q0 -60 -38.5 -101t-91.5 -57t-116 -16
q-98 0 -217 29l27 96q65 -26 153 -26q46 0 78.5 17t32.5 46q0 23 -21.5 41t-64.5 18q-40 0 -94 -14z" />
    <glyph glyph-name="Egrave" unicode="&#xc8;" horiz-adv-x="1441" 
d="M158 0v1462h1175v-188h-958v-424h930v-188h-930v-474h979v-188h-1196zM756 1577l-269 287h256l177 -287h-164z" />
    <glyph glyph-name="Eacute" unicode="&#xc9;" horiz-adv-x="1441" 
d="M158 0v1462h1175v-188h-958v-424h930v-188h-930v-474h979v-188h-1196zM668 1577l176 287h256l-269 -287h-163z" />
    <glyph glyph-name="Ecircumflex" unicode="&#xca;" horiz-adv-x="1441" 
d="M158 0v1462h1175v-188h-958v-424h930v-188h-930v-474h979v-188h-1196zM932 1577l-176 180l-176 -180h-199l266 287h217l266 -287h-198z" />
    <glyph glyph-name="Edieresis" unicode="&#xcb;" horiz-adv-x="1441" 
d="M158 0v1462h1175v-188h-958v-424h930v-188h-930v-474h979v-188h-1196zM895 1614v213h205v-213h-205zM403 1614v213h205v-213h-205z" />
    <glyph glyph-name="Igrave" unicode="&#xcc;" horiz-adv-x="569" 
d="M176 0v1462h217v-1462h-217zM221 1577l-268 287h256l176 -287h-164z" />
    <glyph glyph-name="Iacute" unicode="&#xcd;" horiz-adv-x="569" 
d="M176 0v1462h217v-1462h-217zM182 1577l176 287h256l-268 -287h-164z" />
    <glyph glyph-name="Icircumflex" unicode="&#xce;" horiz-adv-x="569" 
d="M176 0v1462h217v-1462h-217zM461 1577l-176 180l-176 -180h-199l266 287h217l266 -287h-198z" />
    <glyph glyph-name="Idieresis" unicode="&#xcf;" horiz-adv-x="569" 
d="M176 0v1462h217v-1462h-217zM428 1614v213h205v-213h-205zM-63 1614v213h204v-213h-204z" />
    <glyph glyph-name="Eth" unicode="&#xd0;" horiz-adv-x="1630" 
d="M375 858h471v-147h-471v-523h526q420 0 420 560q0 83 -11.5 153.5t-42.5 141.5t-81 120t-133.5 80t-192.5 31h-485v-416zM158 858v604h741q161 0 284 -51t200 -145.5t116 -223.5t39 -290q0 -125 -21.5 -235t-70 -206t-120.5 -164t-178 -107.5t-237 -39.5h-753v711h-144
v147h144z" />
    <glyph glyph-name="Ntilde" unicode="&#xd1;" horiz-adv-x="1744" 
d="M1327 0l-940 1163h-4v-1163h-217v1462h252l940 -1163h4v1163h217v-1462h-252zM598 1595h-121q11 111 72.5 181.5t161.5 70.5q86 0 200 -49q98 -43 162 -43q38 0 61 20.5t33 71.5h121q-11 -111 -72 -181.5t-161 -70.5q-84 0 -201 50q-98 43 -162 43q-38 0 -61 -21t-33 -72
z" />
    <glyph glyph-name="Ograve" unicode="&#xd2;" horiz-adv-x="1781" 
d="M1487 731q0 142 -46 253.5t-127 182t-188.5 107.5t-234.5 37t-234.5 -37t-188.5 -107.5t-127 -182t-46 -253.5q0 -141 46 -253t127 -182.5t188.5 -107t234.5 -36.5t234.5 36.5t188.5 107t127 182.5t46 253zM78 731q0 116 27.5 224t89.5 208t154 174t231.5 118t310.5 44
t310.5 -44t231.5 -118t154 -174t89.5 -208t27.5 -224t-27.5 -224t-89.5 -208t-154 -174t-231.5 -118t-310.5 -44t-310.5 44t-231.5 118t-154 174t-89.5 208t-27.5 224zM887 1577l-269 287h256l177 -287h-164z" />
    <glyph glyph-name="Oacute" unicode="&#xd3;" horiz-adv-x="1781" 
d="M1487 731q0 142 -46 253.5t-127 182t-188.5 107.5t-234.5 37t-234.5 -37t-188.5 -107.5t-127 -182t-46 -253.5q0 -141 46 -253t127 -182.5t188.5 -107t234.5 -36.5t234.5 36.5t188.5 107t127 182.5t46 253zM78 731q0 116 27.5 224t89.5 208t154 174t231.5 118t310.5 44
t310.5 -44t231.5 -118t154 -174t89.5 -208t27.5 -224t-27.5 -224t-89.5 -208t-154 -174t-231.5 -118t-310.5 -44t-310.5 44t-231.5 118t-154 174t-89.5 208t-27.5 224zM805 1577l176 287h256l-268 -287h-164z" />
    <glyph glyph-name="Ocircumflex" unicode="&#xd4;" horiz-adv-x="1781" 
d="M1487 731q0 142 -46 253.5t-127 182t-188.5 107.5t-234.5 37t-234.5 -37t-188.5 -107.5t-127 -182t-46 -253.5q0 -141 46 -253t127 -182.5t188.5 -107t234.5 -36.5t234.5 36.5t188.5 107t127 182.5t46 253zM78 731q0 116 27.5 224t89.5 208t154 174t231.5 118t310.5 44
t310.5 -44t231.5 -118t154 -174t89.5 -208t27.5 -224t-27.5 -224t-89.5 -208t-154 -174t-231.5 -118t-310.5 -44t-310.5 44t-231.5 118t-154 174t-89.5 208t-27.5 224zM1069 1577l-176 180l-176 -180h-199l266 287h217l267 -287h-199z" />
    <glyph glyph-name="Otilde" unicode="&#xd5;" horiz-adv-x="1781" 
d="M1487 731q0 142 -46 253.5t-127 182t-188.5 107.5t-234.5 37t-234.5 -37t-188.5 -107.5t-127 -182t-46 -253.5q0 -141 46 -253t127 -182.5t188.5 -107t234.5 -36.5t234.5 36.5t188.5 107t127 182.5t46 253zM78 731q0 116 27.5 224t89.5 208t154 174t231.5 118t310.5 44
t310.5 -44t231.5 -118t154 -174t89.5 -208t27.5 -224t-27.5 -224t-89.5 -208t-154 -174t-231.5 -118t-310.5 -44t-310.5 44t-231.5 118t-154 174t-89.5 208t-27.5 224zM604 1595h-121q11 111 72.5 181.5t161.5 70.5q87 0 201 -49q98 -43 161 -43q38 0 61.5 20.5t33.5 71.5
h120q-11 -111 -72 -181.5t-161 -70.5q-84 0 -201 50q-98 43 -162 43q-38 0 -61 -21t-33 -72z" />
    <glyph glyph-name="Odieresis" unicode="&#xd6;" horiz-adv-x="1781" 
d="M1487 731q0 142 -46 253.5t-127 182t-188.5 107.5t-234.5 37t-234.5 -37t-188.5 -107.5t-127 -182t-46 -253.5q0 -141 46 -253t127 -182.5t188.5 -107t234.5 -36.5t234.5 36.5t188.5 107t127 182.5t46 253zM78 731q0 116 27.5 224t89.5 208t154 174t231.5 118t310.5 44
t310.5 -44t231.5 -118t154 -174t89.5 -208t27.5 -224t-27.5 -224t-89.5 -208t-154 -174t-231.5 -118t-310.5 -44t-310.5 44t-231.5 118t-154 174t-89.5 208t-27.5 224zM1034 1614v213h205v-213h-205zM543 1614v213h205v-213h-205z" />
    <glyph glyph-name="multiply" unicode="&#xd7;" horiz-adv-x="1228" 
d="M500 518l-357 356l115 115l354 -356l359 356l114 -115l-358 -356l358 -356l-114 -115l-359 359l-354 -359l-115 115z" />
    <glyph glyph-name="Oslash" unicode="&#xd8;" horiz-adv-x="1781" 
d="M145 -45l-71 78l188 178q-184 204 -184 520q0 116 27.5 224t89.5 208t154 174t231.5 118t310.5 44q340 0 553 -172l190 180l74 -75l-188 -179q184 -206 184 -522q0 -116 -27.5 -224t-89.5 -208t-154 -174t-231.5 -118t-310.5 -44q-341 0 -553 174zM414 354l878 830
q-153 127 -401 127q-127 0 -234.5 -37t-188.5 -107.5t-127 -182t-46 -253.5q0 -229 119 -377zM1368 1110l-879 -831q157 -127 402 -127q127 0 234.5 36.5t188.5 107t127 182.5t46 253q0 231 -119 379z" />
    <glyph glyph-name="Ugrave" unicode="&#xd9;" horiz-adv-x="1630" 
d="M154 553v909h217v-936q0 -191 117 -282.5t327 -91.5t327.5 91.5t117.5 282.5v936h217v-909q0 -590 -662 -590q-661 0 -661 590zM770 1577l-268 287h256l176 -287h-164z" />
    <glyph glyph-name="Uacute" unicode="&#xda;" horiz-adv-x="1630" 
d="M154 553v909h217v-936q0 -191 117 -282.5t327 -91.5t327.5 91.5t117.5 282.5v936h217v-909q0 -590 -662 -590q-661 0 -661 590zM698 1577l176 287h256l-268 -287h-164z" />
    <glyph glyph-name="Ucircumflex" unicode="&#xdb;" horiz-adv-x="1630" 
d="M154 553v909h217v-936q0 -191 117 -282.5t327 -91.5t327.5 91.5t117.5 282.5v936h217v-909q0 -590 -662 -590q-661 0 -661 590zM995 1577l-176 180l-176 -180h-199l267 287h217l266 -287h-199z" />
    <glyph glyph-name="Udieresis" unicode="&#xdc;" horiz-adv-x="1630" 
d="M154 553v909h217v-936q0 -191 117 -282.5t327 -91.5t327.5 91.5t117.5 282.5v936h217v-909q0 -590 -662 -590q-661 0 -661 590zM958 1614v213h205v-213h-205zM467 1614v213h205v-213h-205z" />
    <glyph glyph-name="Yacute" unicode="&#xdd;" horiz-adv-x="1478" 
d="M741 797l486 665h264l-645 -850v-612h-217v602l-641 860h276zM655 1577l176 287h256l-268 -287h-164z" />
    <glyph glyph-name="Thorn" unicode="&#xde;" horiz-adv-x="1478" 
d="M383 526h522q78 0 135 20.5t89.5 57.5t47.5 83t15 104q0 108 -63.5 171.5t-184.5 63.5h-561v-500zM166 0v1462h217v-248h537q241 0 365 -107t124 -312q0 -209 -124.5 -333t-350.5 -124h-551v-338h-217z" />
    <glyph glyph-name="germandbls" unicode="&#xdf;" horiz-adv-x="1327" 
d="M569 719v172q28 -4 43 -4h70q147 0 213 59t66 160q0 105 -82 163t-213 58q-158 0 -237 -68t-79 -194v-1065h-205v1083q0 107 40 188.5t112 130.5t163.5 73t201.5 24q252 0 384 -109.5t132 -275.5q0 -216 -203 -289v-4q122 -31 198 -125t76 -268q0 -95 -35 -178.5
t-100 -147.5t-167 -101.5t-228 -37.5q-55 0 -160 10v172q78 -10 125 -10q172 0 260 84.5t88 216.5q0 67 -24 121t-62.5 85.5t-82.5 49t-89 19.5z" />
    <glyph glyph-name="agrave" unicode="&#xe0;" horiz-adv-x="1327" 
d="M956 424v137q-23 -25 -66.5 -38.5t-133.5 -24.5l-232 -29q-129 -18 -186 -56t-57 -120q0 -75 68.5 -122.5t180.5 -47.5q177 0 301.5 84.5t124.5 216.5zM315 737h-192q20 196 152 284.5t380 88.5q72 0 136 -7t132 -28t116 -53.5t79 -88t31 -128.5v-578q0 -92 92 -92
q41 0 72 8v-143q-73 -12 -160 -12q-85 0 -129.5 31.5t-54.5 117.5q-61 -80 -190.5 -127t-266.5 -47q-102 0 -181 20.5t-126 53t-77 77t-41 86.5t-11 87q0 102 43.5 167.5t144.5 106t273 60.5l233 24q96 8 141 35t45 94q0 53 -24 89t-69.5 54.5t-96.5 25.5t-119 7
q-324 0 -332 -213zM657 1229l-268 287h256l176 -287h-164z" />
    <glyph glyph-name="aacute" unicode="&#xe1;" horiz-adv-x="1327" 
d="M956 424v137q-23 -25 -66.5 -38.5t-133.5 -24.5l-232 -29q-129 -18 -186 -56t-57 -120q0 -75 68.5 -122.5t180.5 -47.5q177 0 301.5 84.5t124.5 216.5zM315 737h-192q20 196 152 284.5t380 88.5q72 0 136 -7t132 -28t116 -53.5t79 -88t31 -128.5v-578q0 -92 92 -92
q41 0 72 8v-143q-73 -12 -160 -12q-85 0 -129.5 31.5t-54.5 117.5q-61 -80 -190.5 -127t-266.5 -47q-102 0 -181 20.5t-126 53t-77 77t-41 86.5t-11 87q0 102 43.5 167.5t144.5 106t273 60.5l233 24q96 8 141 35t45 94q0 53 -24 89t-69.5 54.5t-96.5 25.5t-119 7
q-324 0 -332 -213zM563 1229l176 287h256l-268 -287h-164z" />
    <glyph glyph-name="acircumflex" unicode="&#xe2;" horiz-adv-x="1327" 
d="M956 424v137q-23 -25 -66.5 -38.5t-133.5 -24.5l-232 -29q-129 -18 -186 -56t-57 -120q0 -75 68.5 -122.5t180.5 -47.5q177 0 301.5 84.5t124.5 216.5zM315 737h-192q20 196 152 284.5t380 88.5q72 0 136 -7t132 -28t116 -53.5t79 -88t31 -128.5v-578q0 -92 92 -92
q41 0 72 8v-143q-73 -12 -160 -12q-85 0 -129.5 31.5t-54.5 117.5q-61 -80 -190.5 -127t-266.5 -47q-102 0 -181 20.5t-126 53t-77 77t-41 86.5t-11 87q0 102 43.5 167.5t144.5 106t273 60.5l233 24q96 8 141 35t45 94q0 53 -24 89t-69.5 54.5t-96.5 25.5t-119 7
q-324 0 -332 -213zM829 1229l-176 180l-176 -180h-198l266 287h217l266 -287h-199z" />
    <glyph glyph-name="atilde" unicode="&#xe3;" horiz-adv-x="1327" 
d="M956 424v137q-23 -25 -66.5 -38.5t-133.5 -24.5l-232 -29q-129 -18 -186 -56t-57 -120q0 -75 68.5 -122.5t180.5 -47.5q177 0 301.5 84.5t124.5 216.5zM315 737h-192q20 196 152 284.5t380 88.5q72 0 136 -7t132 -28t116 -53.5t79 -88t31 -128.5v-578q0 -92 92 -92
q41 0 72 8v-143q-73 -12 -160 -12q-85 0 -129.5 31.5t-54.5 117.5q-61 -80 -190.5 -127t-266.5 -47q-102 0 -181 20.5t-126 53t-77 77t-41 86.5t-11 87q0 102 43.5 167.5t144.5 106t273 60.5l233 24q96 8 141 35t45 94q0 53 -24 89t-69.5 54.5t-96.5 25.5t-119 7
q-324 0 -332 -213zM367 1247h-121q11 111 72 181.5t161 70.5q87 0 201 -49q98 -43 162 -43q38 0 61 20.5t33 71.5h121q-11 -111 -72.5 -181.5t-161.5 -70.5q-86 0 -200 49q-98 43 -162 43q-38 0 -61 -20.5t-33 -71.5z" />
    <glyph glyph-name="adieresis" unicode="&#xe4;" horiz-adv-x="1327" 
d="M956 424v137q-23 -25 -66.5 -38.5t-133.5 -24.5l-232 -29q-129 -18 -186 -56t-57 -120q0 -75 68.5 -122.5t180.5 -47.5q177 0 301.5 84.5t124.5 216.5zM315 737h-192q20 196 152 284.5t380 88.5q72 0 136 -7t132 -28t116 -53.5t79 -88t31 -128.5v-578q0 -92 92 -92
q41 0 72 8v-143q-73 -12 -160 -12q-85 0 -129.5 31.5t-54.5 117.5q-61 -80 -190.5 -127t-266.5 -47q-102 0 -181 20.5t-126 53t-77 77t-41 86.5t-11 87q0 102 43.5 167.5t144.5 106t273 60.5l233 24q96 8 141 35t45 94q0 53 -24 89t-69.5 54.5t-96.5 25.5t-119 7
q-324 0 -332 -213zM795 1266v213h204v-213h-204zM303 1266v213h205v-213h-205z" />
    <glyph glyph-name="aring" unicode="&#xe5;" horiz-adv-x="1327" 
d="M956 424v137q-23 -25 -66.5 -38.5t-133.5 -24.5l-232 -29q-129 -18 -186 -56t-57 -120q0 -75 68.5 -122.5t180.5 -47.5q177 0 301.5 84.5t124.5 216.5zM315 737h-192q20 196 152 284.5t380 88.5q72 0 136 -7t132 -28t116 -53.5t79 -88t31 -128.5v-578q0 -92 92 -92
q41 0 72 8v-143q-73 -12 -160 -12q-85 0 -129.5 31.5t-54.5 117.5q-61 -80 -190.5 -127t-266.5 -47q-102 0 -181 20.5t-126 53t-77 77t-41 86.5t-11 87q0 102 43.5 167.5t144.5 106t273 60.5l233 24q96 8 141 35t45 94q0 53 -24 89t-69.5 54.5t-96.5 25.5t-119 7
q-324 0 -332 -213zM780 1434q0 51 -39 90t-90 39t-90 -39t-39 -90t39 -90t90 -39t90 39t39 90zM412 1434q0 100 69.5 169.5t169.5 69.5t170 -69.5t70 -169.5t-70 -170t-170 -70q-104 0 -171.5 69.5t-67.5 170.5z" />
    <glyph glyph-name="ae" unicode="&#xe6;" horiz-adv-x="2199" 
d="M956 424v96q-114 -29 -200 -35l-203 -14q-140 -11 -206 -52.5t-66 -125.5q0 -75 68.5 -122.5t180.5 -47.5q177 0 301.5 84.5t124.5 216.5zM1149 635h749q-24 144 -125.5 223.5t-248.5 79.5q-145 0 -248 -80t-127 -223zM2116 475h-967q21 -171 110 -255.5t267 -84.5
q48 0 93.5 8.5t94 28.5t89.5 59.5t67 94.5h217q-50 -123 -142.5 -207t-195.5 -120t-215 -36q-78 0 -140.5 8.5t-131 32t-127.5 72t-105 121.5q-17 -28 -42.5 -56t-70.5 -61.5t-100 -58t-135 -41.5t-170 -17q-102 0 -181 20.5t-126 53t-77 77t-41 86.5t-11 87
q0 153 101.5 231.5t346.5 102.5l246 24q96 8 141 35t45 94q0 53 -24 89t-69.5 54.5t-96.5 25.5t-119 7q-324 0 -332 -213h-192q20 196 152 284.5t380 88.5q320 0 457 -180q75 90 186 135t238 45q181 0 313.5 -78.5t199.5 -215t67 -314.5v-27z" />
    <glyph glyph-name="ccedilla" unicode="&#xe7;" horiz-adv-x="1290" 
d="M535 -207l-37 39l82 135q-104 9 -191 45q-157 70 -234 209t-77 309q0 120 37.5 224.5t108 184t183 125.5t252.5 46q146 0 262.5 -42.5t195.5 -132.5t100 -220h-218q-19 106 -102 164.5t-223 58.5q-127 0 -214 -53.5t-126 -141.5t-39 -206q0 -181 95.5 -291.5
t283.5 -110.5q139 0 217 61t113 197h217q-95 -344 -367 -407q-75 -20 -172 -23l-47 -78q35 9 70 9q78 0 130 -34.5t52 -99.5q0 -60 -38.5 -101t-91.5 -57t-116 -16q-98 0 -217 29l27 96q65 -26 153 -26q46 0 78.5 17t32.5 46q0 23 -21.5 41t-64.5 18q-40 0 -94 -14z" />
    <glyph glyph-name="egrave" unicode="&#xe8;" horiz-adv-x="1366" 
d="M301 635h764q-24 144 -125.5 223.5t-249.5 79.5q-145 0 -255 -82t-134 -221zM1282 475h-987q6 -81 42.5 -147t93 -107t123 -63.5t136.5 -22.5q48 0 94 8.5t95 28.5t90 59.5t67 94.5h217q-50 -123 -142.5 -207t-195.5 -120t-215 -36q-152 0 -272.5 46t-196 125.5
t-114.5 182t-39 220.5t39 220.5t114.5 181.5t196 125t272.5 46q88 0 169.5 -20t157.5 -66.5t132 -115t89.5 -173t33.5 -233.5v-27zM653 1229l-268 287h256l176 -287h-164z" />
    <glyph glyph-name="eacute" unicode="&#xe9;" horiz-adv-x="1366" 
d="M301 635h764q-24 144 -125.5 223.5t-249.5 79.5q-145 0 -255 -82t-134 -221zM1282 475h-987q6 -81 42.5 -147t93 -107t123 -63.5t136.5 -22.5q48 0 94 8.5t95 28.5t90 59.5t67 94.5h217q-50 -123 -142.5 -207t-195.5 -120t-215 -36q-152 0 -272.5 46t-196 125.5
t-114.5 182t-39 220.5t39 220.5t114.5 181.5t196 125t272.5 46q88 0 169.5 -20t157.5 -66.5t132 -115t89.5 -173t33.5 -233.5v-27zM598 1229l176 287h256l-268 -287h-164z" />
    <glyph glyph-name="ecircumflex" unicode="&#xea;" horiz-adv-x="1366" 
d="M301 635h764q-24 144 -125.5 223.5t-249.5 79.5q-145 0 -255 -82t-134 -221zM1282 475h-987q6 -81 42.5 -147t93 -107t123 -63.5t136.5 -22.5q48 0 94 8.5t95 28.5t90 59.5t67 94.5h217q-50 -123 -142.5 -207t-195.5 -120t-215 -36q-152 0 -272.5 46t-196 125.5
t-114.5 182t-39 220.5t39 220.5t114.5 181.5t196 125t272.5 46q88 0 169.5 -20t157.5 -66.5t132 -115t89.5 -173t33.5 -233.5v-27zM872 1229l-176 180l-176 -180h-198l266 287h217l266 -287h-199z" />
    <glyph glyph-name="edieresis" unicode="&#xeb;" horiz-adv-x="1366" 
d="M301 635h764q-24 144 -125.5 223.5t-249.5 79.5q-145 0 -255 -82t-134 -221zM1282 475h-987q6 -81 42.5 -147t93 -107t123 -63.5t136.5 -22.5q48 0 94 8.5t95 28.5t90 59.5t67 94.5h217q-50 -123 -142.5 -207t-195.5 -120t-215 -36q-152 0 -272.5 46t-196 125.5
t-114.5 182t-39 220.5t39 220.5t114.5 181.5t196 125t272.5 46q88 0 169.5 -20t157.5 -66.5t132 -115t89.5 -173t33.5 -233.5v-27zM840 1266v213h204v-213h-204zM348 1266v213h205v-213h-205z" />
    <glyph glyph-name="igrave" unicode="&#xec;" 
d="M125 0v1073h205v-1073h-205zM164 1229l-268 287h256l176 -287h-164z" />
    <glyph glyph-name="iacute" unicode="&#xed;" 
d="M125 0v1073h205v-1073h-205zM129 1229l176 287h256l-268 -287h-164z" />
    <glyph glyph-name="icircumflex" unicode="&#xee;" 
d="M125 0v1073h205v-1073h-205zM403 1229l-176 180l-176 -180h-198l266 287h217l266 -287h-199z" />
    <glyph glyph-name="idieresis" unicode="&#xef;" 
d="M125 0v1073h205v-1073h-205zM371 1266v213h204v-213h-204zM-121 1266v213h205v-213h-205z" />
    <glyph glyph-name="eth" unicode="&#xf0;" horiz-adv-x="1400" 
d="M289 1241l229 102q-87 40 -207 78l142 115q148 -51 256 -109l243 109l84 -74l-221 -98q246 -159 377 -370t131 -441q0 -128 -39 -234.5t-115 -186.5t-196 -124.5t-273 -44.5q-152 0 -272.5 46t-196 125.5t-114.5 182t-39 220.5q0 158 79 290t215.5 207.5t301.5 75.5
q169 0 274 -96l4 4q-128 154 -317 266l-264 -117zM1106 537q0 77 -22.5 145.5t-68.5 127.5t-127 93.5t-188 34.5q-86 0 -156 -23t-115.5 -61.5t-76 -91t-44 -108.5t-13.5 -117q0 -77 22.5 -146t68 -127.5t126.5 -93.5t188 -35t188 35t127 93.5t68.5 127.5t22.5 146z" />
    <glyph glyph-name="ntilde" unicode="&#xf1;" horiz-adv-x="1329" 
d="M125 0v1073h205v-162h4q133 199 420 199q205 0 327.5 -93.5t122.5 -285.5v-731h-205v690q0 248 -317 248q-148 0 -250 -84.5t-102 -235.5v-618h-205zM379 1247h-121q11 111 72.5 181.5t161.5 70.5q86 0 200 -49q98 -43 162 -43q38 0 61 20.5t33 71.5h121
q-11 -111 -72 -181.5t-161 -70.5q-87 0 -201 49q-98 43 -162 43q-38 0 -61 -20.5t-33 -71.5z" />
    <glyph glyph-name="ograve" unicode="&#xf2;" horiz-adv-x="1400" 
d="M1106 537q0 77 -22.5 145.5t-68.5 127.5t-127 93.5t-188 34.5q-86 0 -156 -23t-115.5 -61.5t-76 -91t-44 -108.5t-13.5 -117q0 -77 22.5 -146t68 -127.5t126.5 -93.5t188 -35t188 35t127 93.5t68.5 127.5t22.5 146zM78 537q0 118 39 220.5t114.5 181.5t196 125t272.5 46
t273 -46t196 -125t114.5 -181.5t39.5 -220.5t-39.5 -220.5t-114.5 -182t-196 -125.5t-273 -46t-272.5 46t-196 125.5t-114.5 182t-39 220.5zM649 1229l-268 287h256l176 -287h-164z" />
    <glyph glyph-name="oacute" unicode="&#xf3;" horiz-adv-x="1400" 
d="M1106 537q0 77 -22.5 145.5t-68.5 127.5t-127 93.5t-188 34.5q-86 0 -156 -23t-115.5 -61.5t-76 -91t-44 -108.5t-13.5 -117q0 -77 22.5 -146t68 -127.5t126.5 -93.5t188 -35t188 35t127 93.5t68.5 127.5t22.5 146zM78 537q0 118 39 220.5t114.5 181.5t196 125t272.5 46
t273 -46t196 -125t114.5 -181.5t39.5 -220.5t-39.5 -220.5t-114.5 -182t-196 -125.5t-273 -46t-272.5 46t-196 125.5t-114.5 182t-39 220.5zM616 1229l177 287h256l-269 -287h-164z" />
    <glyph glyph-name="ocircumflex" unicode="&#xf4;" horiz-adv-x="1400" 
d="M1106 537q0 77 -22.5 145.5t-68.5 127.5t-127 93.5t-188 34.5q-86 0 -156 -23t-115.5 -61.5t-76 -91t-44 -108.5t-13.5 -117q0 -77 22.5 -146t68 -127.5t126.5 -93.5t188 -35t188 35t127 93.5t68.5 127.5t22.5 146zM78 537q0 118 39 220.5t114.5 181.5t196 125t272.5 46
t273 -46t196 -125t114.5 -181.5t39.5 -220.5t-39.5 -220.5t-114.5 -182t-196 -125.5t-273 -46t-272.5 46t-196 125.5t-114.5 182t-39 220.5zM883 1229l-176 180l-177 -180h-198l266 287h217l266 -287h-198z" />
    <glyph glyph-name="otilde" unicode="&#xf5;" horiz-adv-x="1400" 
d="M1106 537q0 77 -22.5 145.5t-68.5 127.5t-127 93.5t-188 34.5q-86 0 -156 -23t-115.5 -61.5t-76 -91t-44 -108.5t-13.5 -117q0 -77 22.5 -146t68 -127.5t126.5 -93.5t188 -35t188 35t127 93.5t68.5 127.5t22.5 146zM78 537q0 118 39 220.5t114.5 181.5t196 125t272.5 46
t273 -46t196 -125t114.5 -181.5t39.5 -220.5t-39.5 -220.5t-114.5 -182t-196 -125.5t-273 -46t-272.5 46t-196 125.5t-114.5 182t-39 220.5zM422 1247h-121q11 111 72.5 181.5t161.5 70.5q86 0 200 -49q98 -43 162 -43q38 0 61 20.5t33 71.5h121q-11 -111 -72 -181.5
t-161 -70.5q-87 0 -201 49q-98 43 -162 43q-38 0 -61 -20.5t-33 -71.5z" />
    <glyph glyph-name="odieresis" unicode="&#xf6;" horiz-adv-x="1400" 
d="M1106 537q0 77 -22.5 145.5t-68.5 127.5t-127 93.5t-188 34.5q-86 0 -156 -23t-115.5 -61.5t-76 -91t-44 -108.5t-13.5 -117q0 -77 22.5 -146t68 -127.5t126.5 -93.5t188 -35t188 35t127 93.5t68.5 127.5t22.5 146zM78 537q0 118 39 220.5t114.5 181.5t196 125t272.5 46
t273 -46t196 -125t114.5 -181.5t39.5 -220.5t-39.5 -220.5t-114.5 -182t-196 -125.5t-273 -46t-272.5 46t-196 125.5t-114.5 182t-39 220.5zM850 1266v213h205v-213h-205zM358 1266v213h205v-213h-205z" />
    <glyph glyph-name="divide" unicode="&#xf7;" horiz-adv-x="1228" 
d="M96 432v172h1037v-172h-1037zM471 94q0 60 41.5 102t101.5 42t102 -42t42 -102t-42 -101.5t-102 -41.5t-101.5 41.5t-41.5 101.5zM471 942q0 60 41.5 101.5t101.5 41.5t102 -41.5t42 -101.5t-42 -101.5t-102 -41.5t-101.5 41.5t-41.5 101.5z" />
    <glyph glyph-name="oslash" unicode="&#xf8;" horiz-adv-x="1400" 
d="M1116 983l148 137l59 -63l-141 -131q141 -153 141 -389q0 -118 -39.5 -220.5t-114.5 -182t-196 -125.5t-273 -46q-259 0 -415 127l-148 -137l-59 63l143 134q-143 155 -143 387q0 118 39 220.5t114.5 181.5t196 125t272.5 46q251 0 416 -127zM369 287l604 563
q-106 88 -273 88q-86 0 -156 -23t-115.5 -61.5t-76 -91t-44 -108.5t-13.5 -117q0 -146 74 -250zM1032 786l-604 -563q101 -88 272 -88q107 0 188 35t127 93.5t68.5 127.5t22.5 146q0 145 -74 249z" />
    <glyph glyph-name="ugrave" unicode="&#xf9;" horiz-adv-x="1329" 
d="M1204 1073v-1073h-205v162h-4q-133 -199 -420 -199q-205 0 -327.5 93.5t-122.5 285.5v731h205v-690q0 -248 317 -248q148 0 250 84.5t102 235.5v618h205zM621 1229l-269 287h256l176 -287h-163z" />
    <glyph glyph-name="uacute" unicode="&#xfa;" horiz-adv-x="1329" 
d="M1204 1073v-1073h-205v162h-4q-133 -199 -420 -199q-205 0 -327.5 93.5t-122.5 285.5v731h205v-690q0 -248 317 -248q148 0 250 84.5t102 235.5v618h205zM573 1229l177 287h256l-269 -287h-164z" />
    <glyph glyph-name="ucircumflex" unicode="&#xfb;" horiz-adv-x="1329" 
d="M1204 1073v-1073h-205v162h-4q-133 -199 -420 -199q-205 0 -327.5 93.5t-122.5 285.5v731h205v-690q0 -248 317 -248q148 0 250 84.5t102 235.5v618h205zM844 1229l-176 180l-176 -180h-199l266 287h217l266 -287h-198z" />
    <glyph glyph-name="udieresis" unicode="&#xfc;" horiz-adv-x="1329" 
d="M1204 1073v-1073h-205v162h-4q-133 -199 -420 -199q-205 0 -327.5 93.5t-122.5 285.5v731h205v-690q0 -248 317 -248q148 0 250 84.5t102 235.5v618h205zM805 1266v213h205v-213h-205zM313 1266v213h205v-213h-205z" />
    <glyph glyph-name="yacute" unicode="&#xfd;" horiz-adv-x="1175" 
d="M594 225l362 848h230l-561 -1257q-39 -87 -74.5 -138.5t-80.5 -80.5t-93.5 -38.5t-124.5 -9.5q-74 0 -156 9v172q13 -1 52 -5t67 -4q93 0 133 30t90 134l47 99l-495 1089h235zM508 1229l176 287h256l-268 -287h-164z" />
    <glyph glyph-name="thorn" unicode="&#xfe;" horiz-adv-x="1402" 
d="M1108 530q0 63 -14 120t-45 108t-76 88t-111.5 58.5t-146.5 21.5q-81 0 -148 -21.5t-113 -58.5t-77 -88t-45.5 -108t-14.5 -120q0 -183 109 -289t289 -106q181 0 287 105t106 290zM125 -414v1889h205v-551h4q58 82 171 128t236 46q121 0 227 -38.5t185.5 -110
t125.5 -179.5t46 -240q0 -175 -79.5 -305.5t-210.5 -196t-294 -65.5q-125 0 -236.5 45.5t-170.5 128.5h-4v-551h-205z" />
    <glyph glyph-name="ydieresis" unicode="&#xff;" horiz-adv-x="1175" 
d="M594 225l362 848h230l-561 -1257q-39 -87 -74.5 -138.5t-80.5 -80.5t-93.5 -38.5t-124.5 -9.5q-74 0 -156 9v172q13 -1 52 -5t67 -4q93 0 133 30t90 134l47 99l-495 1089h235zM739 1266v213h205v-213h-205zM248 1266v213h205v-213h-205z" />
    <glyph glyph-name="Amacron" unicode="&#x100;" horiz-adv-x="1554" 
d="M1315 0l-187 426h-716l-187 -426h-233l661 1462h248l662 -1462h-248zM1049 614l-281 648l-274 -648h555zM379 1640v160h803v-160h-803z" />
    <glyph glyph-name="amacron" unicode="&#x101;" horiz-adv-x="1327" 
d="M956 424v137q-23 -25 -66.5 -38.5t-133.5 -24.5l-232 -29q-129 -18 -186 -56t-57 -120q0 -75 68.5 -122.5t180.5 -47.5q177 0 301.5 84.5t124.5 216.5zM315 737h-192q20 196 152 284.5t380 88.5q72 0 136 -7t132 -28t116 -53.5t79 -88t31 -128.5v-578q0 -92 92 -92
q41 0 72 8v-143q-73 -12 -160 -12q-85 0 -129.5 31.5t-54.5 117.5q-61 -80 -190.5 -127t-266.5 -47q-102 0 -181 20.5t-126 53t-77 77t-41 86.5t-11 87q0 102 43.5 167.5t144.5 106t273 60.5l233 24q96 8 141 35t45 94q0 53 -24 89t-69.5 54.5t-96.5 25.5t-119 7
q-324 0 -332 -213zM256 1292v160h803v-160h-803z" />
    <glyph glyph-name="Abreve" unicode="&#x102;" horiz-adv-x="1554" 
d="M1315 0l-187 426h-716l-187 -426h-233l661 1462h248l662 -1462h-248zM1049 614l-281 648l-274 -648h555zM422 1866h135q10 -72 67.5 -109t153.5 -37t153.5 37t67.5 109h136q-7 -147 -107 -220t-250 -73t-249.5 73t-106.5 220z" />
    <glyph glyph-name="abreve" unicode="&#x103;" horiz-adv-x="1327" 
d="M956 424v137q-23 -25 -66.5 -38.5t-133.5 -24.5l-232 -29q-129 -18 -186 -56t-57 -120q0 -75 68.5 -122.5t180.5 -47.5q177 0 301.5 84.5t124.5 216.5zM315 737h-192q20 196 152 284.5t380 88.5q72 0 136 -7t132 -28t116 -53.5t79 -88t31 -128.5v-578q0 -92 92 -92
q41 0 72 8v-143q-73 -12 -160 -12q-85 0 -129.5 31.5t-54.5 117.5q-61 -80 -190.5 -127t-266.5 -47q-102 0 -181 20.5t-126 53t-77 77t-41 86.5t-11 87q0 102 43.5 167.5t144.5 106t273 60.5l233 24q96 8 141 35t45 94q0 53 -24 89t-69.5 54.5t-96.5 25.5t-119 7
q-324 0 -332 -213zM307 1518h135q10 -72 68 -109t154 -37t153.5 37t67.5 109h135q-7 -147 -106.5 -220t-249.5 -73t-250 73t-107 220z" />
    <glyph glyph-name="Aogonek" unicode="&#x104;" horiz-adv-x="1554" 
d="M1563 0h-138q-79 -40 -135.5 -104.5t-56.5 -131.5q0 -47 27 -69.5t71 -22.5q71 0 164 27l25 -72q-91 -41 -205 -41q-217 0 -217 166q0 46 23 89t58.5 74t69.5 52t66 33l-187 426h-716l-187 -426h-233l661 1462h248zM1049 614l-281 648l-274 -648h555z" />
    <glyph glyph-name="aogonek" unicode="&#x105;" horiz-adv-x="1327" 
d="M315 737h-192q20 196 152 284.5t380 88.5q72 0 136 -7t132 -28t116 -53.5t79 -88t31 -128.5v-578q0 -92 92 -92q41 0 72 8v-143q-73 -12 -160 -12h-4q-29 -18 -47 -31q-54 -40 -87.5 -91.5t-33.5 -101.5q0 -47 27 -69.5t71 -22.5q71 0 164 27l25 -72q-91 -41 -205 -41
q-217 0 -217 166q0 67 44 123t107 94q38 20 66 31q-20 6 -37 16q-48 31 -57 121q-61 -80 -190.5 -127t-266.5 -47q-102 0 -181 20.5t-126 53t-77 77t-41 86.5t-11 87q0 102 43.5 167.5t144.5 106t273 60.5l233 24q96 8 141 35t45 94q0 53 -24 89t-69.5 54.5t-96.5 25.5
t-119 7q-324 0 -332 -213zM956 424v137q-23 -25 -66.5 -38.5t-133.5 -24.5l-232 -29q-129 -18 -186 -56t-57 -120q0 -75 68.5 -122.5t180.5 -47.5q177 0 301.5 84.5t124.5 216.5z" />
    <glyph glyph-name="Cacute" unicode="&#x106;" horiz-adv-x="1669" 
d="M1577 936h-217q-13 79 -49.5 145.5t-97 118.5t-151 81.5t-202.5 29.5q-265 0 -415 -152t-150 -446q0 -86 18.5 -164.5t60.5 -152t104.5 -127t157.5 -85.5t212 -32q200 0 333 99.5t179 307.5h217q-12 -122 -70 -230t-151 -189.5t-225.5 -129t-284.5 -47.5q-115 0 -222 25
t-207.5 84t-174.5 146t-119 220t-45 297q0 161 50 299.5t144.5 242t241.5 163t330 59.5q94 0 186 -16t187.5 -57t170 -103t126.5 -161.5t63 -225.5zM754 1577l176 287h256l-268 -287h-164z" />
    <glyph glyph-name="cacute" unicode="&#x107;" horiz-adv-x="1290" 
d="M1004 393h217q-63 -232 -201 -331t-358 -99q-124 0 -224 32.5t-166 86.5t-110.5 128t-64 153.5t-19.5 166.5q0 120 37.5 224.5t108 184t183 125.5t252.5 46q146 0 262.5 -42.5t195.5 -132.5t100 -220h-218q-19 106 -102 164.5t-223 58.5q-127 0 -214 -53.5t-126 -141.5
t-39 -206q0 -181 95.5 -291.5t283.5 -110.5q139 0 217 61t113 197zM573 1229l177 287h256l-269 -287h-164z" />
    <glyph glyph-name="Ccircumflex" unicode="&#x108;" horiz-adv-x="1669" 
d="M1577 936h-217q-13 79 -49.5 145.5t-97 118.5t-151 81.5t-202.5 29.5q-265 0 -415 -152t-150 -446q0 -86 18.5 -164.5t60.5 -152t104.5 -127t157.5 -85.5t212 -32q200 0 333 99.5t179 307.5h217q-12 -122 -70 -230t-151 -189.5t-225.5 -129t-284.5 -47.5q-115 0 -222 25
t-207.5 84t-174.5 146t-119 220t-45 297q0 161 50 299.5t144.5 242t241.5 163t330 59.5q94 0 186 -16t187.5 -57t170 -103t126.5 -161.5t63 -225.5zM1034 1577l-176 180l-176 -180h-199l267 287h217l266 -287h-199z" />
    <glyph glyph-name="ccircumflex" unicode="&#x109;" horiz-adv-x="1290" 
d="M1004 393h217q-63 -232 -201 -331t-358 -99q-124 0 -224 32.5t-166 86.5t-110.5 128t-64 153.5t-19.5 166.5q0 120 37.5 224.5t108 184t183 125.5t252.5 46q146 0 262.5 -42.5t195.5 -132.5t100 -220h-218q-19 106 -102 164.5t-223 58.5q-127 0 -214 -53.5t-126 -141.5
t-39 -206q0 -181 95.5 -291.5t283.5 -110.5q139 0 217 61t113 197zM854 1229l-176 180l-176 -180h-199l266 287h217l267 -287h-199z" />
    <glyph glyph-name="Cdotaccent" unicode="&#x10a;" horiz-adv-x="1669" 
d="M1577 936h-217q-13 79 -49.5 145.5t-97 118.5t-151 81.5t-202.5 29.5q-265 0 -415 -152t-150 -446q0 -86 18.5 -164.5t60.5 -152t104.5 -127t157.5 -85.5t212 -32q200 0 333 99.5t179 307.5h217q-12 -122 -70 -230t-151 -189.5t-225.5 -129t-284.5 -47.5q-115 0 -222 25
t-207.5 84t-174.5 146t-119 220t-45 297q0 161 50 299.5t144.5 242t241.5 163t330 59.5q94 0 186 -16t187.5 -57t170 -103t126.5 -161.5t63 -225.5zM739 1614v213h205v-213h-205z" />
    <glyph glyph-name="cdotaccent" unicode="&#x10b;" horiz-adv-x="1290" 
d="M1004 393h217q-63 -232 -201 -331t-358 -99q-124 0 -224 32.5t-166 86.5t-110.5 128t-64 153.5t-19.5 166.5q0 120 37.5 224.5t108 184t183 125.5t252.5 46q146 0 262.5 -42.5t195.5 -132.5t100 -220h-218q-19 106 -102 164.5t-223 58.5q-127 0 -214 -53.5t-126 -141.5
t-39 -206q0 -181 95.5 -291.5t283.5 -110.5q139 0 217 61t113 197zM567 1266v213h205v-213h-205z" />
    <glyph glyph-name="Ccaron" unicode="&#x10c;" horiz-adv-x="1669" 
d="M1577 936h-217q-13 79 -49.5 145.5t-97 118.5t-151 81.5t-202.5 29.5q-265 0 -415 -152t-150 -446q0 -86 18.5 -164.5t60.5 -152t104.5 -127t157.5 -85.5t212 -32q200 0 333 99.5t179 307.5h217q-12 -122 -70 -230t-151 -189.5t-225.5 -129t-284.5 -47.5q-115 0 -222 25
t-207.5 84t-174.5 146t-119 220t-45 297q0 161 50 299.5t144.5 242t241.5 163t330 59.5q94 0 186 -16t187.5 -57t170 -103t126.5 -161.5t63 -225.5zM838 1683l176 181h198l-266 -287h-217l-266 287h199z" />
    <glyph glyph-name="ccaron" unicode="&#x10d;" horiz-adv-x="1290" 
d="M1004 393h217q-63 -232 -201 -331t-358 -99q-124 0 -224 32.5t-166 86.5t-110.5 128t-64 153.5t-19.5 166.5q0 120 37.5 224.5t108 184t183 125.5t252.5 46q146 0 262.5 -42.5t195.5 -132.5t100 -220h-218q-19 106 -102 164.5t-223 58.5q-127 0 -214 -53.5t-126 -141.5
t-39 -206q0 -181 95.5 -291.5t283.5 -110.5q139 0 217 61t113 197zM666 1335l176 181h198l-266 -287h-217l-266 287h198z" />
    <glyph glyph-name="Dcaron" unicode="&#x10e;" horiz-adv-x="1630" 
d="M375 188h526q420 0 420 560q0 83 -11.5 153.5t-42.5 141.5t-81 120t-133.5 80t-192.5 31h-485v-1086zM158 0v1462h741q161 0 284 -51t200 -145.5t116 -223.5t39 -290q0 -125 -21.5 -235t-70 -206t-120.5 -164t-178 -107.5t-237 -39.5h-753zM741 1683l177 181h198
l-266 -287h-217l-266 287h198z" />
    <glyph glyph-name="dcaron" unicode="&#x10f;" horiz-adv-x="1552" 
d="M295 530q0 -79 23 -148.5t69 -125.5t123.5 -88.5t177.5 -32.5q101 0 179 32.5t124.5 88.5t70 125.5t23.5 148.5q0 183 -108.5 289.5t-288.5 106.5q-181 0 -287 -105.5t-106 -290.5zM1073 0v137h-4q-58 -82 -171 -128t-236 -46q-163 0 -294 65.5t-210.5 196t-79.5 305.5
q0 132 46 240t125.5 179.5t185.5 110t227 38.5q124 0 236 -45.5t171 -128.5h4v551h205v-1475h-205zM1380 1188l60 287h227l-143 -287h-144z" />
    <glyph glyph-name="Dcroat" unicode="&#x110;" horiz-adv-x="1630" 
d="M375 858h471v-147h-471v-523h526q420 0 420 560q0 83 -11.5 153.5t-42.5 141.5t-81 120t-133.5 80t-192.5 31h-485v-416zM158 858v604h741q161 0 284 -51t200 -145.5t116 -223.5t39 -290q0 -125 -21.5 -235t-70 -206t-120.5 -164t-178 -107.5t-237 -39.5h-753v711h-144
v147h144z" />
    <glyph glyph-name="dcroat" unicode="&#x111;" horiz-adv-x="1511" 
d="M1073 0v137h-4q-58 -82 -171 -128t-236 -46q-163 0 -294 65.5t-210.5 196t-79.5 305.5q0 132 46 240t125.5 179.5t185.5 110t227 38.5q124 0 236 -45.5t171 -128.5h4v264h-362v129h362v158h205v-158h205v-129h-205v-1188h-205zM295 530q0 -79 23 -148.5t69 -125.5
t123.5 -88.5t177.5 -32.5q101 0 179 32.5t124.5 88.5t70 125.5t23.5 148.5q0 183 -108.5 289.5t-288.5 106.5q-181 0 -287 -105.5t-106 -290.5z" />
    <glyph glyph-name="Emacron" unicode="&#x112;" horiz-adv-x="1441" 
d="M158 0v1462h1175v-188h-958v-424h930v-188h-930v-474h979v-188h-1196zM354 1640v160h803v-160h-803z" />
    <glyph glyph-name="emacron" unicode="&#x113;" horiz-adv-x="1366" 
d="M301 635h764q-24 144 -125.5 223.5t-249.5 79.5q-145 0 -255 -82t-134 -221zM1282 475h-987q6 -81 42.5 -147t93 -107t123 -63.5t136.5 -22.5q48 0 94 8.5t95 28.5t90 59.5t67 94.5h217q-50 -123 -142.5 -207t-195.5 -120t-215 -36q-152 0 -272.5 46t-196 125.5
t-114.5 182t-39 220.5t39 220.5t114.5 181.5t196 125t272.5 46q88 0 169.5 -20t157.5 -66.5t132 -115t89.5 -173t33.5 -233.5v-27zM295 1292v160h803v-160h-803z" />
    <glyph glyph-name="Ebreve" unicode="&#x114;" horiz-adv-x="1441" 
d="M158 0v1462h1175v-188h-958v-424h930v-188h-930v-474h979v-188h-1196zM399 1866h136q10 -72 67.5 -109t153.5 -37t153.5 37t67.5 109h135q-7 -147 -106.5 -220t-249.5 -73t-250 73t-107 220z" />
    <glyph glyph-name="ebreve" unicode="&#x115;" horiz-adv-x="1366" 
d="M301 635h764q-24 144 -125.5 223.5t-249.5 79.5q-145 0 -255 -82t-134 -221zM1282 475h-987q6 -81 42.5 -147t93 -107t123 -63.5t136.5 -22.5q48 0 94 8.5t95 28.5t90 59.5t67 94.5h217q-50 -123 -142.5 -207t-195.5 -120t-215 -36q-152 0 -272.5 46t-196 125.5
t-114.5 182t-39 220.5t39 220.5t114.5 181.5t196 125t272.5 46q88 0 169.5 -20t157.5 -66.5t132 -115t89.5 -173t33.5 -233.5v-27zM340 1518h135q10 -72 67.5 -109t153.5 -37t154 37t68 109h135q-7 -147 -107 -220t-250 -73t-249.5 73t-106.5 220z" />
    <glyph glyph-name="Edotaccent" unicode="&#x116;" horiz-adv-x="1441" 
d="M158 0v1462h1175v-188h-958v-424h930v-188h-930v-474h979v-188h-1196zM645 1614v213h205v-213h-205z" />
    <glyph glyph-name="edotaccent" unicode="&#x117;" horiz-adv-x="1366" 
d="M301 635h764q-24 144 -125.5 223.5t-249.5 79.5q-145 0 -255 -82t-134 -221zM1282 475h-987q6 -81 42.5 -147t93 -107t123 -63.5t136.5 -22.5q48 0 94 8.5t95 28.5t90 59.5t67 94.5h217q-50 -123 -142.5 -207t-195.5 -120t-215 -36q-152 0 -272.5 46t-196 125.5
t-114.5 182t-39 220.5t39 220.5t114.5 181.5t196 125t272.5 46q88 0 169.5 -20t157.5 -66.5t132 -115t89.5 -173t33.5 -233.5v-27zM596 1266v213h205v-213h-205z" />
    <glyph glyph-name="Eogonek" unicode="&#x118;" horiz-adv-x="1441" 
d="M1354 0h-94q-80 -40 -136.5 -104.5t-56.5 -131.5q0 -47 27 -69.5t71 -22.5q71 0 164 27l25 -72q-91 -41 -205 -41q-217 0 -217 166q0 46 23 89t58.5 74t69.5 52t66 33h-991v1462h1175v-188h-958v-424h930v-188h-930v-474h979v-188z" />
    <glyph glyph-name="eogonek" unicode="&#x119;" horiz-adv-x="1366" 
d="M1282 475h-987q6 -81 42.5 -147t93 -107t123 -63.5t136.5 -22.5q48 0 94 8.5t95 28.5t90 59.5t67 94.5h217q-56 -136 -160 -222.5t-231 -119.5q-66 -16 -121 -19l-10 -8q-54 -40 -87.5 -91.5t-33.5 -101.5q0 -47 27.5 -69.5t71.5 -22.5q70 0 163 27l25 -72
q-91 -41 -205 -41q-217 0 -217 166q0 84 80 164q55 43 68 51q-119 10 -197 41q-169 69 -258.5 209.5t-89.5 319.5q0 118 39 220.5t114.5 181.5t196 125t272.5 46q88 0 169.5 -20t157.5 -66.5t132 -115t89.5 -173t33.5 -233.5v-27zM301 635h764q-24 144 -125.5 223.5
t-249.5 79.5q-145 0 -255 -82t-134 -221z" />
    <glyph glyph-name="Ecaron" unicode="&#x11a;" horiz-adv-x="1441" 
d="M158 0v1462h1175v-188h-958v-424h930v-188h-930v-474h979v-188h-1196zM756 1683l176 181h198l-266 -287h-217l-266 287h199z" />
    <glyph glyph-name="ecaron" unicode="&#x11b;" horiz-adv-x="1366" 
d="M301 635h764q-24 144 -125.5 223.5t-249.5 79.5q-145 0 -255 -82t-134 -221zM1282 475h-987q6 -81 42.5 -147t93 -107t123 -63.5t136.5 -22.5q48 0 94 8.5t95 28.5t90 59.5t67 94.5h217q-50 -123 -142.5 -207t-195.5 -120t-215 -36q-152 0 -272.5 46t-196 125.5
t-114.5 182t-39 220.5t39 220.5t114.5 181.5t196 125t272.5 46q88 0 169.5 -20t157.5 -66.5t132 -115t89.5 -173t33.5 -233.5v-27zM692 1335l176 181h199l-266 -287h-217l-267 287h199z" />
    <glyph glyph-name="Gcircumflex" unicode="&#x11c;" horiz-adv-x="1781" 
d="M958 600v188h672v-788h-155l-37 209q-42 -49 -86.5 -87t-112 -77t-160 -60.5t-202.5 -21.5q-169 0 -304.5 47t-221.5 122t-143 174.5t-80.5 199t-23.5 201.5q0 164 43.5 298.5t117 225t172.5 152t207.5 89t225.5 27.5q96 0 183 -13t178.5 -47.5t162.5 -88.5t128 -143.5
t84 -205.5h-230q-52 157 -170.5 233.5t-324.5 76.5q-140 0 -249.5 -47.5t-176 -129.5t-100 -185.5t-33.5 -223.5q0 -121 30 -218.5t82 -162.5t125 -109t155.5 -63.5t176.5 -19.5q234 0 381.5 124.5t165.5 323.5h-480zM1065 1577l-176 180l-176 -180h-199l266 287h217
l267 -287h-199z" />
    <glyph glyph-name="gcircumflex" unicode="&#x11d;" horiz-adv-x="1402" 
d="M1085 541q0 170 -106.5 277.5t-288.5 107.5q-185 0 -290 -107.5t-105 -277.5t105 -274.5t290 -104.5q183 0 289 105t106 274zM1085 915v158h205v-983q0 -288 -146.5 -414.5t-477.5 -126.5q-79 0 -142 6t-135 26.5t-122.5 55.5t-90 97.5t-51.5 148.5h205
q28 -99 113 -136.5t243 -37.5q204 0 301.5 90.5t97.5 233.5v155h-4q-139 -198 -415 -198q-89 0 -171.5 19t-159 62t-133 105.5t-90.5 157t-34 209.5q0 116 33.5 210.5t90 157.5t132.5 106t158.5 62t171.5 19q138 0 248.5 -46.5t168.5 -136.5h4zM913 1229l-176 180l-176 -180
h-199l267 287h217l266 -287h-199z" />
    <glyph glyph-name="Gbreve" unicode="&#x11e;" horiz-adv-x="1781" 
d="M958 600v188h672v-788h-155l-37 209q-42 -49 -86.5 -87t-112 -77t-160 -60.5t-202.5 -21.5q-169 0 -304.5 47t-221.5 122t-143 174.5t-80.5 199t-23.5 201.5q0 164 43.5 298.5t117 225t172.5 152t207.5 89t225.5 27.5q96 0 183 -13t178.5 -47.5t162.5 -88.5t128 -143.5
t84 -205.5h-230q-52 157 -170.5 233.5t-324.5 76.5q-140 0 -249.5 -47.5t-176 -129.5t-100 -185.5t-33.5 -223.5q0 -121 30 -218.5t82 -162.5t125 -109t155.5 -63.5t176.5 -19.5q234 0 381.5 124.5t165.5 323.5h-480zM516 1866h135q10 -72 67.5 -109t153.5 -37t154 37
t68 109h135q-7 -147 -107 -220t-250 -73t-249.5 73t-106.5 220z" />
    <glyph glyph-name="gbreve" unicode="&#x11f;" horiz-adv-x="1402" 
d="M1085 541q0 170 -106.5 277.5t-288.5 107.5q-185 0 -290 -107.5t-105 -277.5t105 -274.5t290 -104.5q183 0 289 105t106 274zM1085 915v158h205v-983q0 -288 -146.5 -414.5t-477.5 -126.5q-79 0 -142 6t-135 26.5t-122.5 55.5t-90 97.5t-51.5 148.5h205
q28 -99 113 -136.5t243 -37.5q204 0 301.5 90.5t97.5 233.5v155h-4q-139 -198 -415 -198q-89 0 -171.5 19t-159 62t-133 105.5t-90.5 157t-34 209.5q0 116 33.5 210.5t90 157.5t132.5 106t158.5 62t171.5 19q138 0 248.5 -46.5t168.5 -136.5h4zM360 1518h136
q10 -72 67.5 -109t153.5 -37t153.5 37t67.5 109h135q-7 -147 -106.5 -220t-249.5 -73t-250 73t-107 220z" />
    <glyph glyph-name="Gdotaccent" unicode="&#x120;" horiz-adv-x="1781" 
d="M958 600v188h672v-788h-155l-37 209q-42 -49 -86.5 -87t-112 -77t-160 -60.5t-202.5 -21.5q-169 0 -304.5 47t-221.5 122t-143 174.5t-80.5 199t-23.5 201.5q0 164 43.5 298.5t117 225t172.5 152t207.5 89t225.5 27.5q96 0 183 -13t178.5 -47.5t162.5 -88.5t128 -143.5
t84 -205.5h-230q-52 157 -170.5 233.5t-324.5 76.5q-140 0 -249.5 -47.5t-176 -129.5t-100 -185.5t-33.5 -223.5q0 -121 30 -218.5t82 -162.5t125 -109t155.5 -63.5t176.5 -19.5q234 0 381.5 124.5t165.5 323.5h-480zM786 1614v213h205v-213h-205z" />
    <glyph glyph-name="gdotaccent" unicode="&#x121;" horiz-adv-x="1402" 
d="M1085 541q0 170 -106.5 277.5t-288.5 107.5q-185 0 -290 -107.5t-105 -277.5t105 -274.5t290 -104.5q183 0 289 105t106 274zM1085 915v158h205v-983q0 -288 -146.5 -414.5t-477.5 -126.5q-79 0 -142 6t-135 26.5t-122.5 55.5t-90 97.5t-51.5 148.5h205
q28 -99 113 -136.5t243 -37.5q204 0 301.5 90.5t97.5 233.5v155h-4q-139 -198 -415 -198q-89 0 -171.5 19t-159 62t-133 105.5t-90.5 157t-34 209.5q0 116 33.5 210.5t90 157.5t132.5 106t158.5 62t171.5 19q138 0 248.5 -46.5t168.5 -136.5h4zM594 1266v213h205v-213h-205z
" />
    <glyph glyph-name="Gcommaaccent" unicode="&#x122;" horiz-adv-x="1781" 
d="M958 600v188h672v-788h-155l-37 209q-42 -49 -86.5 -87t-112 -77t-160 -60.5t-202.5 -21.5q-169 0 -304.5 47t-221.5 122t-143 174.5t-80.5 199t-23.5 201.5q0 164 43.5 298.5t117 225t172.5 152t207.5 89t225.5 27.5q96 0 183 -13t178.5 -47.5t162.5 -88.5t128 -143.5
t84 -205.5h-230q-52 157 -170.5 233.5t-324.5 76.5q-140 0 -249.5 -47.5t-176 -129.5t-100 -185.5t-33.5 -223.5q0 -121 30 -218.5t82 -162.5t125 -109t155.5 -63.5t176.5 -19.5q234 0 381.5 124.5t165.5 323.5h-480zM762 -281v179h205v-142q0 -170 -205 -170v66q38 6 59 21
t27 46h-86z" />
    <glyph glyph-name="gcommaaccent" unicode="&#x123;" horiz-adv-x="1402" 
d="M1085 541q0 170 -106.5 277.5t-288.5 107.5q-185 0 -290 -107.5t-105 -277.5t105 -274.5t290 -104.5q183 0 289 105t106 274zM1085 915v158h205v-983q0 -288 -146.5 -414.5t-477.5 -126.5q-79 0 -142 6t-135 26.5t-122.5 55.5t-90 97.5t-51.5 148.5h205
q28 -99 113 -136.5t243 -37.5q204 0 301.5 90.5t97.5 233.5v155h-4q-139 -198 -415 -198q-89 0 -171.5 19t-159 62t-133 105.5t-90.5 157t-34 209.5q0 116 33.5 210.5t90 157.5t132.5 106t158.5 62t171.5 19q138 0 248.5 -46.5t168.5 -136.5h4zM795 1475v-179h-205v142
q0 170 205 170v-66q-38 -6 -59 -21t-27 -46h86z" />
    <glyph glyph-name="Hcircumflex" unicode="&#x124;" horiz-adv-x="1744" 
d="M1370 0v688h-995v-688h-217v1462h217v-585h995v585h217v-1462h-217zM1042 1577l-176 180l-176 -180h-198l266 287h217l266 -287h-199z" />
    <glyph glyph-name="hcircumflex" unicode="&#x125;" horiz-adv-x="1329" 
d="M125 0v1475h205v-564h4q133 199 420 199q205 0 327.5 -93.5t122.5 -285.5v-731h-205v690q0 248 -317 248q-148 0 -250 -84.5t-102 -235.5v-618h-205zM848 1577l-176 180l-176 -180h-199l266 287h217l267 -287h-199z" />
    <glyph glyph-name="Hbar" unicode="&#x126;" horiz-adv-x="1744" 
d="M1370 0v668h-995v-668h-217v1462h217v-325h995v325h217v-1462h-217zM375 856h995v152h-995v-152z" />
    <glyph glyph-name="hbar" unicode="&#x127;" horiz-adv-x="1437" 
d="M29 1188v129h204v158h205v-158h332v-129h-332v-277h4q133 199 420 199q99 0 179.5 -22t142 -66.5t95.5 -118.5t34 -172v-731h-205v690q0 248 -317 248q-148 0 -250.5 -84.5t-102.5 -235.5v-618h-205v1188h-204z" />
    <glyph glyph-name="Itilde" unicode="&#x128;" horiz-adv-x="569" 
d="M176 0v1462h217v-1462h-217zM2 1595h-121q11 111 72.5 181.5t161.5 70.5q86 0 200 -49q98 -43 162 -43q38 0 61 20.5t33 71.5h121q-11 -111 -72 -181.5t-161 -70.5q-84 0 -201 50q-98 43 -162 43q-38 0 -61 -21t-33 -72z" />
    <glyph glyph-name="itilde" unicode="&#x129;" 
d="M125 0v1073h205v-1073h-205zM-53 1247h-121q11 111 72 181.5t161 70.5q87 0 201 -49q98 -43 162 -43q38 0 61 20.5t33 71.5h121q-11 -111 -72.5 -181.5t-161.5 -70.5q-86 0 -200 49q-98 43 -162 43q-38 0 -61 -20.5t-33 -71.5z" />
    <glyph glyph-name="Imacron" unicode="&#x12a;" horiz-adv-x="569" 
d="M176 0v1462h217v-1462h-217zM-119 1640v160h803v-160h-803z" />
    <glyph glyph-name="imacron" unicode="&#x12b;" 
d="M125 0v1073h205v-1073h-205zM-174 1292v160h803v-160h-803z" />
    <glyph glyph-name="Iogonek" unicode="&#x12e;" horiz-adv-x="569" 
d="M393 0h-22q-70 -40 -121 -105t-51 -131q0 -47 24 -69.5t64 -22.5q64 0 147 27l23 -72q-84 -41 -185 -41q-196 0 -196 166q0 46 21 89.5t53 74.5t63 52t59 32h-96v1462h217v-1462z" />
    <glyph glyph-name="iogonek" unicode="&#x12f;" 
d="M330 0h-2q-70 -40 -121 -105t-51 -131q0 -47 24 -69.5t64 -22.5q64 0 147 27l23 -72q-84 -41 -185 -41q-196 0 -196 166q0 46 21 89.5t53 74.5t63 52t59 32h-104v1073h205v-1073zM125 1249v226h205v-226h-205z" />
    <glyph glyph-name="Idotaccent" unicode="&#x130;" horiz-adv-x="569" 
d="M176 0v1462h217v-1462h-217zM184 1614v213h205v-213h-205z" />
    <glyph glyph-name="dotlessi" unicode="&#x131;" 
d="M125 0v1073h205v-1073h-205z" />
    <glyph glyph-name="Jcircumflex" unicode="&#x134;" horiz-adv-x="1175" 
d="M47 498h205v-70q0 -145 75 -219t214 -74q133 0 201.5 74.5t68.5 216.5v1036h217v-991q0 -508 -483 -508q-79 0 -145 12.5t-114 32.5t-86.5 52t-63 63t-42 74.5t-26.5 77t-14 80t-6 74.5t-1 69zM1087 1577l-176 180l-176 -180h-198l266 287h217l266 -287h-199z" />
    <glyph glyph-name="jcircumflex" unicode="&#x135;" 
d="M-106 -410v172q28 -4 38 -4h37q84 0 120 30.5t36 98.5v1186h205v-1139q0 -190 -74 -269t-266 -79q-26 0 -96 4zM406 1229l-177 180l-176 -180h-198l266 287h217l266 -287h-198z" />
    <glyph glyph-name="Kcommaaccent" unicode="&#x136;" horiz-adv-x="1554" 
d="M1247 0l-598 713l-266 -236v-477h-217v1462h217v-735l817 735h307l-694 -606l733 -856h-299zM690 -281v179h205v-142q0 -170 -205 -170v66q38 6 59 21t27 46h-86z" />
    <glyph glyph-name="kcommaaccent" unicode="&#x137;" horiz-adv-x="1214" 
d="M346 614l545 459h311l-504 -403l543 -670h-278l-428 537l-189 -150v-387h-205v1475h205v-861zM532 -281v179h205v-142q0 -170 -205 -170v66q38 6 59 21t27 46h-86z" />
    <glyph glyph-name="Lacute" unicode="&#x139;" horiz-adv-x="1290" 
d="M166 0v1462h217v-1274h889v-188h-1106zM190 1577l177 287h256l-269 -287h-164z" />
    <glyph glyph-name="lacute" unicode="&#x13a;" 
d="M125 0v1475h205v-1475h-205zM129 1577l176 287h256l-268 -287h-164z" />
    <glyph glyph-name="Lcommaaccent" unicode="&#x13b;" horiz-adv-x="1290" 
d="M166 0v1462h217v-1274h889v-188h-1106zM584 -281v179h204v-142q0 -170 -204 -170v66q38 6 59 21t27 46h-86z" />
    <glyph glyph-name="lcommaaccent" unicode="&#x13c;" 
d="M125 0v1475h205v-1475h-205zM131 -281v179h205v-142q0 -170 -205 -170v66q38 6 59 21t27 46h-86z" />
    <glyph glyph-name="Lcaron" unicode="&#x13d;" horiz-adv-x="1290" 
d="M166 0v1462h217v-1274h889v-188h-1106zM575 1188l60 287h227l-143 -287h-144z" />
    <glyph glyph-name="lcaron" unicode="&#x13e;" horiz-adv-x="606" 
d="M125 0v1475h205v-1475h-205zM434 1188l60 287h227l-143 -287h-144z" />
    <glyph glyph-name="Ldot" unicode="&#x13f;" horiz-adv-x="1290" 
d="M166 0v1462h217v-1274h889v-188h-1106zM618 860v213h205v-213h-205z" />
    <glyph glyph-name="ldot" unicode="&#x140;" horiz-adv-x="755" 
d="M125 0v1475h205v-1475h-205zM461 860v213h205v-213h-205z" />
    <glyph glyph-name="Lslash" unicode="&#x141;" horiz-adv-x="1290" 
d="M383 778l430 295v-172l-430 -295v-418h889v-188h-1106v459l-160 -111v172l160 111v831h217v-684z" />
    <glyph glyph-name="lslash" unicode="&#x142;" 
d="M330 889l112 86v-172l-112 -86v-717h-205v561l-113 -86v172l113 86v742h205v-586z" />
    <glyph glyph-name="Nacute" unicode="&#x143;" horiz-adv-x="1744" 
d="M1327 0l-940 1163h-4v-1163h-217v1462h252l940 -1163h4v1163h217v-1462h-252zM778 1577l176 287h256l-268 -287h-164z" />
    <glyph glyph-name="nacute" unicode="&#x144;" horiz-adv-x="1329" 
d="M125 0v1073h205v-162h4q133 199 420 199q205 0 327.5 -93.5t122.5 -285.5v-731h-205v690q0 248 -317 248q-148 0 -250 -84.5t-102 -235.5v-618h-205zM580 1229l176 287h256l-269 -287h-163z" />
    <glyph glyph-name="Ncommaaccent" unicode="&#x145;" horiz-adv-x="1744" 
d="M1327 0l-940 1163h-4v-1163h-217v1462h252l940 -1163h4v1163h217v-1462h-252zM764 -281v179h205v-142q0 -170 -205 -170v66q38 6 59 21t27 46h-86z" />
    <glyph glyph-name="ncommaaccent" unicode="&#x146;" horiz-adv-x="1329" 
d="M125 0v1073h205v-162h4q133 199 420 199q205 0 327.5 -93.5t122.5 -285.5v-731h-205v690q0 248 -317 248q-148 0 -250 -84.5t-102 -235.5v-618h-205zM567 -281v179h205v-142q0 -170 -205 -170v66q38 6 59 21t27 46h-86z" />
    <glyph glyph-name="Ncaron" unicode="&#x147;" horiz-adv-x="1744" 
d="M1327 0l-940 1163h-4v-1163h-217v1462h252l940 -1163h4v1163h217v-1462h-252zM870 1683l177 181h198l-266 -287h-217l-266 287h198z" />
    <glyph glyph-name="ncaron" unicode="&#x148;" horiz-adv-x="1329" 
d="M125 0v1073h205v-162h4q133 199 420 199q205 0 327.5 -93.5t122.5 -285.5v-731h-205v690q0 248 -317 248q-148 0 -250 -84.5t-102 -235.5v-618h-205zM672 1335l176 181h199l-267 -287h-217l-266 287h199z" />
    <glyph glyph-name="Omacron" unicode="&#x14c;" horiz-adv-x="1781" 
d="M1487 731q0 142 -46 253.5t-127 182t-188.5 107.5t-234.5 37t-234.5 -37t-188.5 -107.5t-127 -182t-46 -253.5q0 -141 46 -253t127 -182.5t188.5 -107t234.5 -36.5t234.5 36.5t188.5 107t127 182.5t46 253zM78 731q0 116 27.5 224t89.5 208t154 174t231.5 118t310.5 44
t310.5 -44t231.5 -118t154 -174t89.5 -208t27.5 -224t-27.5 -224t-89.5 -208t-154 -174t-231.5 -118t-310.5 -44t-310.5 44t-231.5 118t-154 174t-89.5 208t-27.5 224zM485 1640v160h803v-160h-803z" />
    <glyph glyph-name="omacron" unicode="&#x14d;" horiz-adv-x="1400" 
d="M1106 537q0 77 -22.5 145.5t-68.5 127.5t-127 93.5t-188 34.5q-86 0 -156 -23t-115.5 -61.5t-76 -91t-44 -108.5t-13.5 -117q0 -77 22.5 -146t68 -127.5t126.5 -93.5t188 -35t188 35t127 93.5t68.5 127.5t22.5 146zM78 537q0 118 39 220.5t114.5 181.5t196 125t272.5 46
t273 -46t196 -125t114.5 -181.5t39.5 -220.5t-39.5 -220.5t-114.5 -182t-196 -125.5t-273 -46t-272.5 46t-196 125.5t-114.5 182t-39 220.5zM297 1292v160h803v-160h-803z" />
    <glyph glyph-name="Obreve" unicode="&#x14e;" horiz-adv-x="1781" 
d="M1487 731q0 142 -46 253.5t-127 182t-188.5 107.5t-234.5 37t-234.5 -37t-188.5 -107.5t-127 -182t-46 -253.5q0 -141 46 -253t127 -182.5t188.5 -107t234.5 -36.5t234.5 36.5t188.5 107t127 182.5t46 253zM78 731q0 116 27.5 224t89.5 208t154 174t231.5 118t310.5 44
t310.5 -44t231.5 -118t154 -174t89.5 -208t27.5 -224t-27.5 -224t-89.5 -208t-154 -174t-231.5 -118t-310.5 -44t-310.5 44t-231.5 118t-154 174t-89.5 208t-27.5 224zM537 1866h135q10 -72 67.5 -109t153.5 -37t153.5 37t67.5 109h135q-7 -147 -106.5 -220t-249.5 -73
t-249.5 73t-106.5 220z" />
    <glyph glyph-name="obreve" unicode="&#x14f;" horiz-adv-x="1400" 
d="M1106 537q0 77 -22.5 145.5t-68.5 127.5t-127 93.5t-188 34.5q-86 0 -156 -23t-115.5 -61.5t-76 -91t-44 -108.5t-13.5 -117q0 -77 22.5 -146t68 -127.5t126.5 -93.5t188 -35t188 35t127 93.5t68.5 127.5t22.5 146zM78 537q0 118 39 220.5t114.5 181.5t196 125t272.5 46
t273 -46t196 -125t114.5 -181.5t39.5 -220.5t-39.5 -220.5t-114.5 -182t-196 -125.5t-273 -46t-272.5 46t-196 125.5t-114.5 182t-39 220.5zM348 1518h135q10 -72 68 -109t154 -37t153.5 37t67.5 109h135q-7 -147 -106.5 -220t-249.5 -73t-250 73t-107 220z" />
    <glyph glyph-name="Ohungarumlaut" unicode="&#x150;" horiz-adv-x="1781" 
d="M1487 731q0 142 -46 253.5t-127 182t-188.5 107.5t-234.5 37t-234.5 -37t-188.5 -107.5t-127 -182t-46 -253.5q0 -141 46 -253t127 -182.5t188.5 -107t234.5 -36.5t234.5 36.5t188.5 107t127 182.5t46 253zM78 731q0 116 27.5 224t89.5 208t154 174t231.5 118t310.5 44
t310.5 -44t231.5 -118t154 -174t89.5 -208t27.5 -224t-27.5 -224t-89.5 -208t-154 -174t-231.5 -118t-310.5 -44t-310.5 44t-231.5 118t-154 174t-89.5 208t-27.5 224zM543 1577l176 287h256l-268 -287h-164zM1034 1577l176 287h256l-268 -287h-164z" />
    <glyph glyph-name="ohungarumlaut" unicode="&#x151;" horiz-adv-x="1400" 
d="M1106 537q0 77 -22.5 145.5t-68.5 127.5t-127 93.5t-188 34.5q-86 0 -156 -23t-115.5 -61.5t-76 -91t-44 -108.5t-13.5 -117q0 -77 22.5 -146t68 -127.5t126.5 -93.5t188 -35t188 35t127 93.5t68.5 127.5t22.5 146zM78 537q0 118 39 220.5t114.5 181.5t196 125t272.5 46
t273 -46t196 -125t114.5 -181.5t39.5 -220.5t-39.5 -220.5t-114.5 -182t-196 -125.5t-273 -46t-272.5 46t-196 125.5t-114.5 182t-39 220.5zM367 1229l176 287h256l-269 -287h-163zM858 1229l176 287h256l-268 -287h-164z" />
    <glyph glyph-name="OE" unicode="&#x152;" horiz-adv-x="2390" 
d="M1237 0v166h-4q-155 -203 -445 -203q-135 0 -249 44.5t-193 119t-134.5 174t-81.5 208.5t-26 222t26 222t81.5 208.5t134.5 174t193 119t249 44.5q147 0 261.5 -46.5t187.5 -133.5v143h1049v-188h-850v-424h821v-188h-821v-474h866v-188h-1065zM1231 461v569
q0 38 -28.5 85t-78.5 91.5t-132 74.5t-177 30q-69 0 -134 -15.5t-132 -57t-116 -104.5t-80 -167t-31 -236q0 -111 21.5 -202t59 -152.5t85 -106.5t104.5 -70t111.5 -36.5t111.5 -11.5q86 0 166 31.5t133.5 78.5t85 100.5t31.5 98.5z" />
    <glyph glyph-name="oe" unicode="&#x153;" horiz-adv-x="2275" 
d="M1260 635h737q-24 144 -125.5 223.5t-249.5 79.5q-144 0 -241.5 -79t-120.5 -224zM1067 547q0 182 -110 286.5t-273 104.5q-186 0 -287.5 -112.5t-101.5 -290.5q0 -175 105.5 -287.5t275.5 -112.5q97 0 173.5 33t123 90.5t70.5 130.5t24 158zM2214 475h-954
q6 -93 40 -161.5t87 -106t111.5 -55t123.5 -17.5q48 0 94 8.5t95 28.5t90 59.5t67 94.5h217q-50 -123 -142.5 -207t-195.5 -120t-215 -36q-160 0 -278 49.5t-201 163.5q-162 -213 -471 -213q-155 0 -273.5 45.5t-189 125.5t-106 181.5t-35.5 221.5q0 175 81 307t217 199
t306 67q317 0 485 -221q173 221 467 221q181 0 313.5 -78.5t199.5 -215t67 -314.5v-27z" />
    <glyph glyph-name="Racute" unicode="&#x154;" horiz-adv-x="1554" 
d="M383 809h606q76 0 130.5 21t82 56.5t39.5 73t12 80.5q0 108 -65.5 171t-192.5 63h-612v-465zM166 0v1462h905q105 0 185 -34t125 -91.5t67 -124t22 -139.5q0 -136 -62.5 -229t-182.5 -131v-4q96 -13 151.5 -96.5t61.5 -215.5q8 -204 21 -281t48 -116h-229q-32 37 -42 231
q-2 31 -3 48q-12 191 -78 266.5t-205 75.5h-567v-621h-217zM655 1577l176 287h256l-268 -287h-164z" />
    <glyph glyph-name="racute" unicode="&#x155;" horiz-adv-x="833" 
d="M125 0v1073h205v-196h4q132 233 368 233q70 0 117 -12v-221q-73 20 -145 20q-156 0 -250 -91.5t-94 -260.5v-545h-205zM166 1229l176 287h256l-268 -287h-164z" />
    <glyph glyph-name="Rcommaaccent" unicode="&#x156;" horiz-adv-x="1554" 
d="M383 809h606q76 0 130.5 21t82 56.5t39.5 73t12 80.5q0 108 -65.5 171t-192.5 63h-612v-465zM166 0v1462h905q105 0 185 -34t125 -91.5t67 -124t22 -139.5q0 -136 -62.5 -229t-182.5 -131v-4q96 -13 151.5 -96.5t61.5 -215.5q8 -204 21 -281t48 -116h-229q-32 37 -42 231
q-2 31 -3 48q-12 191 -78 266.5t-205 75.5h-567v-621h-217zM709 -281v179h204v-142q0 -170 -204 -170v66q38 6 59 21t27 46h-86z" />
    <glyph glyph-name="rcommaaccent" unicode="&#x157;" horiz-adv-x="833" 
d="M125 0v1073h205v-196h4q132 233 368 233q70 0 117 -12v-221q-73 20 -145 20q-156 0 -250 -91.5t-94 -260.5v-545h-205zM129 -281v179h205v-142q0 -170 -205 -170v66q38 6 59 21t27 46h-86z" />
    <glyph glyph-name="Rcaron" unicode="&#x158;" horiz-adv-x="1554" 
d="M383 809h606q76 0 130.5 21t82 56.5t39.5 73t12 80.5q0 108 -65.5 171t-192.5 63h-612v-465zM166 0v1462h905q105 0 185 -34t125 -91.5t67 -124t22 -139.5q0 -136 -62.5 -229t-182.5 -131v-4q96 -13 151.5 -96.5t61.5 -215.5q8 -204 21 -281t48 -116h-229q-32 37 -42 231
q-2 31 -3 48q-12 191 -78 266.5t-205 75.5h-567v-621h-217zM758 1683l176 181h199l-267 -287h-217l-266 287h199z" />
    <glyph glyph-name="rcaron" unicode="&#x159;" horiz-adv-x="833" 
d="M125 0v1073h205v-196h4q132 233 368 233q70 0 117 -12v-221q-73 20 -145 20q-156 0 -250 -91.5t-94 -260.5v-545h-205zM469 1335l176 181h199l-266 -287h-218l-266 287h199z" />
    <glyph glyph-name="Sacute" unicode="&#x15a;" horiz-adv-x="1366" 
d="M33 481h217q2 -76 30.5 -134.5t73.5 -94.5t107.5 -59t125.5 -32t134 -9q176 0 285.5 65.5t109.5 181.5q0 95 -67.5 143.5t-204.5 73.5l-332 56q-62 10 -113 23t-114 42t-105.5 68t-72 103.5t-29.5 146.5q0 204 154.5 324t431.5 120q93 0 176 -13.5t163 -47t139.5 -84.5
t98 -131.5t45.5 -182.5h-217q-38 271 -434 271q-62 0 -120 -14t-108.5 -41.5t-81 -75t-30.5 -109.5q0 -151 240 -192l358 -62q139 -28 209 -57q230 -98 231 -318q0 -107 -37.5 -191.5t-98 -137.5t-144.5 -87.5t-169 -48.5t-179 -14q-104 0 -197 15t-181.5 52.5t-152.5 94.5
t-102.5 148.5t-38.5 207.5zM586 1577l176 287h256l-268 -287h-164z" />
    <glyph glyph-name="sacute" unicode="&#x15b;" horiz-adv-x="1214" 
d="M63 338h205q0 -39 17 -74.5t53.5 -68.5t105.5 -52.5t162 -19.5q94 0 161 15t102 41t50 53.5t15 58.5q0 60 -42.5 93.5t-160.5 49.5l-338 45q-126 19 -208.5 92.5t-82.5 192.5q0 163 130.5 254.5t359.5 91.5q252 0 381.5 -97.5t142.5 -262.5h-205q-5 87 -87 143.5
t-234 56.5q-72 0 -132.5 -14t-105.5 -52.5t-45 -97.5q0 -58 37.5 -89t140.5 -44l291 -39q198 -29 286.5 -98.5t88.5 -185.5q0 -183 -143 -275t-396 -92q-521 0 -549 375zM528 1229l177 287h256l-269 -287h-164z" />
    <glyph glyph-name="Scircumflex" unicode="&#x15c;" horiz-adv-x="1366" 
d="M33 481h217q2 -76 30.5 -134.5t73.5 -94.5t107.5 -59t125.5 -32t134 -9q176 0 285.5 65.5t109.5 181.5q0 95 -67.5 143.5t-204.5 73.5l-332 56q-62 10 -113 23t-114 42t-105.5 68t-72 103.5t-29.5 146.5q0 204 154.5 324t431.5 120q93 0 176 -13.5t163 -47t139.5 -84.5
t98 -131.5t45.5 -182.5h-217q-38 271 -434 271q-62 0 -120 -14t-108.5 -41.5t-81 -75t-30.5 -109.5q0 -151 240 -192l358 -62q139 -28 209 -57q230 -98 231 -318q0 -107 -37.5 -191.5t-98 -137.5t-144.5 -87.5t-169 -48.5t-179 -14q-104 0 -197 15t-181.5 52.5t-152.5 94.5
t-102.5 148.5t-38.5 207.5zM881 1577l-176 180l-177 -180h-198l266 287h217l266 -287h-198z" />
    <glyph glyph-name="scircumflex" unicode="&#x15d;" horiz-adv-x="1214" 
d="M63 338h205q0 -39 17 -74.5t53.5 -68.5t105.5 -52.5t162 -19.5q94 0 161 15t102 41t50 53.5t15 58.5q0 60 -42.5 93.5t-160.5 49.5l-338 45q-126 19 -208.5 92.5t-82.5 192.5q0 163 130.5 254.5t359.5 91.5q252 0 381.5 -97.5t142.5 -262.5h-205q-5 87 -87 143.5
t-234 56.5q-72 0 -132.5 -14t-105.5 -52.5t-45 -97.5q0 -58 37.5 -89t140.5 -44l291 -39q198 -29 286.5 -98.5t88.5 -185.5q0 -183 -143 -275t-396 -92q-521 0 -549 375zM801 1229l-176 180l-176 -180h-199l266 287h217l266 -287h-198z" />
    <glyph glyph-name="Scedilla" unicode="&#x15e;" horiz-adv-x="1366" 
d="M530 -207l-36 39l84 137q-49 5 -117 19q-93 19 -168 56.5t-134.5 96t-92.5 145t-33 195.5h217q2 -76 30.5 -134.5t73.5 -94.5t107.5 -59t125.5 -32t134 -9q176 0 285.5 65.5t109.5 181.5q0 95 -67.5 143.5t-204.5 73.5l-332 56q-62 10 -113 23t-114 42t-105.5 68
t-72 103.5t-29.5 146.5q0 204 154.5 324t431.5 120q93 0 176 -13.5t163 -47t139.5 -84.5t98 -131.5t45.5 -182.5h-217q-38 271 -434 271q-62 0 -120 -14t-108.5 -41.5t-81 -75t-30.5 -109.5q0 -151 240 -192l358 -62q139 -28 209 -57q230 -98 231 -318q0 -107 -37.5 -191.5
t-98 -137.5t-144.5 -87.5t-169 -48.5t-179 -14h-27l-47 -78q34 9 69 9q78 0 130.5 -34.5t52.5 -99.5q0 -60 -38.5 -101t-91.5 -57t-116 -16q-98 0 -217 29l26 96q65 -26 154 -26q46 0 78.5 17t32.5 46q0 23 -21.5 41t-64.5 18q-41 0 -95 -14z" />
    <glyph glyph-name="Scedilla" unicode="&#xf6c1;" horiz-adv-x="1366" 
d="M530 -207l-36 39l84 137q-49 5 -117 19q-93 19 -168 56.5t-134.5 96t-92.5 145t-33 195.5h217q2 -76 30.5 -134.5t73.5 -94.5t107.5 -59t125.5 -32t134 -9q176 0 285.5 65.5t109.5 181.5q0 95 -67.5 143.5t-204.5 73.5l-332 56q-62 10 -113 23t-114 42t-105.5 68
t-72 103.5t-29.5 146.5q0 204 154.5 324t431.5 120q93 0 176 -13.5t163 -47t139.5 -84.5t98 -131.5t45.5 -182.5h-217q-38 271 -434 271q-62 0 -120 -14t-108.5 -41.5t-81 -75t-30.5 -109.5q0 -151 240 -192l358 -62q139 -28 209 -57q230 -98 231 -318q0 -107 -37.5 -191.5
t-98 -137.5t-144.5 -87.5t-169 -48.5t-179 -14h-27l-47 -78q34 9 69 9q78 0 130.5 -34.5t52.5 -99.5q0 -60 -38.5 -101t-91.5 -57t-116 -16q-98 0 -217 29l26 96q65 -26 154 -26q46 0 78.5 17t32.5 46q0 23 -21.5 41t-64.5 18q-41 0 -95 -14z" />
    <glyph glyph-name="scedilla" unicode="&#x15f;" horiz-adv-x="1214" 
d="M475 -207l-37 39l82 135q-33 2 -94 10q-72 11 -132.5 37t-111.5 68t-82 107.5t-37 148.5h205q0 -39 17 -74.5t53.5 -68.5t105.5 -52.5t162 -19.5q94 0 161 15t102 41t50 53.5t15 58.5q0 60 -42.5 93.5t-160.5 49.5l-338 45q-126 19 -208.5 92.5t-82.5 192.5
q0 163 130.5 254.5t359.5 91.5q252 0 381.5 -97.5t142.5 -262.5h-205q-5 87 -87 143.5t-234 56.5q-72 0 -132.5 -14t-105.5 -52.5t-45 -97.5q0 -58 37.5 -89t140.5 -44l291 -39q198 -29 286.5 -98.5t88.5 -185.5q0 -273 -317 -344q-89 -20 -211 -23l-48 -78q35 9 70 9
q78 0 130 -34.5t52 -99.5q0 -60 -38 -101t-91 -57t-116 -16q-98 0 -217 29l26 96q65 -26 154 -26q45 0 77.5 17t32.5 46q0 23 -21.5 41t-64.5 18q-40 0 -94 -14z" />
    <glyph glyph-name="scedilla" unicode="&#xf6c2;" horiz-adv-x="1214" 
d="M475 -207l-37 39l82 135q-33 2 -94 10q-72 11 -132.5 37t-111.5 68t-82 107.5t-37 148.5h205q0 -39 17 -74.5t53.5 -68.5t105.5 -52.5t162 -19.5q94 0 161 15t102 41t50 53.5t15 58.5q0 60 -42.5 93.5t-160.5 49.5l-338 45q-126 19 -208.5 92.5t-82.5 192.5
q0 163 130.5 254.5t359.5 91.5q252 0 381.5 -97.5t142.5 -262.5h-205q-5 87 -87 143.5t-234 56.5q-72 0 -132.5 -14t-105.5 -52.5t-45 -97.5q0 -58 37.5 -89t140.5 -44l291 -39q198 -29 286.5 -98.5t88.5 -185.5q0 -273 -317 -344q-89 -20 -211 -23l-48 -78q35 9 70 9
q78 0 130 -34.5t52 -99.5q0 -60 -38 -101t-91 -57t-116 -16q-98 0 -217 29l26 96q65 -26 154 -26q45 0 77.5 17t32.5 46q0 23 -21.5 41t-64.5 18q-40 0 -94 -14z" />
    <glyph glyph-name="Scaron" unicode="&#x160;" horiz-adv-x="1366" 
d="M33 481h217q2 -76 30.5 -134.5t73.5 -94.5t107.5 -59t125.5 -32t134 -9q176 0 285.5 65.5t109.5 181.5q0 95 -67.5 143.5t-204.5 73.5l-332 56q-62 10 -113 23t-114 42t-105.5 68t-72 103.5t-29.5 146.5q0 204 154.5 324t431.5 120q93 0 176 -13.5t163 -47t139.5 -84.5
t98 -131.5t45.5 -182.5h-217q-38 271 -434 271q-62 0 -120 -14t-108.5 -41.5t-81 -75t-30.5 -109.5q0 -151 240 -192l358 -62q139 -28 209 -57q230 -98 231 -318q0 -107 -37.5 -191.5t-98 -137.5t-144.5 -87.5t-169 -48.5t-179 -14q-104 0 -197 15t-181.5 52.5t-152.5 94.5
t-102.5 148.5t-38.5 207.5zM700 1683l177 181h198l-266 -287h-217l-266 287h198z" />
    <glyph glyph-name="scaron" unicode="&#x161;" horiz-adv-x="1214" 
d="M63 338h205q0 -39 17 -74.5t53.5 -68.5t105.5 -52.5t162 -19.5q94 0 161 15t102 41t50 53.5t15 58.5q0 60 -42.5 93.5t-160.5 49.5l-338 45q-126 19 -208.5 92.5t-82.5 192.5q0 163 130.5 254.5t359.5 91.5q252 0 381.5 -97.5t142.5 -262.5h-205q-5 87 -87 143.5
t-234 56.5q-72 0 -132.5 -14t-105.5 -52.5t-45 -97.5q0 -58 37.5 -89t140.5 -44l291 -39q198 -29 286.5 -98.5t88.5 -185.5q0 -183 -143 -275t-396 -92q-521 0 -549 375zM616 1335l177 181h198l-266 -287h-217l-266 287h198z" />
    <glyph glyph-name="Tcommaaccent" unicode="&#x162;" horiz-adv-x="1327" 
d="M555 0v1274h-553v188h1323v-188h-553v-1274h-217zM563 -281v179h205v-142q0 -170 -205 -170v66q38 6 59 21t27 46h-86z" />
    <glyph glyph-name="tcommaaccent" unicode="&#x163;" horiz-adv-x="757" 
d="M215 1073v330h205v-330h307v-160h-307v-661q0 -63 42 -90t124 -27q53 0 141 15v-173q-72 -14 -229 -14q-283 0 -283 254v696h-221v160h221zM356 -281v179h205v-142q0 -170 -205 -170v66q38 6 59 21t27 46h-86z" />
    <glyph glyph-name="Tcaron" unicode="&#x164;" horiz-adv-x="1327" 
d="M555 0v1274h-553v188h1323v-188h-553v-1274h-217zM668 1683l176 181h198l-266 -287h-217l-266 287h199z" />
    <glyph glyph-name="tcaron" unicode="&#x165;" horiz-adv-x="847" 
d="M668 1188l59 287h227l-143 -287h-143zM215 1073v330h205v-330h307v-160h-307v-661q0 -63 42 -90t124 -27q53 0 141 15v-173q-72 -14 -229 -14q-283 0 -283 254v696h-221v160h221z" />
    <glyph glyph-name="Tbar" unicode="&#x166;" horiz-adv-x="1327" 
d="M264 766v160h291v348h-553v188h1323v-188h-553v-348h295v-160h-295v-766h-217v766h-291z" />
    <glyph glyph-name="tbar" unicode="&#x167;" horiz-adv-x="757" 
d="M-27 555v129h242v229h-221v160h221v330h205v-330h307v-160h-307v-229h330v-129h-330v-303q0 -63 42 -90t124 -27q53 0 141 15v-173q-72 -14 -229 -14q-283 0 -283 254v338h-242z" />
    <glyph glyph-name="Utilde" unicode="&#x168;" horiz-adv-x="1630" 
d="M154 553v909h217v-936q0 -191 117 -282.5t327 -91.5t327.5 91.5t117.5 282.5v936h217v-909q0 -590 -662 -590q-661 0 -661 590zM524 1595h-121q11 111 72.5 181.5t161.5 70.5q87 0 201 -49q98 -43 161 -43q38 0 61.5 20.5t33.5 71.5h120q-11 -111 -72 -181.5t-161 -70.5
q-84 0 -201 50q-98 43 -162 43q-38 0 -61 -21t-33 -72z" />
    <glyph glyph-name="utilde" unicode="&#x169;" horiz-adv-x="1329" 
d="M1204 1073v-1073h-205v162h-4q-133 -199 -420 -199q-205 0 -327.5 93.5t-122.5 285.5v731h205v-690q0 -248 317 -248q148 0 250 84.5t102 235.5v618h205zM373 1247h-121q11 111 72 181.5t161 70.5q87 0 201 -49q98 -43 162 -43q38 0 61 20.5t33 71.5h121
q-11 -111 -72.5 -181.5t-161.5 -70.5q-86 0 -200 49q-98 43 -162 43q-38 0 -61 -20.5t-33 -71.5z" />
    <glyph glyph-name="Umacron" unicode="&#x16a;" horiz-adv-x="1630" 
d="M154 553v909h217v-936q0 -191 117 -282.5t327 -91.5t327.5 91.5t117.5 282.5v936h217v-909q0 -590 -662 -590q-661 0 -661 590zM410 1640v160h802v-160h-802z" />
    <glyph glyph-name="umacron" unicode="&#x16b;" horiz-adv-x="1329" 
d="M1204 1073v-1073h-205v162h-4q-133 -199 -420 -199q-205 0 -327.5 93.5t-122.5 285.5v731h205v-690q0 -248 317 -248q148 0 250 84.5t102 235.5v618h205zM262 1292v160h803v-160h-803z" />
    <glyph glyph-name="Ubreve" unicode="&#x16c;" horiz-adv-x="1630" 
d="M154 553v909h217v-936q0 -191 117 -282.5t327 -91.5t327.5 91.5t117.5 282.5v936h217v-909q0 -590 -662 -590q-661 0 -661 590zM453 1866h135q10 -72 67.5 -109t153.5 -37t153.5 37t67.5 109h135q-7 -147 -106.5 -220t-249.5 -73t-249.5 73t-106.5 220z" />
    <glyph glyph-name="ubreve" unicode="&#x16d;" horiz-adv-x="1329" 
d="M1204 1073v-1073h-205v162h-4q-133 -199 -420 -199q-205 0 -327.5 93.5t-122.5 285.5v731h205v-690q0 -248 317 -248q148 0 250 84.5t102 235.5v618h205zM305 1518h135q10 -72 68 -109t154 -37t153.5 37t67.5 109h135q-7 -147 -106.5 -220t-249.5 -73t-250 73t-107 220z
" />
    <glyph glyph-name="Uring" unicode="&#x16e;" horiz-adv-x="1630" 
d="M154 553v909h217v-936q0 -191 117 -282.5t327 -91.5t327.5 91.5t117.5 282.5v936h217v-909q0 -590 -662 -590q-661 0 -661 590zM940 1782q0 51 -39 90t-90 39t-90 -39t-39 -90t39 -90t90 -39t90 39t39 90zM571 1782q0 100 70 169.5t170 69.5t170 -69.5t70 -169.5
t-70 -170t-170 -70q-104 0 -172 69.5t-68 170.5z" />
    <glyph glyph-name="uring" unicode="&#x16f;" horiz-adv-x="1329" 
d="M1204 1073v-1073h-205v162h-4q-133 -199 -420 -199q-205 0 -327.5 93.5t-122.5 285.5v731h205v-690q0 -248 317 -248q148 0 250 84.5t102 235.5v618h205zM788 1434q0 51 -39 90t-90 39t-90 -39t-39 -90t39 -90t90 -39t90 39t39 90zM420 1434q0 100 69.5 169.5t169.5 69.5
t170 -69.5t70 -169.5t-70 -170t-170 -70q-104 0 -171.5 69.5t-67.5 170.5z" />
    <glyph glyph-name="Uhungarumlaut" unicode="&#x170;" horiz-adv-x="1630" 
d="M154 553v909h217v-936q0 -191 117 -282.5t327 -91.5t327.5 91.5t117.5 282.5v936h217v-909q0 -590 -662 -590q-661 0 -661 590zM471 1577l176 287h256l-268 -287h-164zM963 1577l176 287h256l-269 -287h-163z" />
    <glyph glyph-name="uhungarumlaut" unicode="&#x171;" horiz-adv-x="1329" 
d="M1204 1073v-1073h-205v162h-4q-133 -199 -420 -199q-205 0 -327.5 93.5t-122.5 285.5v731h205v-690q0 -248 317 -248q148 0 250 84.5t102 235.5v618h205zM330 1229l176 287h256l-268 -287h-164zM821 1229l176 287h256l-268 -287h-164z" />
    <glyph glyph-name="Uogonek" unicode="&#x172;" horiz-adv-x="1630" 
d="M154 553v909h217v-936q0 -191 117 -282.5t327 -91.5t327.5 91.5t117.5 282.5v936h217v-909q0 -564 -605 -588l-10 -8q-54 -40 -87.5 -91.5t-33.5 -101.5q0 -47 27.5 -69.5t71.5 -22.5q71 0 164 27l24 -72q-91 -41 -205 -41q-217 0 -217 166q0 84 80 164q34 31 64 49
q-596 27 -596 588z" />
    <glyph glyph-name="uogonek" unicode="&#x173;" horiz-adv-x="1329" 
d="M1204 0h-98q-77 -40 -131.5 -104t-54.5 -132q0 -47 26.5 -69.5t67.5 -22.5q74 0 160 27l24 -72q-91 -41 -199 -41q-211 0 -211 166q0 46 22 89t56.5 74t68 52t64.5 33v162h-4q-133 -199 -420 -199q-205 0 -327.5 93.5t-122.5 285.5v731h205v-690q0 -248 317 -248
q148 0 250 84.5t102 235.5v618h205v-1073z" />
    <glyph glyph-name="Wcircumflex" unicode="&#x174;" horiz-adv-x="2238" 
d="M1520 0l-406 1212h-4l-403 -1212h-240l-481 1462h235l375 -1188h4l391 1188h258l402 -1188h4l373 1188h225l-496 -1462h-237zM1298 1577l-176 180l-176 -180h-198l266 287h217l266 -287h-199z" />
    <glyph glyph-name="wcircumflex" unicode="&#x175;" horiz-adv-x="1857" 
d="M1315 254l307 819h217l-424 -1073h-223l-268 819h-4l-269 -819h-217l-416 1073h228l297 -819h4l266 819h225l273 -819h4zM1110 1229l-176 180l-176 -180h-199l266 287h217l267 -287h-199z" />
    <glyph glyph-name="Ycircumflex" unicode="&#x176;" horiz-adv-x="1478" 
d="M741 797l486 665h264l-645 -850v-612h-217v602l-641 860h276zM928 1577l-176 180l-177 -180h-198l266 287h217l266 -287h-198z" />
    <glyph glyph-name="ycircumflex" unicode="&#x177;" horiz-adv-x="1175" 
d="M594 225l362 848h230l-561 -1257q-39 -87 -74.5 -138.5t-80.5 -80.5t-93.5 -38.5t-124.5 -9.5q-74 0 -156 9v172q13 -1 52 -5t67 -4q93 0 133 30t90 134l47 99l-495 1089h235zM770 1229l-176 180l-176 -180h-199l266 287h217l267 -287h-199z" />
    <glyph glyph-name="Ydieresis" unicode="&#x178;" horiz-adv-x="1478" 
d="M741 797l486 665h264l-645 -850v-612h-217v602l-641 860h276zM885 1614v213h205v-213h-205zM393 1614v213h205v-213h-205z" />
    <glyph glyph-name="Zacute" unicode="&#x179;" horiz-adv-x="1402" 
d="M29 0v195l1044 1079h-971v188h1256v-188l-1049 -1086h1065v-188h-1345zM623 1577l176 287h256l-269 -287h-163z" />
    <glyph glyph-name="zacute" unicode="&#x17a;" horiz-adv-x="1214" 
d="M55 0v168l791 733h-752v172h1034v-160l-800 -741h831v-172h-1104zM532 1229l177 287h256l-269 -287h-164z" />
    <glyph glyph-name="Zdotaccent" unicode="&#x17b;" horiz-adv-x="1402" 
d="M29 0v195l1044 1079h-971v188h1256v-188l-1049 -1086h1065v-188h-1345zM623 1614v213h204v-213h-204z" />
    <glyph glyph-name="zdotaccent" unicode="&#x17c;" horiz-adv-x="1214" 
d="M55 0v168l791 733h-752v172h1034v-160l-800 -741h831v-172h-1104zM508 1266v213h205v-213h-205z" />
    <glyph glyph-name="Zcaron" unicode="&#x17d;" horiz-adv-x="1402" 
d="M29 0v195l1044 1079h-971v188h1256v-188l-1049 -1086h1065v-188h-1345zM729 1683l176 181h199l-266 -287h-217l-267 287h199z" />
    <glyph glyph-name="zcaron" unicode="&#x17e;" horiz-adv-x="1214" 
d="M55 0v168l791 733h-752v172h1034v-160l-800 -741h831v-172h-1104zM627 1335l176 181h198l-266 -287h-217l-266 287h199z" />
    <glyph glyph-name="florin" unicode="&#x192;" horiz-adv-x="1368" 
d="M547 780l74 357q18 92 50.5 155.5t79 98t98 49t116.5 14.5q32 0 66 -2.5t79 -7t66 -6.5l-35 -168q-96 12 -140 12q-55 0 -88.5 -15.5t-59.5 -62t-42 -131.5l-59 -293h280l-28 -123h-279l-152 -774q-26 -133 -119 -208.5t-249 -75.5q-85 0 -187 20l35 164q91 -25 131 -25
q38 0 66 7.5t55 29t46.5 64.5t31.5 108l137 690h-270l24 123h273z" />
    <glyph glyph-name="Scommaaccent" unicode="&#x218;" horiz-adv-x="1366" 
d="M33 481h217q2 -76 30.5 -134.5t73.5 -94.5t107.5 -59t125.5 -32t134 -9q176 0 285.5 65.5t109.5 181.5q0 95 -67.5 143.5t-204.5 73.5l-332 56q-62 10 -113 23t-114 42t-105.5 68t-72 103.5t-29.5 146.5q0 204 154.5 324t431.5 120q93 0 176 -13.5t163 -47t139.5 -84.5
t98 -131.5t45.5 -182.5h-217q-38 271 -434 271q-62 0 -120 -14t-108.5 -41.5t-81 -75t-30.5 -109.5q0 -151 240 -192l358 -62q139 -28 209 -57q230 -98 231 -318q0 -107 -37.5 -191.5t-98 -137.5t-144.5 -87.5t-169 -48.5t-179 -14q-104 0 -197 15t-181.5 52.5t-152.5 94.5
t-102.5 148.5t-38.5 207.5zM580 -281v179h204v-142q0 -170 -204 -170v66q38 6 59 21t27 46h-86z" />
    <glyph glyph-name="scommaaccent" unicode="&#x219;" horiz-adv-x="1214" 
d="M63 338h205q0 -39 17 -74.5t53.5 -68.5t105.5 -52.5t162 -19.5q94 0 161 15t102 41t50 53.5t15 58.5q0 60 -42.5 93.5t-160.5 49.5l-338 45q-126 19 -208.5 92.5t-82.5 192.5q0 163 130.5 254.5t359.5 91.5q252 0 381.5 -97.5t142.5 -262.5h-205q-5 87 -87 143.5
t-234 56.5q-72 0 -132.5 -14t-105.5 -52.5t-45 -97.5q0 -58 37.5 -89t140.5 -44l291 -39q198 -29 286.5 -98.5t88.5 -185.5q0 -183 -143 -275t-396 -92q-521 0 -549 375zM504 -281v179h205v-142q0 -170 -205 -170v66q38 6 59 21t27 46h-86z" />
    <glyph glyph-name="uni021A" unicode="&#x21a;" horiz-adv-x="1327" 
d="M555 0v1274h-553v188h1323v-188h-553v-1274h-217zM563 -281v179h205v-142q0 -170 -205 -170v66q38 6 59 21t27 46h-86z" />
    <glyph glyph-name="uni021B" unicode="&#x21b;" horiz-adv-x="757" 
d="M215 1073v330h205v-330h307v-160h-307v-661q0 -63 42 -90t124 -27q53 0 141 15v-173q-72 -14 -229 -14q-283 0 -283 254v696h-221v160h221zM356 -281v179h205v-142q0 -170 -205 -170v66q38 6 59 21t27 46h-86z" />
    <glyph glyph-name="circumflex" unicode="&#x2c6;" 
d="M403 1229l-176 180l-176 -180h-198l266 287h217l266 -287h-199z" />
    <glyph glyph-name="caron" unicode="&#x2c7;" 
d="M227 1335l176 181h199l-266 -287h-217l-266 287h198z" />
    <glyph glyph-name="uni02C9" unicode="&#x2c9;" 
d="M-174 1292v160h803v-160h-803z" />
    <glyph glyph-name="breve" unicode="&#x2d8;" 
d="M-129 1518h135q10 -72 67.5 -109t153.5 -37t154 37t68 109h135q-7 -147 -107 -220t-250 -73t-249.5 73t-106.5 220z" />
    <glyph glyph-name="dotaccent" unicode="&#x2d9;" 
d="M125 1266v213h205v-213h-205z" />
    <glyph glyph-name="ring" unicode="&#x2da;" 
d="M356 1434q0 51 -39 90t-90 39t-90 -39t-39 -90t39 -90t90 -39t90 39t39 90zM-12 1434q0 100 69.5 169.5t169.5 69.5t170 -69.5t70 -169.5t-70 -170t-170 -70q-104 0 -171.5 69.5t-67.5 170.5z" />
    <glyph glyph-name="ogonek" unicode="&#x2db;" 
d="M227 0h111q-80 -40 -136.5 -104.5t-56.5 -131.5q0 -47 27.5 -69.5t71.5 -22.5q71 0 164 27l24 -72q-91 -41 -205 -41q-217 0 -217 166q0 46 23 89t58.5 74t69.5 52t66 33z" />
    <glyph glyph-name="tilde" unicode="&#x2dc;" 
d="M-57 1247h-121q11 111 72 181.5t161 70.5q87 0 201 -49q98 -43 162 -43q38 0 61 20.5t33 71.5h121q-11 -111 -72.5 -181.5t-161.5 -70.5q-86 0 -200 49q-98 43 -162 43q-38 0 -61 -20.5t-33 -71.5z" />
    <glyph glyph-name="hungarumlaut" unicode="&#x2dd;" 
d="M-141 1229l176 287h256l-268 -287h-164zM350 1229l176 287h256l-268 -287h-164z" />
    <glyph glyph-name="uni0394" unicode="&#x394;" horiz-adv-x="1392" 
d="M1096 180l-414 1057l-395 -1057h809zM1370 0h-1347l561 1458h202z" />
    <glyph glyph-name="uni03A9" unicode="&#x3a9;" horiz-adv-x="1544" 
d="M1423 168l-2 -168h-542v381q163 31 251.5 153t88.5 293q0 200 -130 334.5t-329 134.5q-200 0 -330.5 -136t-130.5 -335q0 -172 88.5 -292.5t251.5 -151.5v-381h-545v168h385v117q-183 52 -284 204.5t-101 348.5q0 137 52.5 256.5t142.5 203t212.5 131.5t258.5 48
t257.5 -46.5t210.5 -129t141 -202t52 -257.5q0 -202 -98.5 -352t-284.5 -205v-117h385z" />
    <glyph glyph-name="uni03BC" unicode="&#x3bc;" horiz-adv-x="1329" 
d="M125 -414v1487h205v-690q0 -248 317 -248q148 0 250 84.5t102 235.5v618h205v-1073h-205v162h-4q-70 -105 -179 -152t-230 -47q-153 0 -256 84v-461h-205z" />
    <glyph glyph-name="pi" unicode="&#x3c0;" horiz-adv-x="1191" 
d="M1145 166v-141q-86 -39 -160 -39q-51 0 -87 14t-56.5 35.5t-32 57.5t-15 69.5t-3.5 81.5v567h-459v-811h-187v811h-143v174h1135v-174h-158v-543v-8q0 -23 0.5 -35t4.5 -30.5t11.5 -27.5t22.5 -16.5t37 -7.5q39 0 90 23z" />
    <glyph glyph-name="endash" unicode="&#x2013;" horiz-adv-x="1024" 
d="M0 483v172h1024v-172h-1024z" />
    <glyph glyph-name="emdash" unicode="&#x2014;" horiz-adv-x="2048" 
d="M0 483v172h2048v-172h-2048z" />
    <glyph glyph-name="quoteleft" unicode="&#x2018;" horiz-adv-x="684" 
d="M215 911v209q0 84 25 153.5t83.5 121t145.5 67.5v-100q-64 -19 -93 -66t-30 -147h123v-238h-254z" />
    <glyph glyph-name="quoteright" unicode="&#x2019;" horiz-adv-x="684" 
d="M215 911v101q63 19 91 65.5t32 147.5h-123v237h254v-209q0 -84 -25 -153.5t-83.5 -121t-145.5 -67.5z" />
    <glyph glyph-name="quotesinglbase" unicode="&#x201a;" horiz-adv-x="684" 
d="M215 -313v100q63 19 91 65.5t32 147.5h-123v238h254v-209q0 -84 -25 -153.5t-83.5 -121t-145.5 -67.5z" />
    <glyph glyph-name="quotedblleft" unicode="&#x201c;" horiz-adv-x="985" 
d="M150 911v209q0 85 25 154t83 120.5t145 67.5v-100q-64 -19 -92.5 -66t-29.5 -147h122v-238h-253zM582 911v209q0 84 25 153.5t83.5 121t145.5 67.5v-100q-64 -19 -93 -66t-30 -147h123v-238h-254z" />
    <glyph glyph-name="quotedblright" unicode="&#x201d;" horiz-adv-x="985" 
d="M150 911v101q63 19 90.5 65.5t31.5 147.5h-122v237h253v-209q0 -85 -25 -154t-83 -120.5t-145 -67.5zM582 911v101q63 19 91 65.5t32 147.5h-123v237h254v-209q0 -84 -25 -153.5t-83.5 -121t-145.5 -67.5z" />
    <glyph glyph-name="quotedblbase" unicode="&#x201e;" horiz-adv-x="985" 
d="M150 -313v100q63 19 90.5 65.5t31.5 147.5h-122v238h253v-209q0 -85 -25 -154t-83 -120.5t-145 -67.5zM582 -313v100q63 19 91 65.5t32 147.5h-123v238h254v-209q0 -84 -25 -153.5t-83.5 -121t-145.5 -67.5z" />
    <glyph glyph-name="dagger" unicode="&#x2020;" horiz-adv-x="1368" 
d="M109 799v188h473v475h204v-475h474v-188h-474v-1188h-204v1188h-473z" />
    <glyph glyph-name="daggerdbl" unicode="&#x2021;" horiz-adv-x="1368" 
d="M582 242v589h-473v173h473v458h204v-458h474v-173h-474v-589h474v-172h-474v-459h-204v459h-473v172h473z" />
    <glyph glyph-name="bullet" unicode="&#x2022;" horiz-adv-x="1024" 
d="M147 731q0 152 106.5 258.5t258.5 106.5t258.5 -106.5t106.5 -258.5t-106.5 -258t-258.5 -106t-258.5 106t-106.5 258z" />
    <glyph glyph-name="ellipsis" unicode="&#x2026;" horiz-adv-x="2048" 
d="M1579 0v238h254v-238h-254zM897 0v238h254v-238h-254zM215 0v238h254v-238h-254z" />
    <glyph glyph-name="perthousand" unicode="&#x2030;" horiz-adv-x="2390" 
d="M311 -33l813 1487h172l-813 -1487h-172zM14 1069q0 82 19.5 149.5t60 121.5t110 84t161.5 30t161 -30t109.5 -84t60 -121.5t19.5 -149.5q0 -83 -19.5 -151t-60 -121.5t-109 -83t-161.5 -29.5t-162 29.5t-109.5 83t-60 121.5t-19.5 151zM555 1069q0 250 -190 250
q-191 0 -191 -250t191 -250q190 0 190 250zM1427 352q0 250 -190 250t-190 -250t190 -250t190 250zM887 352q0 82 19.5 149.5t60 121.5t109.5 84t161 30t161 -30t109.5 -84t60 -121.5t19.5 -149.5q0 -83 -19.5 -151t-60 -121.5t-109 -83t-161.5 -29.5t-161.5 29.5t-109 83
t-60 121.5t-19.5 151zM2216 352q0 250 -191 250q-190 0 -190 -250t190 -250q191 0 191 250zM1675 352q0 82 19.5 149.5t60 121.5t109.5 84t161 30t161.5 -30t110 -84t60 -121.5t19.5 -149.5q0 -83 -19.5 -151t-60 -121.5t-109.5 -83t-162 -29.5t-161.5 29.5t-109 83
t-60 121.5t-19.5 151z" />
    <glyph glyph-name="guilsinglleft" unicode="&#x2039;" horiz-adv-x="684" 
d="M158 463v213l368 272v-207l-243 -172l243 -172v-207z" />
    <glyph glyph-name="guilsinglright" unicode="&#x203a;" horiz-adv-x="684" 
d="M401 569l-243 172v207l368 -272v-213l-368 -273v207z" />
    <glyph glyph-name="fraction" unicode="&#x2044;" horiz-adv-x="342" 
d="M-322 -33l814 1487h172l-814 -1487h-172z" />
    <glyph glyph-name="Euro" unicode="&#x20ac;" horiz-adv-x="1368" 
d="M1319 1331l-90 -162q-104 50 -188 74.5t-181 24.5q-354 0 -454 -348h727l-56 -123h-696l-4 -115h663l-55 -123h-596q38 -196 158.5 -304t318.5 -108q123 0 217 41.5t215 130.5v-217q-108 -76 -204 -105.5t-230 -29.5q-294 0 -471.5 152t-220.5 440h-147l55 123h84l4 115
h-148l56 123h110q61 255 238 392.5t438 137.5q128 0 233.5 -28t223.5 -91z" />
    <glyph glyph-name="afii61289" unicode="&#x2113;" horiz-adv-x="1024" 
d="M850 84q-122 -113 -266 -113q-117 0 -188.5 67t-71.5 195v234l-119 -127h-4l-54 76l177 172v530q0 166 75 262.5t189 96.5q100 0 162.5 -71t62.5 -192q0 -292 -350 -651v-307q0 -96 45 -137t108 -41q94 0 181 78h4zM696 1204q0 77 -31 125.5t-77 48.5q-52 0 -88.5 -60.5
t-36.5 -176.5v-455q113 130 173 265.5t60 252.5z" />
    <glyph glyph-name="trademark" unicode="&#x2122;" horiz-adv-x="2027" 
d="M1671 618v672h-4l-248 -672h-114l-248 672h-4v-672h-160v844h240l229 -598l229 598h240v-844h-160zM295 618v709h-254v135h680v-135h-254v-709h-172z" />
    <glyph glyph-name="Omega" unicode="&#x2126;" horiz-adv-x="1544" 
d="M1423 168l-2 -168h-542v381q163 31 251.5 153t88.5 293q0 200 -130 334.5t-329 134.5q-200 0 -330.5 -136t-130.5 -335q0 -172 88.5 -292.5t251.5 -151.5v-381h-545v168h385v117q-183 52 -284 204.5t-101 348.5q0 137 52.5 256.5t142.5 203t212.5 131.5t258.5 48
t257.5 -46.5t210.5 -129t141 -202t52 -257.5q0 -202 -98.5 -352t-284.5 -205v-117h385z" />
    <glyph glyph-name="estimated" unicode="&#x212e;" horiz-adv-x="1228" 
d="M1149 530h-827v-370q121 -121 296 -121q128 0 224 59t172 187l71 -43q-95 -148 -201.5 -212.5t-265.5 -64.5q-157 0 -278.5 75.5t-185.5 203.5t-64 286q0 159 64 287t185.5 203.5t278.5 75.5q235 0 382 -158t149 -408zM322 604h596v297q-129 123 -302 123
q-171 0 -294 -123v-297z" />
    <glyph glyph-name="partialdiff" unicode="&#x2202;" horiz-adv-x="1091" 
d="M805 582q-125 153 -281 153q-124 0 -193 -89t-69 -216q0 -126 65.5 -216.5t186.5 -90.5q80 0 140 45.5t91 118.5t45.5 147t14.5 148zM1008 737q0 -76 -5.5 -147t-20.5 -149t-39 -143.5t-63 -126.5t-90 -103.5t-123 -67.5t-159 -25q-195 0 -314.5 133t-119.5 330
q0 191 117 319t307 128q168 0 313 -135l2 69q2 66 -7.5 133t-34.5 134.5t-62.5 119.5t-97.5 84.5t-134 32.5q-109 0 -237 -98l-105 123q83 65 162 97t174 32q120 0 215 -44.5t154 -116.5t98 -170.5t54.5 -199t15.5 -209.5z" />
    <glyph glyph-name="Delta" unicode="&#x2206;" horiz-adv-x="1392" 
d="M1096 180l-414 1057l-395 -1057h809zM1370 0h-1347l561 1458h202z" />
    <glyph glyph-name="product" unicode="&#x220f;" horiz-adv-x="1492" 
d="M1362 -438h-197v1870h-835v-1870h-197v2048h1229v-2048z" />
    <glyph glyph-name="summation" unicode="&#x2211;" horiz-adv-x="1292" 
d="M1241 -438h-1190v157l639 877l-612 858v156h1139v-178h-879l588 -834l-627 -858h942v-178z" />
    <glyph glyph-name="minus" unicode="&#x2212;" horiz-adv-x="1228" 
d="M96 432v172h1037v-172h-1037z" />
    <glyph glyph-name="uni2215" unicode="&#x2215;" horiz-adv-x="342" 
d="M-322 -33l814 1487h172l-814 -1487h-172z" />
    <glyph glyph-name="uni2219" unicode="&#x2219;" horiz-adv-x="684" 
d="M190 631q0 63 44.5 107t107.5 44t107.5 -44t44.5 -107t-44.5 -107.5t-107.5 -44.5t-107.5 44.5t-44.5 107.5z" />
    <glyph glyph-name="radical" unicode="&#x221a;" horiz-adv-x="1067" 
d="M1090 1610l-433 -2048h-186l-321 665l-101 -47l-72 154l269 125l286 -606l361 1757h197z" />
    <glyph glyph-name="infinity" unicode="&#x221e;" horiz-adv-x="1611" 
d="M705 522q-2 2 -23 21.5t-26.5 24.5t-26.5 23t-30 25t-29 22t-32 21.5t-31 16.5t-33.5 14.5t-32 8t-33.5 3.5q-73 0 -116.5 -51.5t-43.5 -126.5q0 -78 45 -125t123 -47q128 0 289 170zM1364 524q0 80 -44 130.5t-122 50.5q-31 0 -66 -13.5t-60.5 -28.5t-61.5 -46
t-51.5 -46t-49.5 -49q72 -78 142.5 -125t150.5 -47q76 0 119 49t43 125zM1524 530q0 -147 -88.5 -247.5t-235.5 -100.5q-110 0 -205 62.5t-188 165.5q-6 -6 -42 -40.5t-45 -42.5t-41.5 -36t-47.5 -36.5t-45.5 -27t-53.5 -25t-54 -12.5t-62 -6q-145 0 -236.5 98.5
t-91.5 243.5q0 147 88 245.5t234 98.5q61 0 116.5 -18.5t107 -57t87.5 -72.5t86 -89q49 54 83.5 87.5t86 73t106.5 59t115 19.5q146 0 236 -98t90 -244z" />
    <glyph glyph-name="integral" unicode="&#x222b;" horiz-adv-x="1185" 
d="M920 1477q0 -41 -27 -68t-68 -27q-32 0 -55.5 17.5t-33.5 39t-22 39t-24 17.5q-20 0 -32 -16t-15 -42.5t-3 -49.5t2.5 -50t2.5 -32q0 -27 1 -78t1 -78v-1073v-18q0 -193 -22 -284q-53 -212 -254 -212q-64 0 -120 35t-56 94q0 38 23.5 65t60.5 27q33 0 56 -18.5t31.5 -40
t18.5 -40t21 -18.5q18 0 29 14.5t14 40.5t4 46.5t-0.5 48t-1.5 30.5v1319q0 51 1.5 87.5t7.5 86.5t16.5 84.5t31 72.5t49 61t72 38t98.5 15q69 0 131 -34t62 -99z" />
    <glyph glyph-name="approxequal" unicode="&#x2248;" horiz-adv-x="1214" 
d="M1026 489h125q-6 -65 -25 -121t-52.5 -103t-86.5 -74t-121 -27q-72 0 -180 36t-207 71.5t-151 35.5q-57 0 -93.5 -42.5t-48.5 -104.5h-127q6 63 25 118t51.5 103t85.5 76t121 28q59 0 136.5 -21.5t141 -48t138.5 -48t129 -21.5q113 0 139 143zM1028 887h125
q-6 -65 -25 -121.5t-52.5 -103.5t-86.5 -74t-121 -27q-71 0 -178.5 36t-207 72t-152.5 36q-56 0 -95 -45.5t-47 -104.5h-125q6 63 25 119t51.5 104.5t85 76.5t119.5 28q59 0 136.5 -22t141 -48t138.5 -48t129 -22q112 0 139 144z" />
    <glyph glyph-name="notequal" unicode="&#x2260;" horiz-adv-x="1214" 
d="M1135 215h-586l-160 -305l-160 82l117 223h-266v182h360l127 250h-487v182h582l159 310l160 -82l-117 -228h271v-182h-365l-129 -250h494v-182z" />
    <glyph glyph-name="lessequal" unicode="&#x2264;" horiz-adv-x="1214" 
d="M1135 -68h-1055v185h1055v-185zM1135 190l-1055 363v186l1055 373v-194l-803 -271l803 -262v-195z" />
    <glyph glyph-name="greaterequal" unicode="&#x2265;" horiz-adv-x="1214" 
d="M1135 -68h-1055v185h1055v-185zM1135 553l-1055 -363v195l803 262l-803 271v194l1055 -373v-186z" />
    <glyph glyph-name="lozenge" unicode="&#x25ca;" horiz-adv-x="1214" 
d="M862 729l-256 614l-256 -614l256 -616zM1053 729l-359 -801h-176l-356 801l356 801h176z" />
    <glyph glyph-name="commaaccent" unicode="&#xf004;" horiz-adv-x="684" 
d="M242 -281v179h204v-142q0 -170 -204 -170v66q38 6 59 21t27 46h-86z" />
    <glyph glyph-name="commaaccent" unicode="&#xf6c3;" horiz-adv-x="684" 
d="M242 -281v179h204v-142q0 -170 -204 -170v66q38 6 59 21t27 46h-86z" />
    <glyph glyph-name="dotlessj" unicode="&#xf6be;" 
d="M-106 -410v172q28 -4 38 -4h37q84 0 120 30.5t36 98.5v1186h205v-1139q0 -190 -74 -269t-266 -79q-26 0 -96 4z" />
    <glyph glyph-name="dotlessj" unicode="&#xfb0f;" 
d="M-106 -410v172q28 -4 38 -4h37q84 0 120 30.5t36 98.5v1186h205v-1139q0 -190 -74 -269t-266 -79q-26 0 -96 4z" />
    <glyph glyph-name="uniF8FF" unicode="&#xf8ff;" horiz-adv-x="1048" 
d="M455 240h114v137h-114v-137zM461 479h94q0 107 12 148q11 38 88 106q75 69 102 123t27 123q0 120 -72 194t-182 74q-115 0 -189 -69.5t-87 -210.5l102 -17q11 100 56 147.5t112 47.5q64 0 110 -50.5t46 -123.5q0 -41 -19.5 -75.5t-82.5 -94.5q-67 -67 -95 -121
q-26 -51 -26 -166zM946 102h-844v1264h844v-1264zM1049 1470h-1049v-1470h1049v1470z" />
    <glyph glyph-name="commaaccent.alt" horiz-adv-x="684" 
d="M449 1475v-179h-205v142q0 170 205 170v-66q-77 -13 -87 -67h87z" />
    <glyph glyph-name="caron.alt" 
d="M104 1188l60 287h227l-143 -287h-144z" />
    <glyph glyph-name="grave.cap" 
d="M186 1229l-268 287h256l176 -287h-164z" />
    <glyph glyph-name="acute.cap" 
d="M104 1229l177 287h256l-269 -287h-164z" />
    <glyph glyph-name="circumflex.cap" 
d="M403 1229l-176 180l-176 -180h-198l266 287h217l266 -287h-199z" />
    <glyph glyph-name="caron.cap" 
d="M227 1335l176 181h199l-266 -287h-217l-266 287h198z" />
    <glyph glyph-name="tilde.cap" 
d="M-57 1247h-121q11 111 72 181.5t161 70.5q87 0 201 -49q98 -43 162 -43q38 0 61 20.5t33 71.5h121q-11 -111 -72.5 -181.5t-161.5 -70.5q-86 0 -200 49q-98 43 -162 43q-38 0 -61 -20.5t-33 -71.5z" />
    <glyph glyph-name="dieresis.cap" 
d="M371 1266v213h204v-213h-204zM-121 1266v213h205v-213h-205z" />
    <glyph glyph-name="macron.cap" 
d="M-174 1292v160h803v-160h-803z" />
    <glyph glyph-name="breve.cap" 
d="M-129 1518h135q10 -72 67.5 -109t153.5 -37t154 37t68 109h135q-7 -147 -107 -220t-250 -73t-249.5 73t-106.5 220z" />
    <glyph glyph-name="ring.cap" 
d="M356 1434q0 51 -39 90t-90 39t-90 -39t-39 -90t39 -90t90 -39t90 39t39 90zM-12 1434q0 100 69.5 169.5t169.5 69.5t170 -69.5t70 -169.5t-70 -170t-170 -70q-104 0 -171.5 69.5t-67.5 170.5z" />
    <glyph glyph-name="hungarumlaut.cap" 
d="M-141 1229l176 287h256l-268 -287h-164zM350 1229l176 287h256l-268 -287h-164z" />
    <glyph glyph-name="dotaccent.cap" 
d="M125 1266v213h205v-213h-205z" />
    </font>
</defs>
</svg>
