<?xml version="1.0" standalone="no"?>
<!DOCTYPE svg PUBLIC "-//W3C//DTD SVG 20010904//EN"
 "http://www.w3.org/TR/2001/REC-SVG-20010904/DTD/svg10.dtd">
<svg version="1.0" xmlns="http://www.w3.org/2000/svg"
 width="400.000000pt" height="400.000000pt" viewBox="0 0 400.000000 400.000000"
 preserveAspectRatio="xMidYMid meet">
<metadata>
Created by potrace 1.14, written by Peter Selinger 2001-2017
</metadata>
<g transform="translate(0.000000,400.000000) scale(0.100000,-0.100000)"
fill="#000000" stroke="none">
<path d="M1329 3793 c-1 -5 -2 -73 -3 -153 l-1 -145 -243 0 -242 0 0 -245 0
-245 244 0 245 0 -1 240 -1 240 154 5 154 5 0 150 0 150 -152 3 c-84 1 -154
-1 -154 -5z"/>
<path d="M1959 3522 c-15 -3 -16 -31 -15 -259 l1 -257 75 -2 c502 -11 926
-326 1084 -806 8 -26 18 -59 20 -74 3 -15 10 -53 17 -83 19 -92 16 -308 -5
-406 -18 -85 -29 -123 -51 -182 -130 -346 -425 -615 -778 -712 -42 -11 -100
-24 -129 -28 -85 -13 -318 -9 -383 6 -236 52 -429 152 -586 303 -130 124 -236
288 -290 447 -45 129 -57 195 -65 336 l-6 110 238 0 239 0 2 238 1 237 -238 0
-239 0 0 -231 c1 -127 -2 -234 -6 -237 -4 -4 -115 -8 -248 -8 -133 -1 -247 -2
-253 -3 -7 -1 -10 -34 -8 -98 10 -397 158 -770 422 -1068 43 -50 99 -106 123
-127 24 -20 58 -48 74 -63 17 -14 73 -55 125 -90 701 -469 1634 -341 2189 300
68 79 64 73 127 167 114 170 221 433 249 611 3 17 10 57 15 87 10 58 7 424 -4
475 -3 17 -9 46 -13 65 -29 156 -86 316 -165 465 -266 502 -784 842 -1343 881
-118 8 -159 9 -176 6z"/>
<path d="M1332 2996 c-10 -13 -10 -591 0 -601 8 -8 597 -9 605 -1 5 5 8 445 4
583 l-1 31 -300 0 c-209 -1 -302 -4 -308 -12z"/>
<path d="M1327 1911 c-3 -5 -1 -367 2 -382 0 -3 88 -6 194 -5 l192 1 0 195 0
195 -193 1 c-106 1 -194 -1 -195 -5z"/>
</g>
</svg>
