<svg xmlns="http://www.w3.org/2000/svg" viewBox="0 0 162.38 24.73"><defs><style>.cls-1{opacity:0.8;}.cls-2{fill:#727074;}</style></defs><title>Recurso 18</title><g id="Capa_2" data-name="Capa 2"><g id="Capa_1-2" data-name="Capa 1"><g class="cls-1"><path class="cls-2" d="M69.76,22.92,62.65,3.13a3.56,3.56,0,0,1-.23-.95A1.74,1.74,0,0,1,64.19.5,1.84,1.84,0,0,1,66,2L71.85,19,77.78,1.9A1.78,1.78,0,0,1,79.5.5h.18a1.85,1.85,0,0,1,1.81,1.4L87.38,19l6-17.15A1.72,1.72,0,0,1,95,.5a1.68,1.68,0,0,1,1.72,1.62h0a3.39,3.39,0,0,1-.23,1L89.38,22.92a2.07,2.07,0,0,1-1.91,1.58h-.13a2,2,0,0,1-1.91-1.58L79.59,6.1,73.7,22.92a1.94,1.94,0,0,1-1.9,1.58h-.09a2.07,2.07,0,0,1-1.95-1.58Z"/><path class="cls-2" d="M121.58,2.23A1.76,1.76,0,0,1,123.31.46a1.74,1.74,0,0,1,1.77,1.71V6.25A9.53,9.53,0,0,1,133.15.5a1.68,1.68,0,0,1,1.73,1.63v.14A1.74,1.74,0,0,1,133.33,4c-4.54.54-8.25,4-8.25,10.71v8a1.75,1.75,0,0,1-3.5.05V2.23Z"/><path class="cls-2" d="M152.89,11.26c-.36-4.22-2.76-7.9-7.34-7.9-4,0-7,3.37-7.46,7.9Zm-6.8,13.43c-6.32,0-11.47-4.89-11.47-12.08v-.09c0-6.69,4.67-12.08,11-12.08,6.8,0,10.67,5.61,10.67,11.77a1.61,1.61,0,0,1-1.59,1.62H138.09c.48,5,4,7.85,8.09,7.85A9.31,9.31,0,0,0,152.8,19a1.47,1.47,0,1,1,1.95,2.2A11.59,11.59,0,0,1,146.09,24.69Z"/><path class="cls-2" d="M114.05,15.61V13.35a24.55,24.55,0,0,0-6.87-1c-4.39,0-6.83,1.91-6.83,4.84v.09c0,2.94,2.71,4.66,5.88,4.66,4.29,0,7.82-2.62,7.82-6.33M96.82,17.42v-.09c0-4.93,4.07-7.55,10-7.55a24.69,24.69,0,0,1,7.2,1V10c0-4.21-2.58-6.38-7-6.38a11.84,11.84,0,0,0-5.44,1.06,1.52,1.52,0,0,1-.63.14,1.54,1.54,0,0,1-1.54-1.49,1.45,1.45,0,0,1,.95-1.45,15.51,15.51,0,0,1,7-1.33c3.3,0,5.84.85,7.55,2.57s2.4,3.85,2.4,6.83V22.82a1.65,1.65,0,0,1-1.58,1.72h-.09A1.61,1.61,0,0,1,114,23V20.68a10.25,10.25,0,0,1-8.45,4c-4.35,0-8.74-2.48-8.74-7.28Z"/><path class="cls-2" d="M6.39,2A3.29,3.29,0,0,0,2.05.28.2.2,0,0,0,2,.32,3.24,3.24,0,0,0,.26,4.57l.09.18L7.77,20.88c1.17,2.53,2.4,3.85,4.7,3.85,2.47,0,3.55-1.44,4.71-3.85L23.72,6.64A1,1,0,0,1,24.65,6a1,1,0,0,1,1,1h0V20.87c0,2.12,1.18,3.86,3.45,3.86s3.49-1.74,3.49-3.86V9.59A3.46,3.46,0,0,1,36.3,6a3.38,3.38,0,0,1,3.54,3.21,2.41,2.41,0,0,1,0,.38V20.87c0,2.12,1.18,3.86,3.44,3.86s3.5-1.74,3.5-3.86V9.59A3.46,3.46,0,0,1,50.46,6,3.38,3.38,0,0,1,54,9.21a2.41,2.41,0,0,1,0,.38V20.87c0,2.12,1.18,3.86,3.45,3.86s3.49-1.74,3.49-3.86V8a8,8,0,0,0-8.36-8,10.73,10.73,0,0,0-7.42,3.16C43.65,1.19,41.55,0,38,0c-3.73,0-7,3.15-7,3.15A8.41,8.41,0,0,0,24.76,0c-3.31,0-5.94,1.45-7.55,5.12L12.47,16.31Z"/><path class="cls-2" d="M161.82,3.35h0a2.34,2.34,0,1,0-4.68,0v.05h0a2.35,2.35,0,0,0,4.69,0,.09.09,0,0,0,0,0m-5.23,0v0a2.9,2.9,0,0,1,5.79,0v0h0a2.9,2.9,0,0,1-5.79,0Z"/><path class="cls-2" d="M159.62,3.26c.3,0,.47-.16.47-.4h0c0-.26-.18-.4-.48-.4H159v.81Zm-1.24-1a.3.3,0,0,1,.3-.31h1a1.09,1.09,0,0,1,.81.28.85.85,0,0,1,.25.64h0a.86.86,0,0,1-.56.85l.42.52a.33.33,0,0,1,.1.24.28.28,0,0,1-.29.28h0a.37.37,0,0,1-.3-.16l-.6-.76H159v.62a.31.31,0,0,1-.62,0V2.21Z"/></g></g></g></svg>