<svg xmlns="http://www.w3.org/2000/svg" viewBox="0 0 48.06 48"><defs><style>.cls-1{fill:#fff;}</style></defs><title>Recurso 6</title><g id="Capa_2" data-name="Capa 2"><g id="Capa_1-2" data-name="Capa 1"><path class="cls-1" d="M23.3,48c-.85-.07-1.72-.12-2.57-.23a24,24,0,0,1-8.22-2.57,22.44,22.44,0,0,1-6.47-5A22.86,22.86,0,0,1,1.9,33.43,27.36,27.36,0,0,1,.36,27.81,24.76,24.76,0,0,1,0,22.73a21.5,21.5,0,0,1,.76-4.84,24.72,24.72,0,0,1,1.84-4.78A24.26,24.26,0,0,1,13.92,2.24,24.07,24.07,0,0,1,20.17.32,23.34,23.34,0,0,1,24.42,0,23.9,23.9,0,0,1,36.55,3.52a24.08,24.08,0,0,1,5.81,5A24.52,24.52,0,0,1,46,14.14a23.8,23.8,0,0,1,1.75,5.64,22.87,22.87,0,0,1,.36,4.67,25.89,25.89,0,0,1-.5,4.2,25.2,25.2,0,0,1-2.64,7.42,22.17,22.17,0,0,1-3.11,4.34A21.84,21.84,0,0,1,37.53,44a22.66,22.66,0,0,1-4.74,2.39,22.43,22.43,0,0,1-4.41,1.18c-1,.15-2,.25-3.05.32-.67,0-1.35,0-2,0Zm2.17-2.9c.08,0,.11,0,.13,0l2.78-.38c.16,0,.23-.12.22-.29v-.34c0-4.11,0-8.22,0-12.34a1.78,1.78,0,0,1,.56-1.34l4.16-4.16a.43.43,0,0,0,.13-.58,3.93,3.93,0,0,1-.24-2.53,4.47,4.47,0,1,1,3.57,5.27,11.54,11.54,0,0,1-1.17-.33s0,0-.07.05L31.7,32a.62.62,0,0,0-.18.51c0,3.63,0,7.25,0,10.88,0,.12,0,.24,0,.35s.09,0,.11,0l.18,0a22.59,22.59,0,0,0,3.63-1.86,20.26,20.26,0,0,0,8.94-12.22,21.6,21.6,0,0,0,.6-3.46,16.5,16.5,0,0,0,0-3.37c-.11-.92-.2-1.84-.36-2.75a20.2,20.2,0,0,0-1-3.67,21.35,21.35,0,0,0-2-4.08,20.64,20.64,0,0,0-3.78-4.35A19.89,19.89,0,0,0,32.9,4.81a20.74,20.74,0,0,0-5.23-1.56,19.33,19.33,0,0,0-3.31-.32c-.64,0-1.28,0-1.91.07-.87.09-1.74.17-2.6.34a21.21,21.21,0,0,0-6,2.11A19.92,19.92,0,0,0,9.79,8.36a20.26,20.26,0,0,0-3.58,4.36,21.8,21.8,0,0,0-2.55,6.1A22.43,22.43,0,0,0,3,24.53a22.58,22.58,0,0,0,.27,3.06A20.26,20.26,0,0,0,7,36.71,20.68,20.68,0,0,0,11.28,41a23.06,23.06,0,0,0,4.31,2.48c.29.13.59.24.92.38a3.91,3.91,0,0,0,0-.41q0-5.43,0-10.88a.75.75,0,0,0-.25-.59l-2.49-2.49c-.45-.45-.89-.91-1.33-1.36l-.29.09a4.1,4.1,0,0,1-2.82.2,4.46,4.46,0,1,1,5.26-2.72.54.54,0,0,0,.15.68q2.09,2.05,4.15,4.13a1.72,1.72,0,0,1,.54,1.31c0,.58,0,1.17,0,1.76V44.3c0,.41,0,.42.4.48l2.18.31c.17,0,.34,0,.55,0v-.45q0-11.76,0-23.52a.53.53,0,0,0-.37-.58,4.36,4.36,0,0,1-2.49-5.21,4.33,4.33,0,0,1,3.87-3.3A4.23,4.23,0,0,1,27,13.16a4.33,4.33,0,0,1,1.49,3.54,4.16,4.16,0,0,1-2.57,3.86.61.61,0,0,0-.43.64c0,7.82,0,15.65,0,23.48ZM24,18.07a1.57,1.57,0,0,0,1.58-1.53,1.57,1.57,0,0,0-3.13,0A1.56,1.56,0,0,0,24,18.07Zm-15.08,6a1.48,1.48,0,0,0,1.54,1.54A1.55,1.55,0,0,0,12,24a1.59,1.59,0,0,0-1.55-1.52A1.5,1.5,0,0,0,8.94,24.07Zm30.18,0a1.52,1.52,0,0,0-1.56-1.56A1.6,1.6,0,0,0,36,24a1.54,1.54,0,0,0,1.52,1.57A1.48,1.48,0,0,0,39.12,24.06Z"/></g></g></svg>