<svg xmlns="http://www.w3.org/2000/svg" viewBox="0 0 49.18 55.31"><defs><style>.cls-1{fill:#fff;}</style></defs><title>Recurso 4</title><g id="Capa_2" data-name="Capa 2"><g id="Capa_1-2" data-name="Capa 1"><path class="cls-1" d="M46.46,34.85a.86.86,0,0,1-.53-.86c0-4.14,0-8.41,0-12.7a.8.8,0,0,1,.53-.82,4.73,4.73,0,1,0-4.79-8.11.63.63,0,0,1-.76.07c-.71-.42-1.43-.83-2.15-1.24l-1.51-.86-1.48-.87-1.67-1C32.79,7.74,31.38,6.93,30,6.13A1.08,1.08,0,0,1,29.31,5a4.11,4.11,0,0,0-.63-2.63A4.62,4.62,0,0,0,23.77.06a4.67,4.67,0,0,0-3.91,4.72.67.67,0,0,1,0,.2,2.26,2.26,0,0,0,0,.26.73.73,0,0,1-.41.76c-.6.33-1.19.68-1.79,1l-1,.58-1.44.82L12.67,9.88c-1.36.79-2.77,1.62-4.19,2.47a.89.89,0,0,1-1.07,0,4.54,4.54,0,0,0-4.9-.3A4.5,4.5,0,0,0,.08,15.35a4.71,4.71,0,0,0,2.56,5.09,1,1,0,0,1,.62,1c0,1.73,0,3.49,0,5.2v3.16c0,1.42,0,2.84,0,4.26a.79.79,0,0,1-.51.82,4.64,4.64,0,0,0-.82.48A4.77,4.77,0,0,0,.38,41a4.57,4.57,0,0,0,2,2.21,4.46,4.46,0,0,0,3.94.36A7.92,7.92,0,0,0,7.48,43l.08,0a.7.7,0,0,1,.81,0,3.8,3.8,0,0,0,.52.32l1.51.88q2.3,1.34,4.6,2.66l.72.42c1,.59,2.1,1.21,3.17,1.78.5.27,1.26.67,1,1.55a4.3,4.3,0,0,0,.76,2.65,4.63,4.63,0,0,0,1.71,1.58,4.73,4.73,0,0,0,2.52.54,4.48,4.48,0,0,0,3.74-2.17,4.25,4.25,0,0,0,.71-2.83,1,1,0,0,1,.6-1.09c1.45-.82,2.91-1.66,4.33-2.48l.42-.24L37,45.15l1.16-.68L38.9,44c.6-.34,1.21-.7,1.8-1a.86.86,0,0,1,1.09.06,4,4,0,0,0,1.64.73,4.62,4.62,0,0,0,3.14-.39,4.32,4.32,0,0,0,1.55-1.21,4.83,4.83,0,0,0,.68-4.92A4.6,4.6,0,0,0,46.46,34.85ZM43.19,14.92a1.86,1.86,0,0,1,1.3-.54,1.78,1.78,0,0,1,1.13,3.14,1.55,1.55,0,0,1-1,.46h-.13a1.66,1.66,0,0,1-1.22-.48,1.83,1.83,0,0,1-.58-1.32A1.74,1.74,0,0,1,43.19,14.92ZM27.33,8.58l.39-.24.12-.07,1.1.65,2.21,1.29,1.75,1,1.45.83,1.95,1.13,1.51.87.16.1,1.38.78a.69.69,0,0,1,.4.8,3.92,3.92,0,0,0,0,1,.66.66,0,0,1-.35.73l-2.07,1.19-.34.19-4.22,2.43L32,21.7l-2.37,1.36a.53.53,0,0,1-.28.07.64.64,0,0,1-.31-.07l-1.25-.72-1.39-.78a.72.72,0,0,1-.35-.72V13.38c0-1.18,0-2.36,0-3.54A.77.77,0,0,1,26.54,9,5.29,5.29,0,0,0,27.33,8.58Zm-6,19.08v-.41c0-.34,0-.68,0-1a.66.66,0,0,1,.35-.64c1-.55,1.79-1,2.56-1.47a.63.63,0,0,1,.71,0c.88.52,1.79,1,2.56,1.47a.61.61,0,0,1,.34.59v2.95a.62.62,0,0,1-.34.59l-1.06.61-1.55.88a.76.76,0,0,1-.32.07.46.46,0,0,1-.26-.06c-.53-.29-1.06-.6-1.59-.9-.36-.21-.72-.42-1.09-.62a.64.64,0,0,1-.31-.62V27.66ZM24.59,2.9a1.77,1.77,0,0,1,1.27.54,1.74,1.74,0,0,1,.53,1.28h0a1.79,1.79,0,0,1-1.78,1.81h0a1.82,1.82,0,0,1,0-3.63ZM9.43,15.73A.69.69,0,0,1,9.8,15l1.27-.74.91-.53c.63-.35,1.25-.71,1.87-1.07l2.58-1.48,2.63-1.52L20.9,8.55a2.52,2.52,0,0,1,.27-.15l.19-.09.11.06.42.23.95.52a.6.6,0,0,1,.31.61v.69c0,.34,0,.67,0,1v2.25c0,2.37,0,4.74,0,7.1a.88.88,0,0,1-.5.86c-.64.36-1.3.74-1.92,1.11l-.52.3a.63.63,0,0,1-.34.1.66.66,0,0,1-.34-.1c-1.05-.61-2.1-1.22-3.16-1.82l-5.8-3.34-.28-.17c-.15-.09-.3-.18-.46-.26a.72.72,0,0,1-.41-.81A3.15,3.15,0,0,0,9.43,15.73Zm-6.5.47a1.77,1.77,0,0,1,.58-1.32,1.73,1.73,0,0,1,1.24-.5,1.79,1.79,0,0,1,1.77,1.88,1.76,1.76,0,0,1-.59,1.25A1.63,1.63,0,0,1,4.71,18H4.6a1.57,1.57,0,0,1-1-.43A1.89,1.89,0,0,1,2.93,16.2ZM4.72,41h0a1.83,1.83,0,0,1-1.3-.61,1.8,1.8,0,0,1,0-2.37,1.88,1.88,0,0,1,1.37-.63,1.88,1.88,0,0,1,1.78,1.8A1.86,1.86,0,0,1,4.72,41Zm3.6-5.59a.66.66,0,0,1-.37.11.72.72,0,0,1-.4-.14l-.11-.08A2,2,0,0,0,7,35a1,1,0,0,1-.71-1.08c0-1.53,0-3.08,0-4.59V26c0-1.52,0-3.1,0-4.64a.93.93,0,0,1,.67-1,1.46,1.46,0,0,0,.47-.29A.82.82,0,0,1,8.44,20c1,.62,2.09,1.23,3,1.76L14,23.2l2,1.14c.7.39,1.44.82,2.15,1.25a.73.73,0,0,1,.31.54c0,.68,0,1.37,0,2v1a.62.62,0,0,1-.36.58L15.89,31l-1.77,1c-.8.47-1.6.94-2.41,1.4l-1.44.83ZM21.76,46.82a.62.62,0,0,1-.39.14.66.66,0,0,1-.34-.1L19.52,46,14.19,42.9,12,41.62l-.05,0c-.66-.38-1.34-.78-2-1.15a.79.79,0,0,1-.46-1,2.28,2.28,0,0,0,0-.82.68.68,0,0,1,.37-.77l1.65-1L13.08,36l2.48-1.43L16.65,34l1.14-.64c.66-.38,1.2-.7,1.71-1a.65.65,0,0,1,.72,0l.47.28c.63.37,1.28.75,1.94,1.1a1,1,0,0,1,.53,1c0,1.33,0,2.68,0,4v2.73c0,1.38,0,2.77,0,4.15a.72.72,0,0,1-.53.8A3.93,3.93,0,0,0,21.76,46.82Zm4.11,5.06a1.8,1.8,0,0,1-1.27.55h0a1.81,1.81,0,0,1-1.26-.56,1.77,1.77,0,0,1-.52-1.29,1.88,1.88,0,0,1,1.78-1.8h.05a1.82,1.82,0,0,1,1.77,1.83A1.77,1.77,0,0,1,25.87,51.88ZM39.4,40.37l-1.92,1.1-2,1.14-3,1.74-1.94,1.11-1.42.81-.83.48-.48.28-.48-.26c-.38-.2-.73-.4-1.08-.6a.61.61,0,0,1-.25-.39,1,1,0,0,1,0-.29V43q0-4.23,0-8.47a.88.88,0,0,1,.5-.86c.8-.43,1.58-.88,2.45-1.39a.63.63,0,0,1,.71,0l2.68,1.55,1.46.84,2.66,1.54,1.77,1,1.06.61c.44.24.47.37.44.84a4.16,4.16,0,0,0,0,.94A.67.67,0,0,1,39.4,40.37Zm2.34-5.08a.76.76,0,0,1-.94.05c-.56-.34-1.13-.66-1.7-1l-.7-.41-2.63-1.52-1.2-.7c-1-.57-1.94-1.15-2.94-1.67a1.42,1.42,0,0,1-.85-1.55c0-.58,0-1.18,0-1.76,0-.16,0-.32,0-.48a.73.73,0,0,1,.42-.73l3.73-2.14L37.33,22l1.85-1.08.63-.36c.32-.18.66-.37,1-.57a.78.78,0,0,1,.93.06,3.17,3.17,0,0,0,.74.42.78.78,0,0,1,.55.81c0,.78,0,1.59,0,2.36v3l0,1c0,.49,0,1,0,1.47,0,1.61,0,3.21.07,4.78a.88.88,0,0,1-.63.95A2.48,2.48,0,0,0,41.74,35.29Zm4,5.07A1.9,1.9,0,0,1,44.5,41h-.06a1.79,1.79,0,0,1-1.78-1.82A1.65,1.65,0,0,1,43.13,38a1.94,1.94,0,0,1,1.29-.62,2,2,0,0,1,1.37.61,1.53,1.53,0,0,1,.45,1.18A1.59,1.59,0,0,1,45.78,40.36Z"/></g></g></svg>