<svg xmlns="http://www.w3.org/2000/svg" viewBox="0 0 47.67 54.65"><defs><style>.cls-1{fill:#fff;}</style></defs><title>Recurso 5</title><g id="Capa_2" data-name="Capa 2"><g id="Capa_1-2" data-name="Capa 1"><path class="cls-1" d="M0,21.46c0-4.39,0-8.79,0-13.18A1.81,1.81,0,0,1,1.88,6.39a50.2,50.2,0,0,0,6.93-.45A41.17,41.17,0,0,0,15,4.73a20.12,20.12,0,0,0,6-2.53,12.07,12.07,0,0,0,2-1.7,1.75,1.75,0,0,1,2.43,0,11.39,11.39,0,0,0,5.39,3.59A30.34,30.34,0,0,0,35.77,5.4a45,45,0,0,0,6.93.86c1,0,2,.11,3.06.14a1.72,1.72,0,0,1,1.9,1.91V25.42c0,2.6,0,5.2,0,7.81a16.44,16.44,0,0,1-.54,4.47,15.76,15.76,0,0,1-1.87,4.19,22.63,22.63,0,0,1-6,6.19,37.4,37.4,0,0,1-7.47,4.16,36.93,36.93,0,0,1-5.5,1.92c-.43.11-.86.21-1.28.33a5.22,5.22,0,0,1-3-.15c-1.21-.36-2.43-.69-3.61-1.13q-2.34-.89-4.6-1.92A30.44,30.44,0,0,1,9,48.53a26.94,26.94,0,0,1-3.85-3.22,19.12,19.12,0,0,1-2.6-3.21,15.85,15.85,0,0,1-2.17-5,13.22,13.22,0,0,1-.35-3Zm44.29.87h0V10.21c0-.44,0-.44-.45-.47-1.35-.09-2.69-.2-4-.3a39.25,39.25,0,0,1-6.18-1,26.88,26.88,0,0,1-5.23-1.78,17.61,17.61,0,0,1-3.78-2.3c-.42-.35-.41-.35-.85,0a21,21,0,0,1-4.24,2.36,31.94,31.94,0,0,1-4.39,1.49A41.09,41.09,0,0,1,8.29,9.41c-1.54.15-3.08.23-4.63.33-.28,0-.38.13-.35.39s0,.26,0,.39c0,7.43,0,14.87,0,22.31a25.92,25.92,0,0,0,.23,3.05,9.69,9.69,0,0,0,1.11,3.3,16.5,16.5,0,0,0,4.53,5.3,25.19,25.19,0,0,0,4.87,3.12c1.41.68,2.81,1.37,4.27,1.94s3.25,1.11,4.88,1.62a2,2,0,0,0,1,.05A50.09,50.09,0,0,0,30,49.28a35,35,0,0,0,7.93-4.37,17.86,17.86,0,0,0,4.7-5.06,11.72,11.72,0,0,0,1.69-6C44.32,30,44.31,26.18,44.31,22.33Z"/><path class="cls-1" d="M23.82,41.86c-3.13,0-6.26,0-9.39,0A1.78,1.78,0,0,1,12.51,40V27.55a1.77,1.77,0,0,1,1.91-1.87c.25,0,.51,0,.77,0,.55,0,.55,0,.55-.57,0-1.27,0-2.53,0-3.8a9.37,9.37,0,0,1,.47-3.1,8,8,0,0,1,2.95-3.92,7.88,7.88,0,0,1,4.73-1.46,8,8,0,0,1,8,8,1.62,1.62,0,0,1-1.05,1.57,1.55,1.55,0,0,1-1.74-.32,1.68,1.68,0,0,1-.55-1.29,4.58,4.58,0,0,0-2.48-4.06,4.42,4.42,0,0,0-3.42-.41,4.69,4.69,0,0,0-2.93,2.23,4.48,4.48,0,0,0-.62,2.2c0,1.45,0,2.9,0,4.35,0,.56,0,.56.55.56H33.13a3.28,3.28,0,0,1,.63,0,1.76,1.76,0,0,1,1.35,1.62,1.61,1.61,0,0,1,0,.22c0,4.16,0,8.33,0,12.5a1.72,1.72,0,0,1-1.31,1.76,3.44,3.44,0,0,1-.64,0Zm0-12.82H16.48c-.56,0-.57,0-.57.57v8.31c0,.58,0,.58.56.58H31.14c.56,0,.57,0,.57-.57V29.61c0-.57,0-.57-.56-.57Z"/><path class="cls-1" d="M23.81,32.09a1.71,1.71,0,0,1,1.67,1.66,1.66,1.66,0,0,1-1.65,1.7,1.68,1.68,0,0,1,0-3.36Z"/></g></g></svg>