<svg xmlns="http://www.w3.org/2000/svg" viewBox="0 0 45.05 45.05"><defs><style>.cls-1{fill:#fff;}</style></defs><title>Recurso 7</title><g id="Capa_2" data-name="Capa 2"><g id="Capa_1-2" data-name="Capa 1"><path class="cls-1" d="M43.94,28.26a4.44,4.44,0,0,0-.62-.05H38.53l-.48,0V23.9H40c1.16,0,2.32,0,3.49,0a2.53,2.53,0,0,0,.61-.06A1.34,1.34,0,0,0,45,23a1.38,1.38,0,0,0-.18-1.24,1.48,1.48,0,0,0-1.25-.58H38.8l-.31,0-.38,0,0-.26a19,19,0,0,1,.07-3.79l.09-.21h5.09a4,4,0,0,0,.65-.05A1.26,1.26,0,0,0,45,16a1.33,1.33,0,0,0-.15-1.3,1.45,1.45,0,0,0-1.21-.59H38.81l-.31,0-.45,0,0-.45c0-.1,0-.19,0-.28V8.53a1.37,1.37,0,0,0-1.14-1.45,1.91,1.91,0,0,0-.49,0H31.44L31,7V1.57a1.31,1.31,0,0,0,0-.28A1.41,1.41,0,0,0,29.9,0a1.35,1.35,0,0,0-1.51.67,1.75,1.75,0,0,0-.18.91v4.6c0,.11,0,.22,0,.32l0,.47H23.94l0-.47c0-.11,0-.21,0-.31V4.61c0-1,0-2,0-3A2.8,2.8,0,0,0,23.84,1,1.29,1.29,0,0,0,23,.09a1.35,1.35,0,0,0-1.28.18,1.49,1.49,0,0,0-.57,1.27V6.25c0,.1,0,.2,0,.3l0,.38L20.86,7a20.92,20.92,0,0,1-3.8-.06l-.22-.08V4.91c0-1.07,0-2.13,0-3.2a3.69,3.69,0,0,0-.05-.64,1.3,1.3,0,0,0-.8-1,1.37,1.37,0,0,0-1.28.13,1.42,1.42,0,0,0-.62,1.23V6.24c0,.1,0,.2,0,.31l0,.45-.46,0h-5a1.47,1.47,0,0,0-1.16.46A1.56,1.56,0,0,0,7,8.62v4.67c0,.1,0,.2,0,.31l0,.45-.46,0H1.29A1.4,1.4,0,0,0,0,15.15a1.37,1.37,0,0,0,.67,1.52,1.84,1.84,0,0,0,.9.17H6.56l.37,0,.05.25a20,20,0,0,1-.06,3.8l-.08.21H1.6a2.74,2.74,0,0,0-.6.07,1.29,1.29,0,0,0-.91.85,1.31,1.31,0,0,0,.18,1.26,1.46,1.46,0,0,0,1.26.57h5l.36,0,.06.25a21.79,21.79,0,0,1,0,3.79l-.07.23H1.72a2.84,2.84,0,0,0-.64.06,1.27,1.27,0,0,0-1,.8,1.39,1.39,0,0,0,.14,1.29,1.44,1.44,0,0,0,1.24.6H6.23l.33,0L7,31v4.1c0,.46,0,.94,0,1.42A1.35,1.35,0,0,0,8.16,38a1.94,1.94,0,0,0,.49.05h4.63l.34,0,.16,0,.31,0v4.2c0,.48,0,.95,0,1.42a1.37,1.37,0,0,0,2.58.63,1.89,1.89,0,0,0,.16-.88c0-.89,0-1.79,0-2.68v-2c0-.11,0-.21,0-.32l0-.46h4.26v5.41a2.77,2.77,0,0,0,.06.6,1.31,1.31,0,0,0,.85.91,1.33,1.33,0,0,0,1.27-.17,1.43,1.43,0,0,0,.57-1.25c0-1.57,0-3.14,0-4.71,0-.1,0-.21,0-.31l0-.47h4.24l0,.48c0,.11,0,.21,0,.3v4.5a2.9,2.9,0,0,0,.06.64,1.26,1.26,0,0,0,.81,1,1.41,1.41,0,0,0,1.3-.16A1.46,1.46,0,0,0,31,43.58V38.84c0-.11,0-.22,0-.34L31,38h5.51A1.37,1.37,0,0,0,38,36.87a2.28,2.28,0,0,0,0-.45V31.78c0-.11,0-.22,0-.34s0-.11,0-.16l0-.32h5.48a1.68,1.68,0,0,0,.79-.2A1.35,1.35,0,0,0,45,29.31,1.32,1.32,0,0,0,43.94,28.26Zm-8.67,6.22h0c0,.29,0,.49-.15.64a.69.69,0,0,1-.53.15h-24c-.67,0-.83-.15-.83-.81v-24c0-.48.17-.64.65-.66H34.5c.28,0,.47,0,.62.15s.15.35.15.65v23.9Z"/><path class="cls-1" d="M29.43,14.09H15.63a2.21,2.21,0,0,0-.42,0,1.41,1.41,0,0,0-1.12,1.44V29.38A1.43,1.43,0,0,0,15.66,31H29.39A1.43,1.43,0,0,0,31,29.41q0-6.89,0-13.77A1.43,1.43,0,0,0,29.43,14.09ZM28.19,28l-.23.08c-.3.1-6.32.1-6.38.1-1,0-4.13,0-4.44-.07l-.26,0V16.87H28.19Z"/></g></g></svg>