<svg xmlns="http://www.w3.org/2000/svg" viewBox="0 0 224.66 53.14"><defs><style>.cls-1,.cls-2{fill:#fff;}.cls-1{fill-rule:evenodd;}</style></defs><title>Recurso 10</title><g id="Capa_2" data-name="Capa 2"><g id="Capa_1-2" data-name="Capa 1"><path class="cls-1" d="M37.1,1.41a3.12,3.12,0,0,0-5.2,0L24.73,12.11H44.07Zm-27,32.73L.52,48.41A3,3,0,0,0,3.1,53.14H65.72a3,3,0,0,0,2.59-4.72L58.83,34.14Zm2.39-3.66,9.94-15.15H46.18L56.26,30.48Z"/><path class="cls-2" d="M91.52,51.59V14.36h6.73V51.59Z"/><path class="cls-2" d="M114.11,52.21a12.74,12.74,0,0,1-5.52-1,7.6,7.6,0,0,1-3.21-2.84,7.46,7.46,0,0,1-1-3.88,7,7,0,0,1,2.84-5.79q2.83-2.23,8.51-2.23h6.62v-.62a4.7,4.7,0,0,0-1.52-3.88A5.79,5.79,0,0,0,117,30.7a6.51,6.51,0,0,0-3.58,1,4.08,4.08,0,0,0-1.89,2.8H105a9,9,0,0,1,1.9-4.86,10.66,10.66,0,0,1,4.3-3.16,14.7,14.7,0,0,1,5.89-1.14c3.71,0,6.64.92,8.77,2.74A9.66,9.66,0,0,1,129,35.82V51.59H123.3l-.63-4.13a9.57,9.57,0,0,1-3.26,3.41A9.45,9.45,0,0,1,114.11,52.21ZM115.63,47a5.53,5.53,0,0,0,4.47-1.86,8.88,8.88,0,0,0,2.05-4.6h-5.73a6,6,0,0,0-3.84,1,2.87,2.87,0,0,0-1.15,2.33,2.71,2.71,0,0,0,1.15,2.33A5.14,5.14,0,0,0,115.63,47Z"/><path class="cls-2" d="M135.45,51.59V25.94h5.93l.53,4.35a9,9,0,0,1,3.47-3.62,10.52,10.52,0,0,1,5.41-1.35,9.54,9.54,0,0,1,7.51,3q2.69,3,2.68,8.79V51.59h-6.72V37.73a8.11,8.11,0,0,0-1.37-5.06,5,5,0,0,0-4.26-1.76,6.1,6.1,0,0,0-4.67,2,7.86,7.86,0,0,0-1.79,5.48V51.59Z"/><path class="cls-2" d="M180.18,52.21a14.14,14.14,0,0,1-7-1.7,12.76,12.76,0,0,1-4.83-4.76,13.83,13.83,0,0,1-1.74-7,13.83,13.83,0,0,1,1.74-7A12.69,12.69,0,0,1,173.14,27a14.14,14.14,0,0,1,7-1.71,13.5,13.5,0,0,1,8.41,2.59,11.29,11.29,0,0,1,4.36,7h-7.09a5,5,0,0,0-2.1-2.89A6.07,6.07,0,0,0,180.13,31,6.25,6.25,0,0,0,175.4,33a8,8,0,0,0-1.94,5.74,8,8,0,0,0,1.94,5.74,6.25,6.25,0,0,0,4.73,2.07,6.33,6.33,0,0,0,3.63-1,5,5,0,0,0,2.1-2.94H193a11.67,11.67,0,0,1-4.36,7A13.34,13.34,0,0,1,180.18,52.21Z"/><path class="cls-2" d="M211.58,52.21a14.47,14.47,0,0,1-7-1.65,12.14,12.14,0,0,1-4.78-4.65A13.56,13.56,0,0,1,198.08,39a14.65,14.65,0,0,1,1.68-7.09,12.29,12.29,0,0,1,4.73-4.81,14.05,14.05,0,0,1,7.14-1.76A13.52,13.52,0,0,1,218.41,27,11.69,11.69,0,0,1,223,31.53a12.26,12.26,0,0,1,1.68,6.36c0,.38,0,.78,0,1.19s0,.84-.05,1.29H204.75a6.7,6.7,0,0,0,2.1,4.71,6.85,6.85,0,0,0,4.68,1.7,6.24,6.24,0,0,0,3.41-.87,5.77,5.77,0,0,0,2.1-2.38h6.84A12.2,12.2,0,0,1,221.41,48a11.92,11.92,0,0,1-4.21,3.11A13.24,13.24,0,0,1,211.58,52.21Zm0-21.51a7.17,7.17,0,0,0-4.36,1.4,6.25,6.25,0,0,0-2.42,4.13h13a5.52,5.52,0,0,0-1.89-4A6.34,6.34,0,0,0,211.63,30.7Z"/></g></g></svg>