<svg xmlns="http://www.w3.org/2000/svg" xmlns:xlink="http://www.w3.org/1999/xlink" viewBox="0 0 139.53 41.92"><defs><style>.cls-1{fill:none;}.cls-2{clip-path:url(#clip-path);}.cls-3{fill:#fff;fill-rule:evenodd;}</style><clipPath id="clip-path" transform="translate(0 -0.14)"><rect class="cls-1" width="140.03" height="43"/></clipPath></defs><title>Recurso 8</title><g id="Capa_2" data-name="Capa 2"><g id="Capa_1-2" data-name="Capa 1"><g class="cls-2"><path class="cls-3" d="M80.32.15a22.11,22.11,0,0,0-3,.43c-.72.17-1.13.27-1.3.33l-.71.23A20.5,20.5,0,0,0,65,8.91a21.28,21.28,0,0,0-1.16,1.9c0,.09-.24.35-.27.31s0-2.3,0-5.06c0-4.51,0-5-.1-5S58,1,51.51,1c-9.38,0-11.83,0-11.88.08a7.33,7.33,0,0,0-.29.73l-.8,2.29c-.08.22-.22.62-.31.89s-.23.66-.31.88-.19.52-.24.69-.12.36-.15.45-.16.45-.28.79l-.54,1.54-.54,1.53c-.11.34-.25.73-.29.85s-.19.51-.3.85-.36,1-.54,1.54-.42,1.19-.54,1.54-.25.72-.3.85-.15.43-.23.68a16.51,16.51,0,0,1-.81,2.14,2.21,2.21,0,0,1-.61.05c-.54,0-.73-.07-.73-.28,0-.06-.21-.69-.53-1.55,0-.12-.15-.45-.25-.72s-.19-.55-.21-.62-.67-1.89-.85-2.42c-.08-.25-.17-.51-.2-.59-.14-.35-.25-.68-.36-1s-.32-.93-.57-1.63-.51-1.47-.59-1.7S28,8.18,28,7.93l-.22-.62c0-.09-.12-.37-.21-.62l-.38-1.08c-.11-.34-.24-.68-.27-.75s-.13-.35-.22-.62L26.19,2.9c-.17-.47-.38-1.07-.47-1.34A2.25,2.25,0,0,0,25.48,1C25.4,1,.24,1,.1,1S0,1.56,0,6.21C0,9,0,11.37,0,11.38l3.82,0,3.81,0v9.63c0,5.3,0,9.64,0,9.65l-3.82.05L0,30.82V36l0,5.18H12.22c11.09,0,12.22,0,12.26-.1s0-2.4,0-5.2v-5.1l6.33,0h6.33l0,5.17,0,5.17H50.38l13.14,0V36.12c0-2.79,0-5.07,0-5.07a.81.81,0,0,1,.27.35A19.5,19.5,0,0,0,65,33.32a20.25,20.25,0,0,0,7.14,6.39,19.06,19.06,0,0,0,4.74,1.83,18.7,18.7,0,0,0,3.52.5,23.41,23.41,0,0,0,3.72-.12l.84-.14a15.87,15.87,0,0,0,1.82-.43,20.31,20.31,0,0,0,11.32-8.19,21.28,21.28,0,0,0,2.84-6,2.49,2.49,0,0,1,.22-.56c.1-.15.1.26.1,7.22v7.37l5.56,0h5.55l0-5.09a51.68,51.68,0,0,1,0-5.18c.06-.07.2-.1.47-.1.47,0,.44,0,.65.88a12.82,12.82,0,0,0,8.94,9.78c.26.08,1.53.37,2,.46a17.83,17.83,0,0,0,3.24.13,12.9,12.9,0,0,0,6.39-2.26,13.87,13.87,0,0,0,3.12-3,11.61,11.61,0,0,0,2.17-8.44,11.12,11.12,0,0,0-1.5-4.82,12.11,12.11,0,0,0-4.16-4.07A24.79,24.79,0,0,0,129,17.38l-.83-.24c-.74-.22-1.43-.41-2.29-.61l-.84-.19-.74-.17-.81-.16c-.59-.13-2.38-.48-3.28-.65l-1-.21-.9-.19c-.54-.11-.9-.19-1.61-.39l-.92-.26c-.18-.05-.79-.27-1.06-.39A4.36,4.36,0,0,1,112.35,12a3,3,0,0,1,0-1.86A2.73,2.73,0,0,1,113.52,9a5.69,5.69,0,0,1,2.82-.55,9.9,9.9,0,0,1,4.78,1.15,8.1,8.1,0,0,1,4.23,4.53l.17.5,6.23,0,6.24,0,0-6.82V1h-10.9V6.13c0,5.81,0,5.3-.55,5.3a.94.94,0,0,1-.41-.08,2.13,2.13,0,0,1-.2-.7c-.06-.35-.15-.79-.2-1s-.12-.45-.14-.56a16.39,16.39,0,0,0-.72-1.9,12,12,0,0,0-6.2-6c-.3-.13-.63-.26-.73-.29l-.71-.22A16.62,16.62,0,0,0,115,.24a21,21,0,0,0-3.72,0,12.84,12.84,0,0,0-6.43,2.87,13.6,13.6,0,0,0-1.55,1.58c-.19.24-.37.46-.42.51A13.22,13.22,0,0,0,101.78,7a12.34,12.34,0,0,0-1,3.26,24,24,0,0,0,0,3.53l.05.52-.12-.26c-.07-.14-.2-.47-.29-.72a21.13,21.13,0,0,0-7.21-9.43A20.05,20.05,0,0,0,83.82.25C83.26.18,81,.12,80.32.15ZM17.48,11.84c.22.57.79,2.11,1.08,2.93s.93,2.54,1,2.78a3.17,3.17,0,0,1,.13.36,2.28,2.28,0,0,0,.13.36c.09.21,1.16,3.1,1.3,3.53l.42,1.14c2.71,7.32,2.82,7.62,2.82,7.76s-8.17.13-8.28,0S16,28.45,16,21.18c0-5.2,0-9.52,0-9.6s.07-.15.65-.15h.6Zm28.19,9.23c0,7.65,0,9.62-.06,9.67s-1.92.05-4.18.05c-3.86,0-4.1,0-4.1-.11s.46-1.42.67-1.95c0-.07.13-.32.21-.56.24-.65.49-1.32.55-1.47s.36-1,1-2.68c.28-.75.53-1.43.56-1.5s.3-.81.5-1.38c.08-.21.17-.48.22-.59l.24-.65.23-.62L42.34,17l.87-2.36.13-.32c0-.14.26-.73.53-1.46l.25-.65.08-.23a1.37,1.37,0,0,1,.1-.27l.09-.24.63,0h.64Zm17.78-9.61s-.12.29-.26.61a20.85,20.85,0,0,0-1.14,3.06,21.84,21.84,0,0,0-.3,10.75,20.54,20.54,0,0,0,1.43,4.24,2.57,2.57,0,0,1,.23.62s-1.71.05-3.76.05c-3.35,0-3.74,0-3.77-.1s-.05-19.16,0-19.22S63.45,11.41,63.45,11.46Zm26.79,9.63,0,9.63-.14,0c-.08,0-4,0-8.71,0l-8.58,0V21.09l0-9.66,8.71,0h8.72Zm11.35-4.23a10.76,10.76,0,0,0,4.91,4.94,20.75,20.75,0,0,0,3,1.31A40.35,40.35,0,0,0,114,24.34l.81.16c1,.22,1.14.25,2.72.53l1.73.33.84.17c3.36.64,5.22,1.28,6.37,2.2a2.88,2.88,0,0,1-.6,5A10.51,10.51,0,0,1,119,33a5.3,5.3,0,0,1-1.28-.56,6.76,6.76,0,0,1-3.08-3.29,9,9,0,0,1-.71-2.58c0-.33-.08-.46-.16-.51s-2.41-.06-6.27-.06c-3.39,0-6.17,0-6.19-.05a2.57,2.57,0,0,1,.09-.64,23.25,23.25,0,0,0,0-8.15c-.09-.45-.13-.76-.08-.7S101.48,16.63,101.59,16.86Z" transform="translate(0 -0.14)"/></g></g></g></svg>