<svg xmlns="http://www.w3.org/2000/svg" xmlns:xlink="http://www.w3.org/1999/xlink" viewBox="0 0 188.57 54.26"><defs><style>.cls-1{fill:none;}.cls-2{clip-path:url(#clip-path);}.cls-3{fill:#fff;}</style><clipPath id="clip-path"><rect class="cls-1" width="188.57" height="55"/></clipPath></defs><title>Recurso 11</title><g id="Capa_2" data-name="Capa 2"><g id="Capa_1-2" data-name="Capa 1"><g class="cls-2"><path class="cls-3" d="M34.12,30.55a11.49,11.49,0,0,1-3.56,8.5A11.82,11.82,0,0,1,22,42.56H0V.05H19.41A11.86,11.86,0,0,1,28,3.5,11.37,11.37,0,0,1,31.5,12a11.44,11.44,0,0,1-3.31,8.3A11.27,11.27,0,0,1,34.12,30.55ZM26.22,12a6.3,6.3,0,0,0-2-4.7A6.66,6.66,0,0,0,19.41,5.3H5.23V18.6H19.41a6.57,6.57,0,0,0,4.78-2A6.13,6.13,0,0,0,26.22,12Zm2.62,18.6a6.34,6.34,0,0,0-2-4.7,6.66,6.66,0,0,0-4.79-2H5.23V37.2H22a6.58,6.58,0,0,0,4.79-2A6.09,6.09,0,0,0,28.84,30.55Z"/><path class="cls-3" d="M44.39,15a15.73,15.73,0,0,0-4.79,11.6v.25h0V43.06h5.23V26.55a10.88,10.88,0,0,1,3.26-7.9,10.46,10.46,0,0,1,7.31-3.25V10.1A15.59,15.59,0,0,0,44.39,15Z"/><path class="cls-3" d="M98.11,0H63.55V6.15H98.11Z"/><path class="cls-3" d="M68.78,12.1H63.55V42.56h5.23Z"/><path class="cls-3" d="M109.17,25.3V0h-5.23V14.45a16.1,16.1,0,0,0-22.52.5A16,16,0,0,0,76.63,26.6a15.84,15.84,0,0,0,4.79,11.65A15.53,15.53,0,0,0,92.93,43.1a15.71,15.71,0,0,0,11.5-4.85,15.84,15.84,0,0,0,4.79-11.65A11.3,11.3,0,0,0,109.17,25.3ZM92.93,37.7a10.47,10.47,0,0,1-7.8-3.25,10.64,10.64,0,0,1-3.21-7.9,11,11,0,0,1,11-11.15,10.47,10.47,0,0,1,7.8,3.25,11,11,0,0,1,3.21,7.9,11,11,0,0,1-11,11.15Z"/><path class="cls-3" d="M148.13,26.55h.05A16,16,0,0,0,143.39,15a16.07,16.07,0,0,0-23,0,15.7,15.7,0,0,0-4.79,11.55h0v.05a15.84,15.84,0,0,0,4.79,11.65,16,16,0,0,0,22.52.45,11,11,0,0,1-3.16,7,10.68,10.68,0,0,1-7.8,3.25,10.46,10.46,0,0,1-7.81-3.3,11.67,11.67,0,0,1-1.57-2v.05h-5.88a16.14,16.14,0,0,0,3.7,5.7,16.07,16.07,0,0,0,23,0,15.94,15.94,0,0,0,4.79-11.66v0h0V27.85A10.87,10.87,0,0,0,148.13,26.55ZM131.89,37.7a10.5,10.5,0,0,1-7.81-3.25,10.87,10.87,0,0,1-3.2-7.9V26.5h0a10.68,10.68,0,0,1,3.25-7.85,10.51,10.51,0,0,1,7.76-3.25,10.79,10.79,0,0,1,7.85,3.25,11,11,0,0,1,3.21,7.9h-.05V27.7a10.83,10.83,0,0,1-3.16,6.75A10.68,10.68,0,0,1,131.89,37.7Z"/><path class="cls-3" d="M187,33.65a15.8,15.8,0,0,1-5.18,6.3,16.13,16.13,0,0,1-21-1.75A15.84,15.84,0,0,1,156,26.55a15.92,15.92,0,0,1,4.79-11.65,16.07,16.07,0,0,1,23,0,15.92,15.92,0,0,1,4.79,11.65,17.51,17.51,0,0,1-.19,2.7H161.61a10.7,10.7,0,0,0,3.9,6,10.54,10.54,0,0,0,6.82,2.4A10.73,10.73,0,0,0,178,36.1a10,10,0,0,0,2.86-2.5Zm-4-9.75a10.82,10.82,0,0,0-3.9-6.1,10.51,10.51,0,0,0-6.81-2.4,10.32,10.32,0,0,0-6.82,2.45,11.09,11.09,0,0,0-3.9,6.1Z"/></g></g></g></svg>