<svg xmlns="http://www.w3.org/2000/svg" viewBox="0 0 159.14 44"><defs><style>.cls-1{fill:#fff;}</style></defs><title>Recurso 9</title><g id="Capa_2" data-name="Capa 2"><g id="Capa_1-2" data-name="Capa 1"><g id="mask0_2401_17248" data-name="mask0 2401 17248"><path class="cls-1" d="M12.74,12v4c0,.58.08.66.77.66H30.86c1,0,1.27.4,1.27,1.37V25.3c0,.82-.44,1.11-1.2,1.11H13.24c-.51,0-.5.16-.5.49V32c0,.4.14.6.72.6H36.89c.8,0,1,.25,1,.86V42c0,.71-.43.94-1.21.94H1.21A1.15,1.15,0,0,1,0,41.67V1.78A.88.88,0,0,1,.94.87H36.67c1.23,0,1.23.43,1.23,1.32v7.88c0,.83-.26,1.18-1.35,1.18H13.4c-.65,0-.66.19-.66.7"/><path class="cls-1" d="M60.84,0c12.08,0,18.93,5,18.93,16.33V41.79c0,.8-.23,1.17-1.06,1.17h-10c-.57,0-1-.2-1-1.07V16.69c0-4.07-2.91-6.38-6.86-6.38a6.92,6.92,0,0,0-7.08,7.12V42c0,.8-.38,1-1,1h-10c-.78,0-1-.39-1-1,0,0,0-15.41,0-25.6C41.68,5,50.36,0,60.84,0Z"/><path class="cls-1" d="M97.6,33.21h18.08a.87.87,0,0,1,.95,1v8c0,.51-.43.76-1,.76H84.45c-.78,0-1-.28-1-.87V33.87A1.56,1.56,0,0,1,84,32.59c.41-.41,17.59-21,17.87-21.29s.32-.48-.34-.48H84.63c-.45,0-.67-.26-.67-.78V1.74c0-.67.32-.67.9-.67h30.46c.81,0,1.08.42,1.08.89V9.79a2,2,0,0,1-.51,1.62c-.41.41-18.26,21.1-18.45,21.33s-.26.47.17.47"/><path class="cls-1" d="M146.54,22c0-8.88-2.95-12.55-8.08-12.55s-8.07,3.67-8.07,12.55c0,9.12,2.92,12.62,8.07,12.62S146.54,31.08,146.54,22Zm-28.76,0c0-13.65,7.41-22,20.68-22s20.68,8.31,20.68,22-7.41,22-20.68,22-20.67-8.31-20.67-22"/></g></g></g></svg>