<svg xmlns="http://www.w3.org/2000/svg" viewBox="0 0 256.35 46.71"><defs><style>.cls-1{fill:#fff;}</style></defs><title>Recurso 3</title><g id="Capa_2" data-name="Capa 2"><g id="Capa_1-2" data-name="Capa 1"><path class="cls-1" d="M249.16,43.71l-7.64-12.08h-16.2V25.56h16.25c4.2,0,6.33-1.62,6.33-4.81s-2.13-4.85-6.33-4.85H212.08V9.82h29.49c8,0,12.54,4,12.54,10.93,0,4.75-2.12,8.11-6.14,9.78l8.38,13.18Zm-93.44,0V37.63h49.93v6.08Zm-56.34,0V9.82h31.89c11.41,0,17.69,6,17.69,17s-6.28,16.94-17.69,16.94Zm31.71-6.08c8.06,0,11.65-3.35,11.65-10.86S139.15,15.9,131.09,15.9H105.46V37.63Zm-45,6.08L78.42,31.63H62.21V25.56H78.46c4.2,0,6.33-1.62,6.33-4.81s-2.13-4.85-6.33-4.85H49V9.82H78.46c8,0,12.55,4,12.55,10.93,0,4.75-2.12,8.11-6.15,9.78l8.38,13.18ZM155.72,29.6V23.52h49.93V29.6Zm0-13.7V9.82h49.93V15.9Z"/><path class="cls-1" d="M20.75,10.25h-8v8h8Zm-8,8H6.68v6.1h6.1Zm5.09,6.1H12.78V29.4h5.09ZM16.76,0h-4V4h4Zm-4,4H6.51v6.27h6.27Zm8.78,42.73A21.58,21.58,0,0,1,0,25.15v-.8H6.64v.8A14.92,14.92,0,1,0,21.56,10.23h-.79V3.59h.79a21.56,21.56,0,0,1,0,43.12Z"/></g></g></svg>