<svg xmlns="http://www.w3.org/2000/svg" xmlns:xlink="http://www.w3.org/1999/xlink" viewBox="0 0 315.77 72.89"><defs><style>.cls-1{fill:#222221;}.cls-2{opacity:0.75;}.cls-3{fill:url(#Degradado_sin_nombre_60);}</style><linearGradient id="Degradado_sin_nombre_60" x1="9.59" y1="-15.03" x2="48.14" y2="90.68" gradientUnits="userSpaceOnUse"><stop offset="0.08" stop-color="#a300d5"/><stop offset="0.19" stop-color="#9b03d6"/><stop offset="0.37" stop-color="#830bd7"/><stop offset="0.59" stop-color="#5e17da"/><stop offset="0.85" stop-color="#2a29de"/><stop offset="0.97" stop-color="#0e32e0"/></linearGradient></defs><title>Recurso 4</title><g id="Capa_2" data-name="Capa 2"><g id="Capa_1-2" data-name="Capa 1"><path class="cls-1" d="M306.06,51.67l-9.47-15H276.47V29.13h20.17c5.21,0,7.86-2,7.86-6s-2.65-6-7.86-6H260V9.6h36.6c9.9,0,15.57,5,15.57,13.57,0,5.9-2.63,10.07-7.62,12.13L315,51.67Zm-116,0V44.12h62v7.55Zm-69.92,0V9.6h39.58c14.15,0,22,7.47,22,21s-7.8,21-22,21Zm39.35-7.55c10,0,14.46-4.16,14.46-13.49S169.5,17.15,159.5,17.15H127.69v27Zm-55.9,7.55-9.48-15H74V29.13H94.17c5.22,0,7.86-2,7.86-6s-2.64-6-7.86-6H57.58V9.6H94.17c9.9,0,15.58,5,15.58,13.57,0,5.9-2.63,10.07-7.63,12.13l10.4,16.37Zm86.47-17.52V26.6h62v7.55Zm0-17V9.6h62v7.55Z"/><g class="cls-2"><path class="cls-1" d="M216.18,64.82H213.5v-1H220v1h-2.68v7.91h-1.13Z"/><path class="cls-1" d="M245.9,63.86H251v1h-4v2.77h3.36v1H247v3.22h4.12v1H245.9Z"/><path class="cls-1" d="M276.83,68.3c0-2.86,1.69-4.6,3.94-4.6a3.28,3.28,0,0,1,2.43,1.09l-.61.74a2.42,2.42,0,0,0-1.8-.84c-1.68,0-2.79,1.37-2.79,3.58s1.06,3.63,2.74,3.63a2.67,2.67,0,0,0,2.06-1l.62.71a3.45,3.45,0,0,1-2.72,1.28C278.49,72.89,276.83,71.18,276.83,68.3Z"/><path class="cls-1" d="M309.39,63.86h1.13v3.71h4.12V63.86h1.13v8.87h-1.13V68.56h-4.12v4.17h-1.13Z"/></g><path class="cls-3" d="M25.24,12.47H15.55v9.69h9.69Zm-9.69,9.69H8.13v7.42h7.42Zm6.18,7.42H15.55v6.18h6.18ZM20.39,0H15.55V4.85h4.84ZM15.55,4.85H7.92v7.62h7.63Zm10.68,52A26.26,26.26,0,0,1,0,30.59v-1H8.08v1A18.15,18.15,0,1,0,26.23,12.44h-1V4.36h1a26.23,26.23,0,0,1,0,52.45Z"/></g></g></svg>