<svg xmlns="http://www.w3.org/2000/svg" xmlns:xlink="http://www.w3.org/1999/xlink" viewBox="0 0 682.14 738.77"><defs><style>.cls-1,.cls-3{fill:none;}.cls-2{clip-path:url(#clip-path);}.cls-3{stroke:#ccc;stroke-miterlimit:10;opacity:0.3;}</style><clipPath id="clip-path" transform="translate(-25.8 -31.5)"><rect id="SVGID" class="cls-1" width="519.73" height="631.56"/></clipPath></defs><title>Recurso 21</title><g id="Capa_2" data-name="Capa 2"><g id="Capa_1-2" data-name="Capa 1"><g class="cls-2"><path class="cls-3" d="M354,193.91H228.18V319.75H354ZM228.18,319.75h-96.3v96.31h96.3Zm80.31,96.31H228.18v80.31h80.31ZM291.11,32H228.18V94.92h62.93ZM228.18,94.92h-99v99h99Zm138.7,674.85C179.09,769.77,26.3,617,26.3,429.2V416.63H131.2V429.2c0,130,105.72,235.68,235.68,235.68S602.55,559.15,602.55,429.2,496.82,193.52,366.88,193.52H354.31V88.63h12.57c187.79,0,340.56,152.78,340.56,340.57S554.67,769.77,366.88,769.77Z" transform="translate(-25.8 -31.5)"/></g></g></g></svg>