<svg xmlns="http://www.w3.org/2000/svg" viewBox="0 0 245.39 245.39"><defs><style>.cls-1{fill:#fff;}</style></defs><title>Recurso 6</title><g id="Capa_2" data-name="Capa 2"><g id="Capa_1-2" data-name="Capa 1"><path id="SVGID" class="cls-1" d="M144.43,1.92l-1-.17-2-.33L140,1.22,138.35,1c-.51-.07-1-.12-1.53-.18L135.26.64c-.54-.06-1.09-.1-1.63-.15L132.15.36c-.59,0-1.18-.08-1.77-.11s-.9-.07-1.36-.09L127.27.09l-1.4,0-2.3,0h-.87q-3.54,0-7,.2h.3V66H50.18v50.36H.16Q0,119.52,0,122.7A122.7,122.7,0,1,0,147.43,2.49L147,2.41C146.15,2.24,145.29,2.07,144.43,1.92Z"/></g></g></svg>